<?xml version="1.0" encoding="UTF-8" standalone="no"?>
<!DOCTYPE svg PUBLIC "-//W3C//DTD SVG 1.1//EN" 
  "http://www.w3.org/Graphics/SVG/1.1/DTD/svg11.dtd">
<svg width="24" height="24"
     xmlns="http://www.w3.org/2000/svg" version="1.1">
 <path d="  M 24,0  L 0,0  L 0,24  L 6,24  L 6,16  L 5,16  L 5,15  L 4,15  L 4,14  L 5,14  L 5,13  L 4,13  L 4,12  L 5,12  L 5,11  L 6,11  L 6,10  L 3,10  L 3,9  L 2,9  L 2,7  L 3,7  L 3,8  L 6,8  L 6,7  L 7,7  L 7,4  L 8,4  L 8,3  L 10,3  L 10,4  L 13,4  L 13,3  L 15,3  L 15,4  L 16,4  L 16,7  L 17,7  L 17,8  L 20,8  L 20,7  L 21,7  L 21,9  L 20,9  L 20,10  L 17,10  L 17,20  L 16,20  L 16,21  L 15,21  L 15,22  L 11,22  L 11,24  L 24,24  Z  " style="fill:rgb(0, 0, 0); fill-opacity:0.000; stroke:none;" />
 <path d="  M 3,10  L 20,10  L 20,9  L 21,9  L 21,7  L 20,7  L 20,8  L 3,8  L 3,7  L 2,7  L 2,9  L 3,9  Z  " style="fill:rgb(121, 75, 17); fill-opacity:1.000; stroke:none;" />
 <path d="  M 16,4  L 15,4  L 15,3  L 13,3  L 13,4  L 10,4  L 10,3  L 8,3  L 8,4  L 7,4  L 7,7  L 16,7  Z  " style="fill:rgb(121, 75, 17); fill-opacity:1.000; stroke:none;" />
 <path d="  M 4,13  L 5,13  L 5,12  L 4,12  Z  " style="fill:rgb(0, 0, 0); fill-opacity:1.000; stroke:none;" />
 <path d="  M 5,15  L 5,14  L 4,14  L 4,15  Z  " style="fill:rgb(0, 0, 0); fill-opacity:1.000; stroke:none;" />
 <path d="  M 7,12  L 7,10  L 6,10  L 6,11  L 5,11  L 5,12  Z  " style="fill:rgb(0, 0, 0); fill-opacity:1.000; stroke:none;" />
 <path d="  M 6,14  L 6,13  L 5,13  L 5,14  Z  " style="fill:rgb(0, 0, 0); fill-opacity:1.000; stroke:none;" />
 <path d="  M 6,24  L 7,24  L 7,14  L 6,14  L 6,15  L 5,15  L 5,16  L 6,16  Z  " style="fill:rgb(0, 0, 0); fill-opacity:1.000; stroke:none;" />
 <path d="  M 10,12  L 9,12  L 9,13  L 10,13  Z  " style="fill:rgb(0, 0, 0); fill-opacity:1.000; stroke:none;" />
 <path d="  M 11,12  L 11,11  L 10,11  L 10,12  Z  " style="fill:rgb(0, 0, 0); fill-opacity:1.000; stroke:none;" />
 <path d="  M 10,18  L 10,19  L 15,19  L 15,18  Z  " style="fill:rgb(0, 0, 0); fill-opacity:1.000; stroke:none;" />
 <path d="  M 15,22  L 15,21  L 10,21  L 10,24  L 11,24  L 11,22  Z  " style="fill:rgb(0, 0, 0); fill-opacity:1.000; stroke:none;" />
 <path d="  M 15,13  L 15,12  L 14,12  L 14,13  Z  " style="fill:rgb(0, 0, 0); fill-opacity:1.000; stroke:none;" />
 <path d="  M 16,20  L 17,20  L 17,10  L 16,10  L 16,11  L 15,11  L 15,12  L 16,12  Z  " style="fill:rgb(0, 0, 0); fill-opacity:1.000; stroke:none;" />
 <path d="  M 15,20  L 15,21  L 16,21  L 16,20  Z  " style="fill:rgb(0, 0, 0); fill-opacity:1.000; stroke:none;" />
 <path d="  M 5,12  L 5,13  L 6,13  L 6,12  Z  " style="fill:rgb(200, 251, 251); fill-opacity:1.000; stroke:none;" />
 <path d="  M 7,13  L 6,13  L 6,14  L 7,14  L 7,24  L 10,24  L 10,21  L 15,21  L 15,20  L 16,20  L 16,13  L 14,13  L 14,11  L 16,11  L 16,10  L 7,10  Z  M 15,18  L 15,19  L 10,19  L 10,18  Z  M 13,17  L 12,17  L 12,14  L 13,14  Z  M 9,11  L 11,11  L 11,13  L 9,13  Z  " style="fill:rgb(200, 251, 251); fill-opacity:1.000; stroke:none;" />
 <path d="  M 6,15  L 6,14  L 5,14  L 5,15  Z  " style="fill:rgb(255, 217, 38); fill-opacity:1.000; stroke:none;" />
 <path d="  M 17,8  L 17,7  L 6,7  L 6,8  Z  " style="fill:rgb(80, 47, 5); fill-opacity:1.000; stroke:none;" />
 <path d="  M 6,13  L 7,13  L 7,12  L 6,12  Z  " style="fill:rgb(155, 224, 224); fill-opacity:1.000; stroke:none;" />
 <path d="  M 11,13  L 11,12  L 10,12  L 10,13  Z  " style="fill:rgb(155, 224, 224); fill-opacity:1.000; stroke:none;" />
 <path d="  M 13,17  L 13,14  L 12,14  L 12,17  Z  " style="fill:rgb(155, 224, 224); fill-opacity:1.000; stroke:none;" />
 <path d="  M 15,12  L 15,13  L 16,13  L 16,12  Z  " style="fill:rgb(155, 224, 224); fill-opacity:1.000; stroke:none;" />
 <path d="  M 10,12  L 10,11  L 9,11  L 9,12  Z  " style="fill:rgb(117, 189, 189); fill-opacity:1.000; stroke:none;" />
 <path d="  M 15,11  L 14,11  L 14,12  L 15,12  Z  " style="fill:rgb(117, 189, 189); fill-opacity:1.000; stroke:none;" />
</svg>
