<?xml version="1.0" encoding="UTF-8" standalone="no"?>
<!DOCTYPE svg PUBLIC "-//W3C//DTD SVG 1.1//EN" 
  "http://www.w3.org/Graphics/SVG/1.1/DTD/svg11.dtd">
<svg width="24" height="24"
     xmlns="http://www.w3.org/2000/svg" version="1.1">
 <path d="  M 24,0  L 0,0  L 0,24  L 8,24  L 8,19  L 7,19  L 7,17  L 6,17  L 6,15  L 5,15  L 5,16  L 4,16  L 4,14  L 3,14  L 3,12  L 4,12  L 4,11  L 2,11  L 2,10  L 3,10  L 3,9  L 4,9  L 4,8  L 3,8  L 3,7  L 4,7  L 4,6  L 5,6  L 5,4  L 6,4  L 6,3  L 7,3  L 7,4  L 8,4  L 8,5  L 9,5  L 9,3  L 10,3  L 10,4  L 11,4  L 11,5  L 12,5  L 12,4  L 13,4  L 13,3  L 14,3  L 14,4  L 16,4  L 16,3  L 17,3  L 17,6  L 18,6  L 18,5  L 19,5  L 19,7  L 20,7  L 20,8  L 19,8  L 19,9  L 18,9  L 18,10  L 19,10  L 19,11  L 20,11  L 20,12  L 19,12  L 19,14  L 20,14  L 20,15  L 18,15  L 18,18  L 17,18  L 17,19  L 16,19  L 16,20  L 15,20  L 15,21  L 14,21  L 14,22  L 13,22  L 13,24  L 24,24  Z  M 6,18  L 5,18  L 5,17  L 6,17  Z  M 14,2  L 15,2  L 15,3  L 14,3  Z  M 4,5  L 4,6  L 3,6  L 3,5  Z  M 19,5  L 19,4  L 20,4  L 20,5  Z  M 18,19  L 18,18  L 19,18  L 19,19  Z  " style="fill:rgb(0, 0, 0); fill-opacity:0.000; stroke:none;" />
 <path d="  M 5,13  L 4,13  L 4,14  L 5,14  Z  " style="fill:rgb(0, 0, 0); fill-opacity:0.000; stroke:none;" />
 <path d="  M 6,4  L 6,5  L 7,5  L 7,4  Z  " style="fill:rgb(0, 0, 0); fill-opacity:0.000; stroke:none;" />
 <path d="  M 7,19  L 8,19  L 8,11  L 9,11  L 9,10  L 11,10  L 11,11  L 13,11  L 13,10  L 12,10  L 12,9  L 14,9  L 14,10  L 15,10  L 15,11  L 16,11  L 16,19  L 17,19  L 17,18  L 18,18  L 18,15  L 20,15  L 20,14  L 19,14  L 19,12  L 20,12  L 20,11  L 19,11  L 19,10  L 18,10  L 18,9  L 19,9  L 19,8  L 20,8  L 20,7  L 19,7  L 19,5  L 18,5  L 18,6  L 17,6  L 17,3  L 16,3  L 16,4  L 14,4  L 14,3  L 13,3  L 13,4  L 12,4  L 12,5  L 11,5  L 11,4  L 10,4  L 10,3  L 9,3  L 9,5  L 8,5  L 8,4  L 7,4  L 7,5  L 6,5  L 6,4  L 5,4  L 5,6  L 4,6  L 4,7  L 3,7  L 3,8  L 4,8  L 4,9  L 3,9  L 3,10  L 2,10  L 2,11  L 4,11  L 4,12  L 3,12  L 3,14  L 4,14  L 4,16  L 5,16  L 5,15  L 6,15  L 6,17  L 7,17  Z  M 4,13  L 5,13  L 5,14  L 4,14  Z  " style="fill:rgb(0, 0, 0); fill-opacity:1.000; stroke:none;" />
 <path d="  M 3,6  L 4,6  L 4,5  L 3,5  Z  " style="fill:rgb(0, 0, 0); fill-opacity:1.000; stroke:none;" />
 <path d="  M 6,17  L 5,17  L 5,18  L 6,18  Z  " style="fill:rgb(0, 0, 0); fill-opacity:1.000; stroke:none;" />
 <path d="  M 6,4  L 7,4  L 7,3  L 6,3  Z  " style="fill:rgb(0, 0, 0); fill-opacity:1.000; stroke:none;" />
 <path d="  M 8,24  L 9,24  L 9,19  L 8,19  Z  " style="fill:rgb(0, 0, 0); fill-opacity:1.000; stroke:none;" />
 <path d="  M 10,13  L 9,13  L 9,14  L 10,14  Z  " style="fill:rgb(0, 0, 0); fill-opacity:1.000; stroke:none;" />
 <path d="  M 11,20  L 10,20  L 10,21  L 11,21  Z  " style="fill:rgb(0, 0, 0); fill-opacity:1.000; stroke:none;" />
 <path d="  M 14,21  L 11,21  L 11,22  L 12,22  L 12,24  L 13,24  L 13,22  L 14,22  Z  " style="fill:rgb(0, 0, 0); fill-opacity:1.000; stroke:none;" />
 <path d="  M 13,17  L 13,16  L 12,16  L 12,17  Z  " style="fill:rgb(0, 0, 0); fill-opacity:1.000; stroke:none;" />
 <path d="  M 15,2  L 14,2  L 14,3  L 15,3  Z  " style="fill:rgb(0, 0, 0); fill-opacity:1.000; stroke:none;" />
 <path d="  M 14,14  L 15,14  L 15,13  L 14,13  Z  " style="fill:rgb(0, 0, 0); fill-opacity:1.000; stroke:none;" />
 <path d="  M 15,20  L 14,20  L 14,21  L 15,21  Z  " style="fill:rgb(0, 0, 0); fill-opacity:1.000; stroke:none;" />
 <path d="  M 15,19  L 15,20  L 16,20  L 16,19  Z  " style="fill:rgb(0, 0, 0); fill-opacity:1.000; stroke:none;" />
 <path d="  M 19,19  L 19,18  L 18,18  L 18,19  Z  " style="fill:rgb(0, 0, 0); fill-opacity:1.000; stroke:none;" />
 <path d="  M 20,5  L 20,4  L 19,4  L 19,5  Z  " style="fill:rgb(0, 0, 0); fill-opacity:1.000; stroke:none;" />
 <path d="  M 14,12  L 16,12  L 16,11  L 15,11  L 15,10  L 14,10  L 14,9  L 12,9  L 12,10  L 13,10  L 13,11  L 11,11  L 11,10  L 9,10  L 9,11  L 8,11  L 8,19  L 9,19  L 9,24  L 12,24  L 12,22  L 11,22  L 11,21  L 14,21  L 14,20  L 15,20  L 15,19  L 16,19  L 16,14  L 14,14  Z  M 11,19  L 11,18  L 14,18  L 14,19  Z  M 13,17  L 12,17  L 12,16  L 13,16  Z  M 11,14  L 9,14  L 9,12  L 11,12  Z  M 11,20  L 11,21  L 10,21  L 10,20  Z  " style="fill:rgb(113, 63, 29); fill-opacity:1.000; stroke:none;" />
 <path d="  M 9,12  L 9,13  L 11,13  L 11,12  Z  " style="fill:rgb(143, 15, 105); fill-opacity:1.000; stroke:none;" />
 <path d="  M 14,12  L 14,13  L 16,13  L 16,12  Z  " style="fill:rgb(143, 15, 105); fill-opacity:1.000; stroke:none;" />
 <path d="  M 10,14  L 11,14  L 11,13  L 10,13  Z  " style="fill:rgb(155, 22, 109); fill-opacity:1.000; stroke:none;" />
 <path d="  M 15,14  L 16,14  L 16,13  L 15,13  Z  " style="fill:rgb(155, 22, 109); fill-opacity:1.000; stroke:none;" />
 <path d="  M 14,18  L 11,18  L 11,19  L 14,19  Z  " style="fill:rgb(196, 33, 16); fill-opacity:1.000; stroke:none;" />
</svg>
