<?xml version="1.0" encoding="UTF-8" standalone="no"?>
<!DOCTYPE svg PUBLIC "-//W3C//DTD SVG 1.1//EN" 
  "http://www.w3.org/Graphics/SVG/1.1/DTD/svg11.dtd">
<svg width="24" height="24"
     xmlns="http://www.w3.org/2000/svg" version="1.1">
 <path d="  M 24,0  L 0,0  L 0,24  L 6,24  L 6,15  L 5,15  L 5,12  L 6,12  L 6,7  L 7,7  L 7,6  L 8,6  L 8,5  L 15,5  L 15,6  L 16,6  L 16,7  L 17,7  L 17,21  L 18,21  L 18,19  L 23,19  L 23,22  L 22,22  L 22,23  L 21,23  L 21,24  L 24,24  Z  M 21,11  L 21,12  L 22,12  L 22,14  L 19,14  L 19,12  L 20,12  L 20,11  Z  M 20,15  L 21,15  L 21,16  L 20,16  Z  M 20,18  L 20,17  L 21,17  L 21,18  Z  " style="fill:rgb(0, 0, 0); fill-opacity:0.000; stroke:none;" />
 <path d="  M 17,24  L 17,23  L 16,23  L 16,22  L 11,22  L 11,24  Z  " style="fill:rgb(0, 0, 0); fill-opacity:0.000; stroke:none;" />
 <path d="  M 7,19  L 9,19  L 9,18  L 8,18  L 8,16  L 7,16  L 7,14  L 6,14  L 6,13  L 7,13  L 7,12  L 9,12  L 9,14  L 11,14  L 11,12  L 14,12  L 14,14  L 16,14  L 16,19  L 15,19  L 15,20  L 16,20  L 16,21  L 17,21  L 17,7  L 16,7  L 16,6  L 15,6  L 15,5  L 8,5  L 8,6  L 7,6  L 7,7  L 6,7  L 6,12  L 5,12  L 5,15  L 6,15  L 6,24  L 7,24  Z  M 14,8  L 14,7  L 15,7  L 15,8  L 16,8  L 16,11  L 7,11  L 7,10  L 8,10  L 8,8  L 9,8  L 9,7  L 11,7  L 11,8  L 12,8  L 12,10  L 13,10  L 13,8  Z  " style="fill:rgb(0, 0, 0); fill-opacity:1.000; stroke:none;" />
 <path d="  M 16,22  L 16,21  L 15,21  L 15,20  L 14,20  L 14,21  L 10,21  L 10,24  L 11,24  L 11,22  Z  " style="fill:rgb(0, 0, 0); fill-opacity:1.000; stroke:none;" />
 <path d="  M 12,15  L 12,16  L 14,16  L 14,15  Z  " style="fill:rgb(0, 0, 0); fill-opacity:1.000; stroke:none;" />
 <path d="  M 13,19  L 13,20  L 14,20  L 14,19  Z  " style="fill:rgb(0, 0, 0); fill-opacity:1.000; stroke:none;" />
 <path d="  M 15,18  L 14,18  L 14,19  L 15,19  Z  " style="fill:rgb(0, 0, 0); fill-opacity:1.000; stroke:none;" />
 <path d="  M 17,22  L 16,22  L 16,23  L 17,23  Z  " style="fill:rgb(0, 0, 0); fill-opacity:1.000; stroke:none;" />
 <path d="  M 19,20  L 22,20  L 22,22  L 23,22  L 23,19  L 18,19  L 18,21  L 17,21  L 17,22  L 19,22  Z  " style="fill:rgb(0, 0, 0); fill-opacity:1.000; stroke:none;" />
 <path d="  M 21,24  L 21,23  L 17,23  L 17,24  Z  " style="fill:rgb(0, 0, 0); fill-opacity:1.000; stroke:none;" />
 <path d="  M 22,22  L 21,22  L 21,23  L 22,23  Z  " style="fill:rgb(0, 0, 0); fill-opacity:1.000; stroke:none;" />
 <path d="  M 15,17  L 15,16  L 16,16  L 16,14  L 14,14  L 14,12  L 11,12  L 11,14  L 9,14  L 9,12  L 7,12  L 7,13  L 6,13  L 6,14  L 7,14  L 7,15  L 8,15  L 8,16  L 9,16  L 9,17  Z  M 12,15  L 14,15  L 14,16  L 12,16  Z  " style="fill:rgb(113, 63, 29); fill-opacity:1.000; stroke:none;" />
 <path d="  M 9,9  L 8,9  L 8,10  L 7,10  L 7,11  L 16,11  L 16,8  L 15,8  L 15,7  L 14,7  L 14,8  L 13,8  L 13,10  L 12,10  L 12,8  L 11,8  L 11,7  L 10,7  L 10,8  L 9,8  Z  " style="fill:rgb(113, 63, 29); fill-opacity:1.000; stroke:none;" />
 <path d="  M 7,24  L 10,24  L 10,21  L 9,21  L 9,20  L 8,20  L 8,19  L 7,19  Z  " style="fill:rgb(113, 63, 29); fill-opacity:1.000; stroke:none;" />
 <path d="  M 7,16  L 8,16  L 8,15  L 7,15  Z  " style="fill:rgb(79, 44, 20); fill-opacity:1.000; stroke:none;" />
 <path d="  M 16,16  L 15,16  L 15,17  L 9,17  L 9,16  L 8,16  L 8,18  L 9,18  L 9,19  L 8,19  L 8,20  L 9,20  L 9,21  L 14,21  L 14,20  L 13,20  L 13,19  L 11,19  L 11,18  L 15,18  L 15,19  L 16,19  Z  " style="fill:rgb(79, 44, 20); fill-opacity:1.000; stroke:none;" />
 <path d="  M 9,8  L 8,8  L 8,9  L 9,9  Z  " style="fill:rgb(139, 83, 44); fill-opacity:1.000; stroke:none;" />
 <path d="  M 9,7  L 9,8  L 10,8  L 10,7  Z  " style="fill:rgb(139, 83, 44); fill-opacity:1.000; stroke:none;" />
 <path d="  M 14,18  L 11,18  L 11,19  L 14,19  Z  " style="fill:rgb(40, 27, 9); fill-opacity:1.000; stroke:none;" />
 <path d="  M 15,19  L 14,19  L 14,20  L 15,20  Z  " style="fill:rgb(133, 81, 20); fill-opacity:1.000; stroke:none;" />
 <path d="  M 15,20  L 15,21  L 16,21  L 16,20  Z  " style="fill:rgb(133, 81, 20); fill-opacity:1.000; stroke:none;" />
 <path d="  M 17,22  L 17,21  L 16,21  L 16,22  Z  " style="fill:rgb(133, 81, 20); fill-opacity:1.000; stroke:none;" />
 <path d="  M 20,23  L 20,22  L 17,22  L 17,23  Z  " style="fill:rgb(133, 81, 20); fill-opacity:1.000; stroke:none;" />
 <path d="  M 20,21  L 20,22  L 21,22  L 21,21  L 22,21  L 22,20  L 19,20  L 19,21  Z  " style="fill:rgb(133, 81, 20); fill-opacity:1.000; stroke:none;" />
 <path d="  M 20,12  L 19,12  L 19,14  L 22,14  L 22,12  L 21,12  L 21,11  L 20,11  Z  " style="fill:rgb(185, 185, 185); fill-opacity:0.502; stroke:none;" />
 <path d="  M 20,16  L 21,16  L 21,15  L 20,15  Z  " style="fill:rgb(185, 185, 185); fill-opacity:0.502; stroke:none;" />
 <path d="  M 20,17  L 20,18  L 21,18  L 21,17  Z  " style="fill:rgb(185, 185, 185); fill-opacity:0.502; stroke:none;" />
 <path d="  M 19,21  L 19,22  L 20,22  L 20,21  Z  " style="fill:rgb(104, 60, 8); fill-opacity:1.000; stroke:none;" />
 <path d="  M 21,22  L 20,22  L 20,23  L 21,23  Z  " style="fill:rgb(104, 60, 8); fill-opacity:1.000; stroke:none;" />
 <path d="  M 22,21  L 21,21  L 21,22  L 22,22  Z  " style="fill:rgb(104, 60, 8); fill-opacity:1.000; stroke:none;" />
</svg>
