<?xml version="1.0" encoding="UTF-8" standalone="no"?>
<!DOCTYPE svg PUBLIC "-//W3C//DTD SVG 1.1//EN" 
  "http://www.w3.org/Graphics/SVG/1.1/DTD/svg11.dtd">
<svg width="24" height="24"
     xmlns="http://www.w3.org/2000/svg" version="1.1">
 <path d="  M 24,0  L 0,0  L 0,24  L 8,24  L 8,19  L 7,19  L 7,18  L 6,18  L 6,19  L 5,19  L 5,18  L 4,18  L 4,16  L 3,16  L 3,15  L 4,15  L 4,14  L 3,14  L 3,13  L 4,13  L 4,12  L 3,12  L 3,11  L 4,11  L 4,10  L 5,10  L 5,9  L 3,9  L 3,8  L 4,8  L 4,7  L 5,7  L 5,6  L 6,6  L 6,5  L 8,5  L 8,4  L 10,4  L 10,5  L 11,5  L 11,6  L 12,6  L 12,4  L 14,4  L 14,3  L 16,3  L 16,5  L 17,5  L 17,6  L 21,6  L 21,7  L 19,7  L 19,8  L 18,8  L 18,9  L 20,9  L 20,10  L 21,10  L 21,11  L 20,11  L 20,12  L 21,12  L 21,14  L 20,14  L 20,16  L 19,16  L 19,17  L 20,17  L 20,18  L 18,18  L 18,16  L 17,16  L 17,19  L 16,19  L 16,20  L 15,20  L 15,21  L 14,21  L 14,22  L 13,22  L 13,24  L 24,24  Z  M 11,4  L 11,3  L 12,3  L 12,4  Z  M 18,4  L 18,5  L 17,5  L 17,4  Z  " style="fill:rgb(0, 0, 0); fill-opacity:0.000; stroke:none;" />
 <path d="  M 5,17  L 6,17  L 6,16  L 5,16  Z  " style="fill:rgb(0, 0, 0); fill-opacity:0.000; stroke:none;" />
 <path d="  M 6,7  L 6,8  L 7,8  L 7,7  Z  " style="fill:rgb(0, 0, 0); fill-opacity:0.000; stroke:none;" />
 <path d="  M 9,7  L 9,6  L 8,6  L 8,7  Z  " style="fill:rgb(0, 0, 0); fill-opacity:0.000; stroke:none;" />
 <path d="  M 15,7  L 16,7  L 16,6  L 15,6  Z  " style="fill:rgb(0, 0, 0); fill-opacity:0.000; stroke:none;" />
 <path d="  M 19,16  L 19,15  L 18,15  L 18,16  Z  " style="fill:rgb(0, 0, 0); fill-opacity:0.000; stroke:none;" />
 <path d="  M 19,11  L 20,11  L 20,10  L 19,10  Z  " style="fill:rgb(0, 0, 0); fill-opacity:0.000; stroke:none;" />
 <path d="  M 20,9  L 18,9  L 18,8  L 19,8  L 19,7  L 21,7  L 21,6  L 17,6  L 17,5  L 16,5  L 16,3  L 14,3  L 14,4  L 12,4  L 12,6  L 11,6  L 11,5  L 10,5  L 10,4  L 8,4  L 8,5  L 6,5  L 6,6  L 5,6  L 5,7  L 4,7  L 4,8  L 3,8  L 3,9  L 5,9  L 5,10  L 4,10  L 4,11  L 3,11  L 3,12  L 4,12  L 4,13  L 3,13  L 3,14  L 4,14  L 4,15  L 3,15  L 3,16  L 4,16  L 4,18  L 5,18  L 5,19  L 6,19  L 6,18  L 7,18  L 7,17  L 8,17  L 8,16  L 7,16  L 7,15  L 6,15  L 6,12  L 7,12  L 7,11  L 8,11  L 8,10  L 10,10  L 10,9  L 14,9  L 14,11  L 15,11  L 15,10  L 16,10  L 16,11  L 17,11  L 17,16  L 18,16  L 18,15  L 19,15  L 19,16  L 20,16  L 20,14  L 21,14  L 21,12  L 20,12  L 20,11  L 19,11  L 19,10  L 20,10  Z  M 16,7  L 15,7  L 15,6  L 16,6  Z  M 6,8  L 6,7  L 7,7  L 7,8  Z  M 8,6  L 9,6  L 9,7  L 8,7  Z  M 5,16  L 6,16  L 6,17  L 5,17  Z  " style="fill:rgb(255, 246, 142); fill-opacity:1.000; stroke:none;" />
 <path d="  M 10,10  L 10,11  L 11,11  L 11,10  Z  " style="fill:rgb(255, 246, 142); fill-opacity:1.000; stroke:none;" />
 <path d="  M 12,4  L 12,3  L 11,3  L 11,4  Z  " style="fill:rgb(255, 246, 142); fill-opacity:1.000; stroke:none;" />
 <path d="  M 16,17  L 17,17  L 17,16  L 16,16  Z  " style="fill:rgb(255, 246, 142); fill-opacity:1.000; stroke:none;" />
 <path d="  M 18,4  L 17,4  L 17,5  L 18,5  Z  " style="fill:rgb(255, 246, 142); fill-opacity:1.000; stroke:none;" />
 <path d="  M 19,17  L 19,16  L 18,16  L 18,18  L 20,18  L 20,17  Z  " style="fill:rgb(255, 246, 142); fill-opacity:1.000; stroke:none;" />
 <path d="  M 21,10  L 20,10  L 20,11  L 21,11  Z  " style="fill:rgb(255, 246, 142); fill-opacity:1.000; stroke:none;" />
 <path d="  M 7,15  L 7,16  L 8,16  L 8,15  L 16,15  L 16,16  L 17,16  L 17,11  L 7,11  L 7,12  L 6,12  L 6,15  Z  M 14,12  L 16,12  L 16,14  L 14,14  Z  M 11,12  L 11,14  L 9,14  L 9,12  Z  " style="fill:rgb(0, 0, 0); fill-opacity:1.000; stroke:none;" />
 <path d="  M 7,19  L 8,19  L 8,17  L 7,17  Z  " style="fill:rgb(0, 0, 0); fill-opacity:1.000; stroke:none;" />
 <path d="  M 8,24  L 9,24  L 9,19  L 8,19  Z  " style="fill:rgb(0, 0, 0); fill-opacity:1.000; stroke:none;" />
 <path d="  M 11,20  L 10,20  L 10,21  L 11,21  Z  " style="fill:rgb(0, 0, 0); fill-opacity:1.000; stroke:none;" />
 <path d="  M 14,18  L 11,18  L 11,19  L 14,19  Z  " style="fill:rgb(0, 0, 0); fill-opacity:1.000; stroke:none;" />
 <path d="  M 14,21  L 11,21  L 11,22  L 12,22  L 12,24  L 13,24  L 13,22  L 14,22  Z  " style="fill:rgb(0, 0, 0); fill-opacity:1.000; stroke:none;" />
 <path d="  M 13,17  L 13,16  L 12,16  L 12,17  Z  " style="fill:rgb(0, 0, 0); fill-opacity:1.000; stroke:none;" />
 <path d="  M 15,20  L 14,20  L 14,21  L 15,21  Z  " style="fill:rgb(0, 0, 0); fill-opacity:1.000; stroke:none;" />
 <path d="  M 15,19  L 15,20  L 16,20  L 16,19  Z  " style="fill:rgb(0, 0, 0); fill-opacity:1.000; stroke:none;" />
 <path d="  M 17,19  L 17,17  L 16,17  L 16,19  Z  " style="fill:rgb(0, 0, 0); fill-opacity:1.000; stroke:none;" />
 <path d="  M 8,10  L 8,11  L 10,11  L 10,10  Z  " style="fill:rgb(113, 63, 29); fill-opacity:1.000; stroke:none;" />
 <path d="  M 14,21  L 14,20  L 15,20  L 15,19  L 16,19  L 16,15  L 8,15  L 8,19  L 9,19  L 9,24  L 12,24  L 12,22  L 11,22  L 11,21  Z  M 11,19  L 11,18  L 14,18  L 14,19  Z  M 13,17  L 12,17  L 12,16  L 13,16  Z  M 10,21  L 10,20  L 11,20  L 11,21  Z  " style="fill:rgb(113, 63, 29); fill-opacity:1.000; stroke:none;" />
 <path d="  M 10,9  L 10,10  L 11,10  L 11,11  L 14,11  L 14,9  Z  " style="fill:rgb(113, 63, 29); fill-opacity:1.000; stroke:none;" />
 <path d="  M 15,11  L 16,11  L 16,10  L 15,10  Z  " style="fill:rgb(113, 63, 29); fill-opacity:1.000; stroke:none;" />
 <path d="  M 9,12  L 9,13  L 11,13  L 11,12  Z  " style="fill:rgb(86, 38, 0); fill-opacity:1.000; stroke:none;" />
 <path d="  M 14,12  L 14,13  L 16,13  L 16,12  Z  " style="fill:rgb(86, 38, 0); fill-opacity:1.000; stroke:none;" />
 <path d="  M 10,13  L 9,13  L 9,14  L 10,14  Z  " style="fill:rgb(215, 215, 215); fill-opacity:1.000; stroke:none;" />
 <path d="  M 14,14  L 15,14  L 15,13  L 14,13  Z  " style="fill:rgb(215, 215, 215); fill-opacity:1.000; stroke:none;" />
 <path d="  M 10,14  L 11,14  L 11,13  L 10,13  Z  " style="fill:rgb(114, 55, 9); fill-opacity:1.000; stroke:none;" />
 <path d="  M 15,14  L 16,14  L 16,13  L 15,13  Z  " style="fill:rgb(114, 55, 9); fill-opacity:1.000; stroke:none;" />
</svg>
