<?xml version="1.0" encoding="UTF-8" standalone="no"?>
<!DOCTYPE svg PUBLIC "-//W3C//DTD SVG 1.1//EN" 
  "http://www.w3.org/Graphics/SVG/1.1/DTD/svg11.dtd">
<svg width="24" height="24"
     xmlns="http://www.w3.org/2000/svg" version="1.1">
 <path d="  M 24,0  L 0,0  L 0,24  L 6,24  L 6,15  L 5,15  L 5,12  L 6,12  L 6,10  L 5,10  L 5,9  L 6,9  L 6,8  L 5,8  L 5,7  L 6,7  L 6,6  L 7,6  L 7,5  L 8,5  L 8,4  L 14,4  L 14,5  L 15,5  L 15,4  L 16,4  L 16,6  L 18,6  L 18,7  L 17,7  L 17,9  L 18,9  L 18,12  L 17,12  L 17,21  L 18,21  L 18,19  L 23,19  L 23,22  L 22,22  L 22,23  L 21,23  L 21,24  L 24,24  Z  M 21,11  L 21,12  L 22,12  L 22,14  L 19,14  L 19,12  L 20,12  L 20,11  Z  M 20,15  L 21,15  L 21,16  L 20,16  Z  M 20,18  L 20,17  L 21,17  L 21,18  Z  " style="fill:rgb(0, 0, 0); fill-opacity:0.000; stroke:none;" />
 <path d="  M 17,24  L 17,23  L 16,23  L 16,22  L 11,22  L 11,24  Z  " style="fill:rgb(0, 0, 0); fill-opacity:0.000; stroke:none;" />
 <path d="  M 16,6  L 16,4  L 15,4  L 15,5  L 14,5  L 14,4  L 8,4  L 8,5  L 7,5  L 7,6  L 6,6  L 6,7  L 5,7  L 5,8  L 6,8  L 6,9  L 5,9  L 5,10  L 6,10  L 6,12  L 8,12  L 8,11  L 11,11  L 11,12  L 13,12  L 13,11  L 16,11  L 16,19  L 15,19  L 15,20  L 16,20  L 16,21  L 17,21  L 17,12  L 18,12  L 18,9  L 17,9  L 17,7  L 18,7  L 18,6  Z  M 14,9  L 15,9  L 15,10  L 13,10  L 13,8  L 14,8  Z  M 9,10  L 8,10  L 8,9  L 9,9  Z  M 12,9  L 12,10  L 10,10  L 10,9  Z  " style="fill:rgb(0, 0, 0); fill-opacity:1.000; stroke:none;" />
 <path d="  M 6,24  L 7,24  L 7,14  L 6,14  L 6,12  L 5,12  L 5,15  L 6,15  Z  " style="fill:rgb(0, 0, 0); fill-opacity:1.000; stroke:none;" />
 <path d="  M 11,20  L 11,19  L 10,19  L 10,20  Z  " style="fill:rgb(0, 0, 0); fill-opacity:1.000; stroke:none;" />
 <path d="  M 16,22  L 16,21  L 15,21  L 15,20  L 14,20  L 14,21  L 10,21  L 10,24  L 11,24  L 11,22  Z  " style="fill:rgb(0, 0, 0); fill-opacity:1.000; stroke:none;" />
 <path d="  M 11,18  L 11,19  L 13,19  L 13,20  L 14,20  L 14,19  L 15,19  L 15,18  Z  " style="fill:rgb(0, 0, 0); fill-opacity:1.000; stroke:none;" />
 <path d="  M 12,15  L 12,16  L 14,16  L 14,15  Z  " style="fill:rgb(0, 0, 0); fill-opacity:1.000; stroke:none;" />
 <path d="  M 17,22  L 16,22  L 16,23  L 17,23  Z  " style="fill:rgb(0, 0, 0); fill-opacity:1.000; stroke:none;" />
 <path d="  M 19,20  L 22,20  L 22,22  L 23,22  L 23,19  L 18,19  L 18,21  L 17,21  L 17,22  L 19,22  Z  " style="fill:rgb(0, 0, 0); fill-opacity:1.000; stroke:none;" />
 <path d="  M 21,24  L 21,23  L 17,23  L 17,24  Z  " style="fill:rgb(0, 0, 0); fill-opacity:1.000; stroke:none;" />
 <path d="  M 22,22  L 21,22  L 21,23  L 22,23  Z  " style="fill:rgb(0, 0, 0); fill-opacity:1.000; stroke:none;" />
 <path d="  M 6,14  L 7,14  L 7,24  L 10,24  L 10,21  L 14,21  L 14,20  L 13,20  L 13,19  L 11,19  L 11,18  L 15,18  L 15,19  L 16,19  L 16,14  L 13,14  L 13,12  L 11,12  L 11,14  L 8,14  L 8,12  L 6,12  Z  M 12,15  L 14,15  L 14,16  L 12,16  Z  M 10,19  L 11,19  L 11,20  L 10,20  Z  " style="fill:rgb(113, 63, 29); fill-opacity:1.000; stroke:none;" />
 <path d="  M 9,10  L 9,9  L 8,9  L 8,10  Z  " style="fill:rgb(113, 63, 29); fill-opacity:1.000; stroke:none;" />
 <path d="  M 10,9  L 10,10  L 12,10  L 12,9  Z  " style="fill:rgb(113, 63, 29); fill-opacity:1.000; stroke:none;" />
 <path d="  M 13,10  L 15,10  L 15,9  L 14,9  L 14,8  L 13,8  Z  " style="fill:rgb(113, 63, 29); fill-opacity:1.000; stroke:none;" />
 <path d="  M 9,13  L 9,11  L 8,11  L 8,14  L 11,14  L 11,13  Z  " style="fill:rgb(152, 136, 128); fill-opacity:1.000; stroke:none;" />
 <path d="  M 16,14  L 16,13  L 14,13  L 14,11  L 13,11  L 13,14  Z  " style="fill:rgb(152, 136, 128); fill-opacity:1.000; stroke:none;" />
 <path d="  M 9,11  L 9,12  L 11,12  L 11,11  Z  " style="fill:rgb(137, 122, 112); fill-opacity:1.000; stroke:none;" />
 <path d="  M 14,11  L 14,12  L 16,12  L 16,11  Z  " style="fill:rgb(137, 122, 112); fill-opacity:1.000; stroke:none;" />
 <path d="  M 10,12  L 9,12  L 9,13  L 10,13  Z  " style="fill:rgb(89, 101, 112); fill-opacity:1.000; stroke:none;" />
 <path d="  M 15,13  L 15,12  L 14,12  L 14,13  Z  " style="fill:rgb(89, 101, 112); fill-opacity:1.000; stroke:none;" />
 <path d="  M 11,13  L 11,12  L 10,12  L 10,13  Z  " style="fill:rgb(153, 132, 117); fill-opacity:1.000; stroke:none;" />
 <path d="  M 15,12  L 15,13  L 16,13  L 16,12  Z  " style="fill:rgb(153, 132, 117); fill-opacity:1.000; stroke:none;" />
 <path d="  M 15,19  L 14,19  L 14,20  L 15,20  Z  " style="fill:rgb(133, 81, 20); fill-opacity:1.000; stroke:none;" />
 <path d="  M 15,20  L 15,21  L 16,21  L 16,20  Z  " style="fill:rgb(133, 81, 20); fill-opacity:1.000; stroke:none;" />
 <path d="  M 17,22  L 17,21  L 16,21  L 16,22  Z  " style="fill:rgb(133, 81, 20); fill-opacity:1.000; stroke:none;" />
 <path d="  M 20,23  L 20,22  L 17,22  L 17,23  Z  " style="fill:rgb(133, 81, 20); fill-opacity:1.000; stroke:none;" />
 <path d="  M 20,21  L 20,22  L 21,22  L 21,21  L 22,21  L 22,20  L 19,20  L 19,21  Z  " style="fill:rgb(133, 81, 20); fill-opacity:1.000; stroke:none;" />
 <path d="  M 20,12  L 19,12  L 19,14  L 22,14  L 22,12  L 21,12  L 21,11  L 20,11  Z  " style="fill:rgb(185, 185, 185); fill-opacity:0.502; stroke:none;" />
 <path d="  M 20,16  L 21,16  L 21,15  L 20,15  Z  " style="fill:rgb(185, 185, 185); fill-opacity:0.502; stroke:none;" />
 <path d="  M 20,17  L 20,18  L 21,18  L 21,17  Z  " style="fill:rgb(185, 185, 185); fill-opacity:0.502; stroke:none;" />
 <path d="  M 19,21  L 19,22  L 20,22  L 20,21  Z  " style="fill:rgb(104, 60, 8); fill-opacity:1.000; stroke:none;" />
 <path d="  M 21,22  L 20,22  L 20,23  L 21,23  Z  " style="fill:rgb(104, 60, 8); fill-opacity:1.000; stroke:none;" />
 <path d="  M 22,21  L 21,21  L 21,22  L 22,22  Z  " style="fill:rgb(104, 60, 8); fill-opacity:1.000; stroke:none;" />
</svg>
