<?xml version="1.0" encoding="UTF-8" standalone="no"?>
<!DOCTYPE svg PUBLIC "-//W3C//DTD SVG 1.1//EN" 
  "http://www.w3.org/Graphics/SVG/1.1/DTD/svg11.dtd">
<svg width="24" height="24"
     xmlns="http://www.w3.org/2000/svg" version="1.1">
 <path d="  M 24,0  L 0,0  L 0,24  L 8,24  L 8,19  L 7,19  L 7,17  L 6,17  L 6,16  L 5,16  L 5,15  L 4,15  L 4,14  L 5,14  L 5,13  L 4,13  L 4,12  L 5,12  L 5,10  L 4,10  L 4,9  L 5,9  L 5,6  L 6,6  L 6,4  L 7,4  L 7,6  L 9,6  L 9,5  L 10,5  L 10,3  L 11,3  L 11,5  L 12,5  L 12,3  L 13,3  L 13,5  L 15,5  L 15,4  L 16,4  L 16,6  L 17,6  L 17,7  L 19,7  L 19,8  L 17,8  L 17,9  L 20,9  L 20,10  L 19,10  L 19,11  L 20,11  L 20,12  L 19,12  L 19,13  L 18,13  L 18,14  L 19,14  L 19,15  L 18,15  L 18,17  L 17,17  L 17,19  L 16,19  L 16,20  L 15,20  L 15,21  L 14,21  L 14,22  L 13,22  L 13,24  L 24,24  Z  M 20,5  L 20,6  L 17,6  L 17,5  Z  M 8,5  L 8,4  L 9,4  L 9,5  Z  M 3,9  L 3,8  L 4,8  L 4,9  Z  " style="fill:rgb(0, 0, 0); fill-opacity:0.000; stroke:none;" />
 <path d="  M 7,6  L 6,6  L 6,7  L 7,7  Z  " style="fill:rgb(0, 0, 0); fill-opacity:0.000; stroke:none;" />
 <path d="  M 8,8  L 8,7  L 7,7  L 7,8  Z  " style="fill:rgb(0, 0, 0); fill-opacity:0.000; stroke:none;" />
 <path d="  M 3,9  L 4,9  L 4,8  L 3,8  Z  " style="fill:rgb(226, 38, 38); fill-opacity:1.000; stroke:none;" />
 <path d="  M 11,3  L 10,3  L 10,5  L 9,5  L 9,6  L 7,6  L 7,7  L 6,7  L 6,6  L 5,6  L 5,9  L 4,9  L 4,10  L 5,10  L 5,12  L 4,12  L 4,13  L 5,13  L 5,14  L 4,14  L 4,15  L 5,15  L 5,16  L 6,16  L 6,17  L 7,17  L 7,15  L 6,15  L 6,11  L 8,11  L 8,9  L 9,9  L 9,8  L 14,8  L 14,9  L 16,9  L 16,11  L 17,11  L 17,17  L 18,17  L 18,15  L 19,15  L 19,14  L 18,14  L 18,13  L 19,13  L 19,12  L 20,12  L 20,11  L 19,11  L 19,10  L 20,10  L 20,9  L 17,9  L 17,8  L 19,8  L 19,7  L 17,7  L 17,6  L 16,6  L 16,4  L 15,4  L 15,5  L 13,5  L 13,3  L 12,3  L 12,5  L 11,5  Z  M 7,8  L 7,7  L 8,7  L 8,8  Z  " style="fill:rgb(226, 38, 38); fill-opacity:1.000; stroke:none;" />
 <path d="  M 6,4  L 6,6  L 7,6  L 7,4  Z  " style="fill:rgb(226, 38, 38); fill-opacity:1.000; stroke:none;" />
 <path d="  M 8,5  L 9,5  L 9,4  L 8,4  Z  " style="fill:rgb(226, 38, 38); fill-opacity:1.000; stroke:none;" />
 <path d="  M 17,6  L 20,6  L 20,5  L 17,5  Z  " style="fill:rgb(226, 38, 38); fill-opacity:1.000; stroke:none;" />
 <path d="  M 7,19  L 8,19  L 8,14  L 7,14  L 7,12  L 8,12  L 8,13  L 9,13  L 9,14  L 11,14  L 11,13  L 12,13  L 12,12  L 13,12  L 13,13  L 14,13  L 14,14  L 16,14  L 16,19  L 17,19  L 17,11  L 6,11  L 6,15  L 7,15  Z  " style="fill:rgb(0, 0, 0); fill-opacity:1.000; stroke:none;" />
 <path d="  M 8,24  L 9,24  L 9,19  L 8,19  Z  " style="fill:rgb(0, 0, 0); fill-opacity:1.000; stroke:none;" />
 <path d="  M 11,20  L 10,20  L 10,21  L 11,21  Z  " style="fill:rgb(0, 0, 0); fill-opacity:1.000; stroke:none;" />
 <path d="  M 14,21  L 11,21  L 11,22  L 12,22  L 12,24  L 13,24  L 13,22  L 14,22  Z  " style="fill:rgb(0, 0, 0); fill-opacity:1.000; stroke:none;" />
 <path d="  M 13,17  L 13,16  L 12,16  L 12,17  Z  " style="fill:rgb(0, 0, 0); fill-opacity:1.000; stroke:none;" />
 <path d="  M 15,20  L 14,20  L 14,21  L 15,21  Z  " style="fill:rgb(0, 0, 0); fill-opacity:1.000; stroke:none;" />
 <path d="  M 15,19  L 15,20  L 16,20  L 16,19  Z  " style="fill:rgb(0, 0, 0); fill-opacity:1.000; stroke:none;" />
 <path d="  M 7,12  L 7,14  L 8,14  L 8,19  L 9,19  L 9,24  L 12,24  L 12,22  L 11,22  L 11,21  L 14,21  L 14,20  L 15,20  L 15,19  L 16,19  L 16,14  L 14,14  L 14,13  L 13,13  L 13,12  L 12,12  L 12,13  L 11,13  L 11,14  L 9,14  L 9,13  L 8,13  L 8,12  Z  M 11,19  L 11,18  L 14,18  L 14,19  Z  M 13,17  L 12,17  L 12,16  L 13,16  Z  M 10,21  L 10,20  L 11,20  L 11,21  Z  " style="fill:rgb(174, 139, 97); fill-opacity:1.000; stroke:none;" />
 <path d="  M 9,9  L 8,9  L 8,11  L 16,11  L 16,9  L 14,9  L 14,8  L 9,8  Z  M 10,10  L 9,10  L 9,9  L 10,9  Z  " style="fill:rgb(174, 139, 97); fill-opacity:1.000; stroke:none;" />
 <path d="  M 9,10  L 10,10  L 10,9  L 9,9  Z  " style="fill:rgb(182, 159, 130); fill-opacity:1.000; stroke:none;" />
 <path d="  M 14,18  L 11,18  L 11,19  L 14,19  Z  " style="fill:rgb(205, 0, 203); fill-opacity:1.000; stroke:none;" />
</svg>
