<?xml version="1.0" encoding="UTF-8" standalone="no"?>
<!DOCTYPE svg PUBLIC "-//W3C//DTD SVG 1.1//EN" 
  "http://www.w3.org/Graphics/SVG/1.1/DTD/svg11.dtd">
<svg width="24" height="24"
     xmlns="http://www.w3.org/2000/svg" version="1.1">
 <path d="  M 24,0  L 0,0  L 0,24  L 8,24  L 8,21  L 7,21  L 7,20  L 6,20  L 6,18  L 5,18  L 5,13  L 6,13  L 6,11  L 7,11  L 7,8  L 8,8  L 8,7  L 9,7  L 9,6  L 15,6  L 15,7  L 16,7  L 16,8  L 17,8  L 17,11  L 18,11  L 18,13  L 19,13  L 19,18  L 18,18  L 18,20  L 17,20  L 17,21  L 14,21  L 14,22  L 13,22  L 13,24  L 24,24  Z  " style="fill:rgb(0, 0, 0); fill-opacity:0.000; stroke:none;" />
 <path d="  M 16,19  L 15,19  L 15,21  L 17,21  L 17,20  L 18,20  L 18,18  L 19,18  L 19,13  L 18,13  L 18,11  L 17,11  L 17,10  L 7,10  L 7,11  L 6,11  L 6,13  L 5,13  L 5,18  L 6,18  L 6,20  L 7,20  L 7,21  L 9,21  L 9,19  L 8,19  L 8,14  L 7,14  L 7,13  L 8,13  L 8,12  L 9,12  L 9,11  L 11,11  L 11,12  L 12,12  L 12,13  L 13,13  L 13,12  L 14,12  L 14,11  L 16,11  Z  " style="fill:rgb(255, 142, 190); fill-opacity:1.000; stroke:none;" />
 <path d="  M 8,7  L 8,8  L 7,8  L 7,10  L 17,10  L 17,8  L 16,8  L 16,7  L 15,7  L 15,6  L 9,6  L 9,7  Z  M 12,7  L 12,8  L 11,8  L 11,7  Z  M 12,8  L 13,8  L 13,9  L 12,9  Z  " style="fill:rgb(0, 0, 0); fill-opacity:1.000; stroke:none;" />
 <path d="  M 8,24  L 9,24  L 9,21  L 8,21  Z  " style="fill:rgb(0, 0, 0); fill-opacity:1.000; stroke:none;" />
 <path d="  M 10,13  L 9,13  L 9,14  L 10,14  Z  " style="fill:rgb(0, 0, 0); fill-opacity:1.000; stroke:none;" />
 <path d="  M 11,20  L 10,20  L 10,21  L 11,21  Z  " style="fill:rgb(0, 0, 0); fill-opacity:1.000; stroke:none;" />
 <path d="  M 14,21  L 11,21  L 11,22  L 12,22  L 12,24  L 13,24  L 13,22  L 14,22  Z  " style="fill:rgb(0, 0, 0); fill-opacity:1.000; stroke:none;" />
 <path d="  M 13,17  L 13,16  L 12,16  L 12,17  Z  " style="fill:rgb(0, 0, 0); fill-opacity:1.000; stroke:none;" />
 <path d="  M 14,14  L 15,14  L 15,13  L 14,13  Z  " style="fill:rgb(0, 0, 0); fill-opacity:1.000; stroke:none;" />
 <path d="  M 15,20  L 14,20  L 14,21  L 15,21  Z  " style="fill:rgb(0, 0, 0); fill-opacity:1.000; stroke:none;" />
 <path d="  M 14,21  L 14,20  L 15,20  L 15,19  L 16,19  L 16,14  L 14,14  L 14,12  L 13,12  L 13,13  L 12,13  L 12,12  L 11,12  L 11,14  L 9,14  L 9,12  L 8,12  L 8,13  L 7,13  L 7,14  L 8,14  L 8,19  L 9,19  L 9,24  L 12,24  L 12,22  L 11,22  L 11,21  Z  M 11,19  L 11,18  L 14,18  L 14,19  Z  M 13,17  L 12,17  L 12,16  L 13,16  Z  M 10,20  L 11,20  L 11,21  L 10,21  Z  " style="fill:rgb(113, 63, 29); fill-opacity:1.000; stroke:none;" />
 <path d="  M 9,11  L 9,12  L 11,12  L 11,11  Z  " style="fill:rgb(113, 63, 29); fill-opacity:1.000; stroke:none;" />
 <path d="  M 14,11  L 14,12  L 16,12  L 16,11  Z  " style="fill:rgb(113, 63, 29); fill-opacity:1.000; stroke:none;" />
 <path d="  M 9,12  L 9,13  L 11,13  L 11,12  Z  " style="fill:rgb(60, 104, 39); fill-opacity:1.000; stroke:none;" />
 <path d="  M 14,12  L 14,13  L 16,13  L 16,12  Z  " style="fill:rgb(60, 104, 39); fill-opacity:1.000; stroke:none;" />
 <path d="  M 10,14  L 11,14  L 11,13  L 10,13  Z  " style="fill:rgb(72, 111, 43); fill-opacity:1.000; stroke:none;" />
 <path d="  M 15,14  L 16,14  L 16,13  L 15,13  Z  " style="fill:rgb(72, 111, 43); fill-opacity:1.000; stroke:none;" />
 <path d="  M 11,7  L 11,8  L 12,8  L 12,7  Z  " style="fill:rgb(255, 255, 255); fill-opacity:1.000; stroke:none;" />
 <path d="  M 12,9  L 13,9  L 13,8  L 12,8  Z  " style="fill:rgb(255, 255, 255); fill-opacity:1.000; stroke:none;" />
 <path d="  M 14,18  L 11,18  L 11,19  L 14,19  Z  " style="fill:rgb(205, 0, 203); fill-opacity:1.000; stroke:none;" />
</svg>
