<?xml version="1.0" encoding="UTF-8" standalone="no"?>
<!DOCTYPE svg PUBLIC "-//W3C//DTD SVG 1.1//EN" 
  "http://www.w3.org/Graphics/SVG/1.1/DTD/svg11.dtd">
<svg width="24" height="24"
     xmlns="http://www.w3.org/2000/svg" version="1.1">
 <path d="  M 24,0  L 0,0  L 0,24  L 6,24  L 6,15  L 5,15  L 5,12  L 6,12  L 6,10  L 3,10  L 3,9  L 2,9  L 2,7  L 3,7  L 3,8  L 6,8  L 6,7  L 7,7  L 7,4  L 8,4  L 8,3  L 10,3  L 10,4  L 13,4  L 13,3  L 15,3  L 15,4  L 16,4  L 16,7  L 17,7  L 17,8  L 20,8  L 20,7  L 21,7  L 21,9  L 20,9  L 20,10  L 18,10  L 18,13  L 17,13  L 17,20  L 16,20  L 16,21  L 15,21  L 15,22  L 11,22  L 11,24  L 24,24  Z  " style="fill:rgb(0, 0, 0); fill-opacity:0.000; stroke:none;" />
 <path d="  M 3,10  L 7,10  L 7,9  L 12,9  L 12,10  L 13,10  L 13,9  L 18,9  L 18,10  L 20,10  L 20,9  L 21,9  L 21,7  L 20,7  L 20,8  L 3,8  L 3,7  L 2,7  L 2,9  L 3,9  Z  " style="fill:rgb(121, 75, 17); fill-opacity:1.000; stroke:none;" />
 <path d="  M 16,4  L 15,4  L 15,3  L 13,3  L 13,4  L 10,4  L 10,3  L 8,3  L 8,4  L 7,4  L 7,7  L 16,7  Z  " style="fill:rgb(121, 75, 17); fill-opacity:1.000; stroke:none;" />
 <path d="  M 6,24  L 7,24  L 7,14  L 6,14  L 6,12  L 5,12  L 5,15  L 6,15  Z  " style="fill:rgb(0, 0, 0); fill-opacity:1.000; stroke:none;" />
 <path d="  M 7,12  L 7,13  L 8,13  L 8,10  L 11,10  L 11,13  L 12,13  L 12,11  L 13,11  L 13,13  L 14,13  L 14,10  L 17,10  L 17,13  L 18,13  L 18,9  L 13,9  L 13,10  L 12,10  L 12,9  L 7,9  L 7,10  L 6,10  L 6,12  Z  " style="fill:rgb(0, 0, 0); fill-opacity:1.000; stroke:none;" />
 <path d="  M 11,14  L 11,13  L 8,13  L 8,14  Z  " style="fill:rgb(0, 0, 0); fill-opacity:1.000; stroke:none;" />
 <path d="  M 15,22  L 15,21  L 10,21  L 10,24  L 11,24  L 11,22  Z  " style="fill:rgb(0, 0, 0); fill-opacity:1.000; stroke:none;" />
 <path d="  M 16,20  L 17,20  L 17,13  L 14,13  L 14,14  L 16,14  Z  " style="fill:rgb(0, 0, 0); fill-opacity:1.000; stroke:none;" />
 <path d="  M 15,20  L 15,21  L 16,21  L 16,20  Z  " style="fill:rgb(0, 0, 0); fill-opacity:1.000; stroke:none;" />
 <path d="  M 17,8  L 17,7  L 6,7  L 6,8  Z  " style="fill:rgb(80, 47, 5); fill-opacity:1.000; stroke:none;" />
 <path d="  M 6,13  L 7,13  L 7,12  L 6,12  Z  " style="fill:rgb(201, 201, 201); fill-opacity:1.000; stroke:none;" />
 <path d="  M 7,13  L 7,14  L 8,14  L 8,13  Z  " style="fill:rgb(201, 201, 201); fill-opacity:1.000; stroke:none;" />
 <path d="  M 7,19  L 9,19  L 9,20  L 10,20  L 10,21  L 14,21  L 14,20  L 15,20  L 15,19  L 16,19  L 16,18  L 14,18  L 14,17  L 15,17  L 15,15  L 13,15  L 13,16  L 12,16  L 12,15  L 9,15  L 9,17  L 10,17  L 10,18  L 7,18  Z  " style="fill:rgb(201, 201, 201); fill-opacity:1.000; stroke:none;" />
 <path d="  M 8,14  L 8,15  L 9,15  L 9,14  Z  " style="fill:rgb(201, 201, 201); fill-opacity:1.000; stroke:none;" />
 <path d="  M 15,14  L 15,15  L 16,15  L 16,14  Z  " style="fill:rgb(201, 201, 201); fill-opacity:1.000; stroke:none;" />
 <path d="  M 6,13  L 6,14  L 7,14  L 7,13  Z  " style="fill:rgb(113, 63, 29); fill-opacity:1.000; stroke:none;" />
 <path d="  M 9,18  L 9,15  L 8,15  L 8,14  L 7,14  L 7,18  Z  " style="fill:rgb(113, 63, 29); fill-opacity:1.000; stroke:none;" />
 <path d="  M 7,24  L 10,24  L 10,20  L 9,20  L 9,19  L 7,19  Z  " style="fill:rgb(113, 63, 29); fill-opacity:1.000; stroke:none;" />
 <path d="  M 15,15  L 15,14  L 14,14  L 14,13  L 13,13  L 13,11  L 12,11  L 12,13  L 11,13  L 11,14  L 9,14  L 9,15  Z  " style="fill:rgb(113, 63, 29); fill-opacity:1.000; stroke:none;" />
 <path d="  M 15,20  L 14,20  L 14,21  L 15,21  Z  " style="fill:rgb(113, 63, 29); fill-opacity:1.000; stroke:none;" />
 <path d="  M 16,18  L 16,15  L 15,15  L 15,18  Z  " style="fill:rgb(113, 63, 29); fill-opacity:1.000; stroke:none;" />
 <path d="  M 15,19  L 15,20  L 16,20  L 16,19  Z  " style="fill:rgb(113, 63, 29); fill-opacity:1.000; stroke:none;" />
 <path d="  M 8,10  L 8,11  L 11,11  L 11,10  Z  " style="fill:rgb(105, 12, 69); fill-opacity:1.000; stroke:none;" />
 <path d="  M 17,10  L 14,10  L 14,11  L 17,11  Z  " style="fill:rgb(105, 12, 69); fill-opacity:1.000; stroke:none;" />
 <path d="  M 11,12  L 11,11  L 8,11  L 8,12  Z  " style="fill:rgb(140, 13, 91); fill-opacity:1.000; stroke:none;" />
 <path d="  M 14,11  L 14,12  L 17,12  L 17,11  Z  " style="fill:rgb(140, 13, 91); fill-opacity:1.000; stroke:none;" />
 <path d="  M 8,12  L 8,13  L 11,13  L 11,12  Z  " style="fill:rgb(173, 33, 96); fill-opacity:1.000; stroke:none;" />
 <path d="  M 14,12  L 14,13  L 17,13  L 17,12  Z  " style="fill:rgb(173, 33, 96); fill-opacity:1.000; stroke:none;" />
 <path d="  M 9,18  L 10,18  L 10,17  L 9,17  Z  " style="fill:rgb(177, 177, 177); fill-opacity:1.000; stroke:none;" />
 <path d="  M 12,16  L 13,16  L 13,15  L 12,15  Z  " style="fill:rgb(177, 177, 177); fill-opacity:1.000; stroke:none;" />
 <path d="  M 15,18  L 15,17  L 14,17  L 14,18  Z  " style="fill:rgb(177, 177, 177); fill-opacity:1.000; stroke:none;" />
</svg>
