<?xml version="1.0" encoding="UTF-8" standalone="no"?>
<!DOCTYPE svg PUBLIC "-//W3C//DTD SVG 1.1//EN" 
  "http://www.w3.org/Graphics/SVG/1.1/DTD/svg11.dtd">
<svg width="24" height="24"
     xmlns="http://www.w3.org/2000/svg" version="1.1">
 <path d="  M 24,0  L 0,0  L 0,24  L 6,24  L 6,15  L 5,15  L 5,11  L 6,11  L 6,9  L 4,9  L 4,8  L 5,8  L 5,7  L 6,7  L 6,2  L 7,2  L 7,1  L 16,1  L 16,2  L 17,2  L 17,7  L 18,7  L 18,8  L 19,8  L 19,9  L 17,9  L 17,11  L 18,11  L 18,13  L 17,13  L 17,20  L 16,20  L 16,21  L 15,21  L 15,22  L 11,22  L 11,24  L 24,24  Z  " style="fill:rgb(0, 0, 0); fill-opacity:0.000; stroke:none;" />
 <path d="  M 9,13  L 9,14  L 11,14  L 11,13  L 12,13  L 12,12  L 14,12  L 14,13  L 15,13  L 15,14  L 16,14  L 16,20  L 17,20  L 17,13  L 18,13  L 18,11  L 17,11  L 17,9  L 19,9  L 19,8  L 18,8  L 18,7  L 5,7  L 5,8  L 4,8  L 4,9  L 6,9  L 6,11  L 5,11  L 5,15  L 6,15  L 6,24  L 7,24  L 7,14  L 6,14  L 6,12  L 8,12  L 8,13  Z  M 7,11  L 7,9  L 16,9  L 16,11  Z  " style="fill:rgb(0, 0, 0); fill-opacity:1.000; stroke:none;" />
 <path d="  M 17,6  L 17,2  L 16,2  L 16,1  L 7,1  L 7,2  L 6,2  L 6,6  Z  " style="fill:rgb(0, 0, 0); fill-opacity:1.000; stroke:none;" />
 <path d="  M 15,22  L 15,21  L 10,21  L 10,24  L 11,24  L 11,22  Z  " style="fill:rgb(0, 0, 0); fill-opacity:1.000; stroke:none;" />
 <path d="  M 14,18  L 11,18  L 11,19  L 14,19  Z  " style="fill:rgb(0, 0, 0); fill-opacity:1.000; stroke:none;" />
 <path d="  M 12,15  L 12,16  L 14,16  L 14,15  Z  " style="fill:rgb(0, 0, 0); fill-opacity:1.000; stroke:none;" />
 <path d="  M 15,20  L 15,21  L 16,21  L 16,20  Z  " style="fill:rgb(0, 0, 0); fill-opacity:1.000; stroke:none;" />
 <path d="  M 6,6  L 6,7  L 17,7  L 17,6  Z  " style="fill:rgb(220, 29, 29); fill-opacity:1.000; stroke:none;" />
 <path d="  M 6,14  L 7,14  L 7,24  L 10,24  L 10,21  L 15,21  L 15,20  L 16,20  L 16,14  L 15,14  L 15,13  L 14,13  L 14,12  L 12,12  L 12,13  L 11,13  L 11,14  L 9,14  L 9,13  L 8,13  L 8,12  L 6,12  Z  M 11,19  L 11,18  L 14,18  L 14,19  Z  M 12,15  L 14,15  L 14,16  L 12,16  Z  " style="fill:rgb(219, 177, 128); fill-opacity:1.000; stroke:none;" />
 <path d="  M 7,9  L 7,11  L 16,11  L 16,9  Z  " style="fill:rgb(219, 177, 128); fill-opacity:1.000; stroke:none;" />
</svg>
