<?xml version="1.0" encoding="UTF-8" standalone="no"?>
<!DOCTYPE svg PUBLIC "-//W3C//DTD SVG 1.1//EN" 
  "http://www.w3.org/Graphics/SVG/1.1/DTD/svg11.dtd">
<svg width="24" height="24"
     xmlns="http://www.w3.org/2000/svg" version="1.1">
 <path d="  M 24,0  L 0,0  L 0,24  L 6,24  L 6,15  L 5,15  L 5,12  L 6,12  L 6,10  L 5,10  L 5,9  L 6,9  L 6,8  L 5,8  L 5,7  L 6,7  L 6,6  L 7,6  L 7,5  L 8,5  L 8,4  L 14,4  L 14,5  L 15,5  L 15,4  L 16,4  L 16,6  L 18,6  L 18,7  L 17,7  L 17,9  L 18,9  L 18,12  L 17,12  L 17,17  L 20,17  L 20,18  L 21,18  L 21,19  L 20,19  L 20,20  L 16,20  L 16,21  L 15,21  L 15,22  L 11,22  L 11,24  L 24,24  Z  M 19,10  L 20,10  L 20,16  L 19,16  Z  " style="fill:rgb(0, 0, 0); fill-opacity:0.000; stroke:none;" />
 <path d="  M 16,6  L 16,4  L 15,4  L 15,5  L 14,5  L 14,4  L 8,4  L 8,5  L 7,5  L 7,6  L 6,6  L 6,7  L 5,7  L 5,8  L 6,8  L 6,9  L 5,9  L 5,10  L 6,10  L 6,12  L 8,12  L 8,11  L 11,11  L 11,12  L 13,12  L 13,11  L 16,11  L 16,17  L 14,17  L 14,18  L 20,18  L 20,17  L 17,17  L 17,12  L 18,12  L 18,9  L 17,9  L 17,7  L 18,7  L 18,6  Z  M 14,9  L 15,9  L 15,10  L 13,10  L 13,8  L 14,8  Z  M 9,10  L 8,10  L 8,9  L 9,9  Z  M 12,9  L 12,10  L 10,10  L 10,9  Z  " style="fill:rgb(0, 0, 0); fill-opacity:1.000; stroke:none;" />
 <path d="  M 6,24  L 7,24  L 7,14  L 6,14  L 6,12  L 5,12  L 5,15  L 6,15  Z  " style="fill:rgb(0, 0, 0); fill-opacity:1.000; stroke:none;" />
 <path d="  M 15,22  L 15,21  L 10,21  L 10,24  L 11,24  L 11,22  Z  " style="fill:rgb(0, 0, 0); fill-opacity:1.000; stroke:none;" />
 <path d="  M 14,18  L 11,18  L 11,19  L 14,19  Z  " style="fill:rgb(0, 0, 0); fill-opacity:1.000; stroke:none;" />
 <path d="  M 12,15  L 12,16  L 14,16  L 14,15  Z  " style="fill:rgb(0, 0, 0); fill-opacity:1.000; stroke:none;" />
 <path d="  M 15,20  L 15,21  L 16,21  L 16,20  L 20,20  L 20,19  L 14,19  L 14,20  Z  " style="fill:rgb(0, 0, 0); fill-opacity:1.000; stroke:none;" />
 <path d="  M 21,19  L 21,18  L 20,18  L 20,19  Z  " style="fill:rgb(0, 0, 0); fill-opacity:1.000; stroke:none;" />
 <path d="  M 6,14  L 7,14  L 7,24  L 10,24  L 10,21  L 15,21  L 15,20  L 14,20  L 14,19  L 11,19  L 11,18  L 14,18  L 14,17  L 16,17  L 16,14  L 13,14  L 13,12  L 11,12  L 11,14  L 8,14  L 8,12  L 6,12  Z  M 12,15  L 14,15  L 14,16  L 12,16  Z  " style="fill:rgb(219, 177, 128); fill-opacity:1.000; stroke:none;" />
 <path d="  M 9,10  L 9,9  L 8,9  L 8,10  Z  " style="fill:rgb(219, 177, 128); fill-opacity:1.000; stroke:none;" />
 <path d="  M 10,9  L 10,10  L 12,10  L 12,9  Z  " style="fill:rgb(219, 177, 128); fill-opacity:1.000; stroke:none;" />
 <path d="  M 13,10  L 15,10  L 15,9  L 14,9  L 14,8  L 13,8  Z  " style="fill:rgb(219, 177, 128); fill-opacity:1.000; stroke:none;" />
 <path d="  M 9,13  L 9,11  L 8,11  L 8,14  L 11,14  L 11,13  Z  " style="fill:rgb(212, 200, 184); fill-opacity:1.000; stroke:none;" />
 <path d="  M 16,14  L 16,13  L 14,13  L 14,11  L 13,11  L 13,14  Z  " style="fill:rgb(212, 200, 184); fill-opacity:1.000; stroke:none;" />
 <path d="  M 9,11  L 9,12  L 11,12  L 11,11  Z  " style="fill:rgb(182, 163, 137); fill-opacity:1.000; stroke:none;" />
 <path d="  M 14,11  L 14,12  L 16,12  L 16,11  Z  " style="fill:rgb(182, 163, 137); fill-opacity:1.000; stroke:none;" />
 <path d="  M 10,12  L 9,12  L 9,13  L 10,13  Z  " style="fill:rgb(89, 101, 112); fill-opacity:1.000; stroke:none;" />
 <path d="  M 15,13  L 15,12  L 14,12  L 14,13  Z  " style="fill:rgb(89, 101, 112); fill-opacity:1.000; stroke:none;" />
 <path d="  M 11,13  L 11,12  L 10,12  L 10,13  Z  " style="fill:rgb(207, 189, 166); fill-opacity:1.000; stroke:none;" />
 <path d="  M 15,12  L 15,13  L 16,13  L 16,12  Z  " style="fill:rgb(207, 189, 166); fill-opacity:1.000; stroke:none;" />
 <path d="  M 14,18  L 14,19  L 19,19  L 19,18  Z  " style="fill:rgb(198, 198, 198); fill-opacity:1.000; stroke:none;" />
 <path d="  M 19,16  L 20,16  L 20,10  L 19,10  Z  " style="fill:rgb(221, 221, 221); fill-opacity:0.502; stroke:none;" />
 <path d="  M 19,19  L 20,19  L 20,18  L 19,18  Z  " style="fill:rgb(226, 91, 38); fill-opacity:1.000; stroke:none;" />
</svg>
