<?xml version="1.0" encoding="UTF-8" standalone="no"?>
<!DOCTYPE svg PUBLIC "-//W3C//DTD SVG 1.1//EN" 
  "http://www.w3.org/Graphics/SVG/1.1/DTD/svg11.dtd">
<svg width="24" height="24"
     xmlns="http://www.w3.org/2000/svg" version="1.1">
 <path d="  M 24,0  L 0,0  L 0,24  L 6,24  L 6,15  L 5,15  L 5,12  L 6,12  L 6,10  L 5,10  L 5,8  L 6,8  L 6,7  L 7,7  L 7,6  L 8,6  L 8,5  L 15,5  L 15,6  L 16,6  L 16,7  L 17,7  L 17,8  L 18,8  L 18,13  L 17,13  L 17,20  L 16,20  L 16,21  L 15,21  L 15,22  L 11,22  L 11,24  L 24,24  Z  " style="fill:rgb(0, 0, 0); fill-opacity:0.000; stroke:none;" />
 <path d="  M 5,10  L 6,10  L 6,8  L 5,8  Z  " style="fill:rgb(0, 0, 0); fill-opacity:1.000; stroke:none;" />
 <path d="  M 6,24  L 7,24  L 7,14  L 6,14  L 6,12  L 5,12  L 5,15  L 6,15  Z  " style="fill:rgb(0, 0, 0); fill-opacity:1.000; stroke:none;" />
 <path d="  M 6,7  L 6,8  L 7,8  L 7,7  Z  " style="fill:rgb(0, 0, 0); fill-opacity:1.000; stroke:none;" />
 <path d="  M 7,12  L 7,13  L 8,13  L 8,10  L 11,10  L 11,13  L 12,13  L 12,11  L 13,11  L 13,13  L 14,13  L 14,10  L 17,10  L 17,13  L 18,13  L 18,8  L 17,8  L 17,9  L 13,9  L 13,10  L 12,10  L 12,9  L 7,9  L 7,10  L 6,10  L 6,12  Z  " style="fill:rgb(0, 0, 0); fill-opacity:1.000; stroke:none;" />
 <path d="  M 7,7  L 8,7  L 8,6  L 7,6  Z  " style="fill:rgb(0, 0, 0); fill-opacity:1.000; stroke:none;" />
 <path d="  M 8,5  L 8,6  L 15,6  L 15,5  Z  " style="fill:rgb(0, 0, 0); fill-opacity:1.000; stroke:none;" />
 <path d="  M 11,14  L 11,13  L 8,13  L 8,14  Z  " style="fill:rgb(0, 0, 0); fill-opacity:1.000; stroke:none;" />
 <path d="  M 15,22  L 15,21  L 10,21  L 10,24  L 11,24  L 11,22  Z  " style="fill:rgb(0, 0, 0); fill-opacity:1.000; stroke:none;" />
 <path d="  M 14,18  L 11,18  L 11,19  L 14,19  Z  " style="fill:rgb(0, 0, 0); fill-opacity:1.000; stroke:none;" />
 <path d="  M 16,20  L 17,20  L 17,13  L 14,13  L 14,14  L 16,14  Z  " style="fill:rgb(0, 0, 0); fill-opacity:1.000; stroke:none;" />
 <path d="  M 15,7  L 16,7  L 16,6  L 15,6  Z  " style="fill:rgb(0, 0, 0); fill-opacity:1.000; stroke:none;" />
 <path d="  M 15,20  L 15,21  L 16,21  L 16,20  Z  " style="fill:rgb(0, 0, 0); fill-opacity:1.000; stroke:none;" />
 <path d="  M 17,8  L 17,7  L 16,7  L 16,8  Z  " style="fill:rgb(0, 0, 0); fill-opacity:1.000; stroke:none;" />
 <path d="  M 6,8  L 6,10  L 7,10  L 7,9  L 12,9  L 12,10  L 13,10  L 13,9  L 17,9  L 17,8  Z  " style="fill:rgb(147, 55, 9); fill-opacity:1.000; stroke:none;" />
 <path d="  M 6,14  L 7,14  L 7,24  L 10,24  L 10,21  L 15,21  L 15,20  L 16,20  L 16,14  L 14,14  L 14,13  L 13,13  L 13,11  L 12,11  L 12,13  L 11,13  L 11,14  L 8,14  L 8,13  L 7,13  L 7,12  L 6,12  Z  M 11,19  L 11,18  L 14,18  L 14,19  Z  M 14,14  L 14,16  L 12,16  L 12,14  Z  " style="fill:rgb(174, 139, 97); fill-opacity:1.000; stroke:none;" />
 <path d="  M 8,6  L 8,7  L 7,7  L 7,8  L 16,8  L 16,7  L 15,7  L 15,6  Z  " style="fill:rgb(202, 78, 17); fill-opacity:1.000; stroke:none;" />
 <path d="  M 8,10  L 8,11  L 11,11  L 11,10  Z  " style="fill:rgb(105, 12, 69); fill-opacity:1.000; stroke:none;" />
 <path d="  M 17,10  L 14,10  L 14,11  L 17,11  Z  " style="fill:rgb(105, 12, 69); fill-opacity:1.000; stroke:none;" />
 <path d="  M 11,12  L 11,11  L 8,11  L 8,12  Z  " style="fill:rgb(140, 13, 91); fill-opacity:1.000; stroke:none;" />
 <path d="  M 14,11  L 14,12  L 17,12  L 17,11  Z  " style="fill:rgb(140, 13, 91); fill-opacity:1.000; stroke:none;" />
 <path d="  M 8,12  L 8,13  L 11,13  L 11,12  Z  " style="fill:rgb(173, 33, 96); fill-opacity:1.000; stroke:none;" />
 <path d="  M 14,12  L 14,13  L 17,13  L 17,12  Z  " style="fill:rgb(173, 33, 96); fill-opacity:1.000; stroke:none;" />
 <path d="  M 12,14  L 12,16  L 14,16  L 14,14  Z  " style="fill:rgb(214, 0, 0); fill-opacity:1.000; stroke:none;" />
</svg>
