<?xml version="1.0" encoding="UTF-8" standalone="no"?>
<!DOCTYPE svg PUBLIC "-//W3C//DTD SVG 1.1//EN" 
  "http://www.w3.org/Graphics/SVG/1.1/DTD/svg11.dtd">
<svg width="24" height="24"
     xmlns="http://www.w3.org/2000/svg" version="1.1">
 <path d="  M 24,0  L 0,0  L 0,24  L 6,24  L 6,15  L 5,15  L 5,12  L 6,12  L 6,10  L 3,10  L 3,9  L 2,9  L 2,7  L 3,7  L 3,8  L 6,8  L 6,7  L 7,7  L 7,4  L 8,4  L 8,3  L 10,3  L 10,4  L 13,4  L 13,3  L 15,3  L 15,4  L 16,4  L 16,7  L 17,7  L 17,8  L 20,8  L 20,7  L 21,7  L 21,9  L 20,9  L 20,10  L 17,10  L 17,20  L 16,20  L 16,21  L 15,21  L 15,22  L 11,22  L 11,24  L 24,24  Z  " style="fill:rgb(0, 0, 0); fill-opacity:0.000; stroke:none;" />
 <path d="  M 3,10  L 20,10  L 20,9  L 21,9  L 21,7  L 20,7  L 20,8  L 3,8  L 3,7  L 2,7  L 2,9  L 3,9  Z  " style="fill:rgb(121, 75, 17); fill-opacity:1.000; stroke:none;" />
 <path d="  M 16,4  L 15,4  L 15,3  L 13,3  L 13,4  L 10,4  L 10,3  L 8,3  L 8,4  L 7,4  L 7,7  L 16,7  Z  " style="fill:rgb(121, 75, 17); fill-opacity:1.000; stroke:none;" />
 <path d="  M 6,24  L 7,24  L 7,14  L 6,14  L 6,12  L 5,12  L 5,15  L 6,15  Z  " style="fill:rgb(0, 0, 0); fill-opacity:1.000; stroke:none;" />
 <path d="  M 7,11  L 6,11  L 6,12  L 7,12  Z  " style="fill:rgb(0, 0, 0); fill-opacity:1.000; stroke:none;" />
 <path d="  M 15,22  L 15,21  L 10,21  L 10,24  L 11,24  L 11,22  Z  " style="fill:rgb(0, 0, 0); fill-opacity:1.000; stroke:none;" />
 <path d="  M 14,18  L 11,18  L 11,19  L 14,19  Z  " style="fill:rgb(0, 0, 0); fill-opacity:1.000; stroke:none;" />
 <path d="  M 12,15  L 12,16  L 14,16  L 14,15  Z  " style="fill:rgb(0, 0, 0); fill-opacity:1.000; stroke:none;" />
 <path d="  M 15,20  L 15,21  L 16,21  L 16,20  Z  " style="fill:rgb(0, 0, 0); fill-opacity:1.000; stroke:none;" />
 <path d="  M 16,20  L 17,20  L 17,14  L 16,14  Z  " style="fill:rgb(0, 0, 0); fill-opacity:1.000; stroke:none;" />
 <path d="  M 17,8  L 17,7  L 6,7  L 6,8  Z  " style="fill:rgb(80, 47, 5); fill-opacity:1.000; stroke:none;" />
 <path d="  M 17,14  L 17,10  L 6,10  L 6,11  L 7,11  L 7,12  L 8,12  L 8,14  Z  M 16,13  L 13,13  L 13,11  L 16,11  Z  M 9,13  L 9,11  L 12,11  L 12,13  Z  " style="fill:rgb(240, 240, 240); fill-opacity:1.000; stroke:none;" />
 <path d="  M 10,17  L 15,17  L 15,20  L 14,20  L 14,19  L 11,19  L 11,20  L 10,20  Z  M 6,14  L 7,14  L 7,24  L 10,24  L 10,21  L 15,21  L 15,20  L 16,20  L 16,14  L 8,14  L 8,12  L 6,12  Z  M 12,15  L 14,15  L 14,16  L 12,16  Z  " style="fill:rgb(219, 177, 128); fill-opacity:1.000; stroke:none;" />
 <path d="  M 12,11  L 9,11  L 9,13  L 12,13  Z  " style="fill:rgb(50, 141, 253); fill-opacity:1.000; stroke:none;" />
 <path d="  M 10,17  L 10,18  L 11,18  L 11,17  Z  " style="fill:rgb(194, 137, 70); fill-opacity:1.000; stroke:none;" />
 <path d="  M 15,18  L 15,17  L 14,17  L 14,18  Z  " style="fill:rgb(194, 137, 70); fill-opacity:1.000; stroke:none;" />
 <path d="  M 11,18  L 10,18  L 10,20  L 11,20  Z  " style="fill:rgb(166, 110, 44); fill-opacity:1.000; stroke:none;" />
 <path d="  M 11,17  L 11,18  L 14,18  L 14,17  Z  " style="fill:rgb(166, 110, 44); fill-opacity:1.000; stroke:none;" />
 <path d="  M 14,18  L 14,20  L 15,20  L 15,18  Z  " style="fill:rgb(166, 110, 44); fill-opacity:1.000; stroke:none;" />
 <path d="  M 16,11  L 13,11  L 13,13  L 16,13  Z  " style="fill:rgb(253, 50, 50); fill-opacity:1.000; stroke:none;" />
</svg>
