<?xml version="1.0" encoding="UTF-8" standalone="no"?>
<!DOCTYPE svg PUBLIC "-//W3C//DTD SVG 1.1//EN" 
  "http://www.w3.org/Graphics/SVG/1.1/DTD/svg11.dtd">
<svg width="24" height="24"
     xmlns="http://www.w3.org/2000/svg" version="1.1">
 <path d="  M 24,0  L 0,0  L 0,24  L 6,24  L 6,15  L 4,15  L 4,13  L 3,13  L 3,11  L 4,11  L 4,10  L 2,10  L 2,9  L 3,9  L 3,8  L 4,8  L 4,7  L 3,7  L 3,4  L 4,4  L 4,5  L 6,5  L 6,3  L 8,3  L 8,4  L 12,4  L 12,3  L 17,3  L 17,4  L 16,4  L 16,5  L 18,5  L 18,4  L 20,4  L 20,5  L 19,5  L 19,6  L 20,6  L 20,7  L 19,7  L 19,9  L 18,9  L 18,10  L 19,10  L 19,12  L 18,12  L 18,15  L 17,15  L 17,20  L 16,20  L 16,21  L 15,21  L 15,22  L 11,22  L 11,24  L 24,24  Z  " style="fill:rgb(0, 0, 0); fill-opacity:0.000; stroke:none;" />
 <path d="  M 4,13  L 5,13  L 5,12  L 4,12  Z  " style="fill:rgb(0, 0, 0); fill-opacity:0.000; stroke:none;" />
 <path d="  M 2,10  L 4,10  L 4,11  L 3,11  L 3,13  L 4,13  L 4,15  L 6,15  L 6,24  L 7,24  L 7,14  L 8,14  L 8,13  L 9,13  L 9,14  L 11,14  L 11,13  L 12,13  L 12,11  L 16,11  L 16,20  L 17,20  L 17,15  L 18,15  L 18,12  L 19,12  L 19,10  L 18,10  L 18,9  L 19,9  L 19,7  L 20,7  L 20,6  L 19,6  L 19,5  L 20,5  L 20,4  L 18,4  L 18,5  L 16,5  L 16,4  L 17,4  L 17,3  L 12,3  L 12,4  L 8,4  L 8,3  L 6,3  L 6,5  L 4,5  L 4,4  L 3,4  L 3,7  L 4,7  L 4,8  L 3,8  L 3,9  L 2,9  Z  M 4,13  L 4,12  L 5,12  L 5,13  Z  M 14,9  L 15,9  L 15,10  L 13,10  L 13,9  L 12,9  L 12,8  L 14,8  Z  M 11,9  L 11,10  L 9,10  L 9,9  Z  " style="fill:rgb(0, 0, 0); fill-opacity:1.000; stroke:none;" />
 <path d="  M 15,22  L 15,21  L 10,21  L 10,24  L 11,24  L 11,22  Z  " style="fill:rgb(0, 0, 0); fill-opacity:1.000; stroke:none;" />
 <path d="  M 14,18  L 11,18  L 11,19  L 14,19  Z  " style="fill:rgb(0, 0, 0); fill-opacity:1.000; stroke:none;" />
 <path d="  M 12,15  L 12,16  L 14,16  L 14,15  Z  " style="fill:rgb(0, 0, 0); fill-opacity:1.000; stroke:none;" />
 <path d="  M 15,13  L 15,12  L 14,12  L 14,13  Z  " style="fill:rgb(0, 0, 0); fill-opacity:1.000; stroke:none;" />
 <path d="  M 15,20  L 15,21  L 16,21  L 16,20  Z  " style="fill:rgb(0, 0, 0); fill-opacity:1.000; stroke:none;" />
 <path d="  M 7,24  L 10,24  L 10,21  L 15,21  L 15,20  L 16,20  L 16,13  L 14,13  L 14,11  L 12,11  L 12,13  L 11,13  L 11,14  L 9,14  L 9,13  L 8,13  L 8,14  L 7,14  Z  M 11,19  L 11,18  L 14,18  L 14,19  Z  M 12,15  L 14,15  L 14,16  L 12,16  Z  " style="fill:rgb(234, 217, 217); fill-opacity:1.000; stroke:none;" />
 <path d="  M 9,9  L 9,10  L 11,10  L 11,9  Z  " style="fill:rgb(234, 217, 217); fill-opacity:1.000; stroke:none;" />
 <path d="  M 12,9  L 13,9  L 13,10  L 15,10  L 15,9  L 14,9  L 14,8  L 12,8  Z  " style="fill:rgb(234, 217, 217); fill-opacity:1.000; stroke:none;" />
 <path d="  M 14,11  L 14,12  L 16,12  L 16,11  Z  " style="fill:rgb(165, 141, 141); fill-opacity:1.000; stroke:none;" />
 <path d="  M 15,12  L 15,13  L 16,13  L 16,12  Z  " style="fill:rgb(201, 178, 178); fill-opacity:1.000; stroke:none;" />
</svg>
