<?xml version="1.0" encoding="UTF-8" standalone="no"?>
<!DOCTYPE svg PUBLIC "-//W3C//DTD SVG 1.1//EN" 
  "http://www.w3.org/Graphics/SVG/1.1/DTD/svg11.dtd">
<svg width="24" height="24"
     xmlns="http://www.w3.org/2000/svg" version="1.1">
 <path d="  M 24,0  L 0,0  L 0,24  L 8,24  L 8,19  L 7,19  L 7,18  L 5,18  L 5,16  L 4,16  L 4,12  L 5,12  L 5,7  L 6,7  L 6,6  L 7,6  L 7,5  L 8,5  L 8,4  L 15,4  L 15,5  L 16,5  L 16,6  L 17,6  L 17,7  L 18,7  L 18,12  L 19,12  L 19,17  L 18,17  L 18,18  L 17,18  L 17,19  L 16,19  L 16,20  L 15,20  L 15,21  L 14,21  L 14,22  L 13,22  L 13,24  L 24,24  Z  " style="fill:rgb(0, 0, 0); fill-opacity:0.000; stroke:none;" />
 <path d="  M 7,19  L 8,19  L 8,12  L 9,12  L 9,11  L 10,11  L 10,10  L 11,10  L 11,12  L 12,12  L 12,13  L 13,13  L 13,12  L 14,12  L 14,11  L 16,11  L 16,19  L 17,19  L 17,18  L 18,18  L 18,17  L 19,17  L 19,12  L 18,12  L 18,7  L 17,7  L 17,6  L 16,6  L 16,5  L 15,5  L 15,4  L 8,4  L 8,5  L 7,5  L 7,6  L 6,6  L 6,7  L 5,7  L 5,12  L 4,12  L 4,16  L 5,16  L 5,18  L 7,18  Z  M 10,5  L 10,6  L 9,6  L 9,5  Z  M 8,6  L 9,6  L 9,7  L 8,7  Z  " style="fill:rgb(0, 0, 0); fill-opacity:1.000; stroke:none;" />
 <path d="  M 8,24  L 9,24  L 9,19  L 8,19  Z  " style="fill:rgb(0, 0, 0); fill-opacity:1.000; stroke:none;" />
 <path d="  M 10,13  L 9,13  L 9,14  L 10,14  Z  " style="fill:rgb(0, 0, 0); fill-opacity:1.000; stroke:none;" />
 <path d="  M 11,20  L 10,20  L 10,21  L 11,21  Z  " style="fill:rgb(0, 0, 0); fill-opacity:1.000; stroke:none;" />
 <path d="  M 14,21  L 11,21  L 11,22  L 12,22  L 12,24  L 13,24  L 13,22  L 14,22  Z  " style="fill:rgb(0, 0, 0); fill-opacity:1.000; stroke:none;" />
 <path d="  M 13,17  L 13,16  L 12,16  L 12,17  Z  " style="fill:rgb(0, 0, 0); fill-opacity:1.000; stroke:none;" />
 <path d="  M 14,14  L 15,14  L 15,13  L 14,13  Z  " style="fill:rgb(0, 0, 0); fill-opacity:1.000; stroke:none;" />
 <path d="  M 15,20  L 14,20  L 14,21  L 15,21  Z  " style="fill:rgb(0, 0, 0); fill-opacity:1.000; stroke:none;" />
 <path d="  M 15,19  L 15,20  L 16,20  L 16,19  Z  " style="fill:rgb(0, 0, 0); fill-opacity:1.000; stroke:none;" />
 <path d="  M 9,7  L 9,6  L 8,6  L 8,7  Z  " style="fill:rgb(42, 42, 42); fill-opacity:1.000; stroke:none;" />
 <path d="  M 9,6  L 10,6  L 10,5  L 9,5  Z  " style="fill:rgb(42, 42, 42); fill-opacity:1.000; stroke:none;" />
 <path d="  M 14,21  L 14,20  L 15,20  L 15,19  L 16,19  L 16,14  L 15,14  L 15,15  L 14,15  L 14,12  L 13,12  L 13,13  L 12,13  L 12,12  L 11,12  L 11,14  L 10,14  L 10,15  L 9,15  L 9,12  L 8,12  L 8,19  L 9,19  L 9,24  L 12,24  L 12,22  L 11,22  L 11,21  Z  M 11,19  L 11,18  L 14,18  L 14,19  Z  M 13,17  L 12,17  L 12,16  L 13,16  Z  M 10,20  L 11,20  L 11,21  L 10,21  Z  " style="fill:rgb(113, 63, 29); fill-opacity:1.000; stroke:none;" />
 <path d="  M 10,10  L 10,12  L 11,12  L 11,10  Z  " style="fill:rgb(113, 63, 29); fill-opacity:1.000; stroke:none;" />
 <path d="  M 15,11  L 15,12  L 16,12  L 16,11  Z  " style="fill:rgb(113, 63, 29); fill-opacity:1.000; stroke:none;" />
 <path d="  M 10,12  L 10,11  L 9,11  L 9,12  Z  " style="fill:rgb(40, 177, 67); fill-opacity:1.000; stroke:none;" />
 <path d="  M 10,15  L 10,14  L 9,14  L 9,15  Z  " style="fill:rgb(40, 177, 67); fill-opacity:1.000; stroke:none;" />
 <path d="  M 15,11  L 14,11  L 14,12  L 15,12  Z  " style="fill:rgb(40, 177, 67); fill-opacity:1.000; stroke:none;" />
 <path d="  M 15,14  L 14,14  L 14,15  L 15,15  Z  " style="fill:rgb(40, 177, 67); fill-opacity:1.000; stroke:none;" />
 <path d="  M 9,12  L 9,13  L 11,13  L 11,12  Z  " style="fill:rgb(44, 149, 65); fill-opacity:1.000; stroke:none;" />
 <path d="  M 14,12  L 14,13  L 16,13  L 16,12  Z  " style="fill:rgb(44, 149, 65); fill-opacity:1.000; stroke:none;" />
 <path d="  M 10,14  L 11,14  L 11,13  L 10,13  Z  " style="fill:rgb(41, 100, 52); fill-opacity:1.000; stroke:none;" />
 <path d="  M 15,14  L 16,14  L 16,13  L 15,13  Z  " style="fill:rgb(41, 100, 52); fill-opacity:1.000; stroke:none;" />
 <path d="  M 14,18  L 11,18  L 11,19  L 14,19  Z  " style="fill:rgb(205, 0, 203); fill-opacity:1.000; stroke:none;" />
</svg>
