<?xml version="1.0" encoding="UTF-8" standalone="no"?>
<!DOCTYPE svg PUBLIC "-//W3C//DTD SVG 1.1//EN" 
  "http://www.w3.org/Graphics/SVG/1.1/DTD/svg11.dtd">
<svg width="24" height="24"
     xmlns="http://www.w3.org/2000/svg" version="1.1">
 <path d="  M 24,0  L 0,0  L 0,24  L 6,24  L 6,15  L 5,15  L 5,13  L 4,13  L 4,12  L 3,12  L 3,9  L 2,9  L 2,8  L 6,8  L 6,7  L 7,7  L 7,6  L 8,6  L 8,5  L 16,5  L 16,6  L 17,6  L 17,11  L 18,11  L 18,13  L 17,13  L 17,20  L 16,20  L 16,21  L 15,21  L 15,22  L 11,22  L 11,24  L 24,24  Z  " style="fill:rgb(0, 0, 0); fill-opacity:0.000; stroke:none;" />
 <path d="  M 5,12  L 5,11  L 4,11  L 4,12  Z  " style="fill:rgb(0, 0, 0); fill-opacity:0.000; stroke:none;" />
 <path d="  M 5,10  L 5,11  L 6,11  L 6,10  Z  " style="fill:rgb(0, 0, 0); fill-opacity:0.000; stroke:none;" />
 <path d="  M 2,8  L 2,9  L 3,9  L 3,8  Z  " style="fill:rgb(26, 67, 200); fill-opacity:1.000; stroke:none;" />
 <path d="  M 4,9  L 3,9  L 3,12  L 4,12  Z  " style="fill:rgb(26, 67, 200); fill-opacity:1.000; stroke:none;" />
 <path d="  M 5,8  L 4,8  L 4,9  L 5,9  Z  " style="fill:rgb(26, 67, 200); fill-opacity:1.000; stroke:none;" />
 <path d="  M 12,9  L 15,9  L 15,8  L 16,8  L 16,6  L 8,6  L 8,7  L 7,7  L 7,9  L 8,9  L 8,8  L 12,8  Z  " style="fill:rgb(26, 67, 200); fill-opacity:1.000; stroke:none;" />
 <path d="  M 3,9  L 4,9  L 4,8  L 3,8  Z  " style="fill:rgb(22, 55, 164); fill-opacity:1.000; stroke:none;" />
 <path d="  M 5,10  L 5,9  L 4,9  L 4,10  Z  " style="fill:rgb(22, 55, 164); fill-opacity:1.000; stroke:none;" />
 <path d="  M 5,8  L 5,9  L 6,9  L 6,8  Z  " style="fill:rgb(22, 55, 164); fill-opacity:1.000; stroke:none;" />
 <path d="  M 6,7  L 6,8  L 7,8  L 7,7  Z  " style="fill:rgb(22, 55, 164); fill-opacity:1.000; stroke:none;" />
 <path d="  M 7,7  L 8,7  L 8,6  L 7,6  Z  " style="fill:rgb(22, 55, 164); fill-opacity:1.000; stroke:none;" />
 <path d="  M 8,5  L 8,6  L 16,6  L 16,5  Z  " style="fill:rgb(22, 55, 164); fill-opacity:1.000; stroke:none;" />
 <path d="  M 12,9  L 12,8  L 8,8  L 8,9  Z  " style="fill:rgb(22, 55, 164); fill-opacity:1.000; stroke:none;" />
 <path d="  M 15,10  L 15,9  L 12,9  L 12,10  Z  " style="fill:rgb(22, 55, 164); fill-opacity:1.000; stroke:none;" />
 <path d="  M 16,8  L 15,8  L 15,9  L 16,9  Z  " style="fill:rgb(22, 55, 164); fill-opacity:1.000; stroke:none;" />
 <path d="  M 16,6  L 16,8  L 17,8  L 17,6  Z  " style="fill:rgb(22, 55, 164); fill-opacity:1.000; stroke:none;" />
 <path d="  M 4,11  L 5,11  L 5,10  L 4,10  Z  " style="fill:rgb(20, 44, 124); fill-opacity:1.000; stroke:none;" />
 <path d="  M 5,9  L 5,10  L 6,10  L 6,9  Z  " style="fill:rgb(20, 44, 124); fill-opacity:1.000; stroke:none;" />
 <path d="  M 7,9  L 7,8  L 6,8  L 6,9  Z  " style="fill:rgb(20, 44, 124); fill-opacity:1.000; stroke:none;" />
 <path d="  M 4,13  L 5,13  L 5,12  L 4,12  Z  " style="fill:rgb(0, 0, 0); fill-opacity:1.000; stroke:none;" />
 <path d="  M 11,13  L 12,13  L 12,12  L 14,12  L 14,13  L 15,13  L 15,14  L 16,14  L 16,20  L 17,20  L 17,13  L 18,13  L 18,11  L 17,11  L 17,8  L 16,8  L 16,11  L 7,11  L 7,9  L 6,9  L 6,11  L 5,11  L 5,12  L 8,12  L 8,13  L 9,13  L 9,14  L 11,14  Z  " style="fill:rgb(0, 0, 0); fill-opacity:1.000; stroke:none;" />
 <path d="  M 6,24  L 7,24  L 7,14  L 6,14  L 6,13  L 5,13  L 5,15  L 6,15  Z  " style="fill:rgb(0, 0, 0); fill-opacity:1.000; stroke:none;" />
 <path d="  M 10,18  L 10,19  L 15,19  L 15,18  Z  " style="fill:rgb(0, 0, 0); fill-opacity:1.000; stroke:none;" />
 <path d="  M 15,22  L 15,21  L 10,21  L 10,24  L 11,24  L 11,22  Z  " style="fill:rgb(0, 0, 0); fill-opacity:1.000; stroke:none;" />
 <path d="  M 15,20  L 15,21  L 16,21  L 16,20  Z  " style="fill:rgb(0, 0, 0); fill-opacity:1.000; stroke:none;" />
 <path d="  M 5,12  L 5,13  L 6,13  L 6,12  Z  " style="fill:rgb(200, 251, 251); fill-opacity:1.000; stroke:none;" />
 <path d="  M 15,19  L 10,19  L 10,18  L 15,18  Z  M 7,12  L 7,13  L 6,13  L 6,14  L 7,14  L 7,24  L 10,24  L 10,21  L 15,21  L 15,20  L 16,20  L 16,14  L 15,14  L 15,13  L 14,13  L 14,12  L 12,12  L 12,13  L 11,13  L 11,14  L 9,14  L 9,13  L 8,13  L 8,12  Z  M 13,17  L 12,17  L 12,14  L 13,14  Z  " style="fill:rgb(200, 251, 251); fill-opacity:1.000; stroke:none;" />
 <path d="  M 15,9  L 15,10  L 12,10  L 12,9  L 7,9  L 7,11  L 16,11  L 16,9  Z  " style="fill:rgb(200, 251, 251); fill-opacity:1.000; stroke:none;" />
 <path d="  M 6,13  L 7,13  L 7,12  L 6,12  Z  " style="fill:rgb(155, 224, 224); fill-opacity:1.000; stroke:none;" />
 <path d="  M 13,17  L 13,14  L 12,14  L 12,17  Z  " style="fill:rgb(155, 224, 224); fill-opacity:1.000; stroke:none;" />
</svg>
