<?xml version="1.0" encoding="UTF-8" standalone="no"?>
<!DOCTYPE svg PUBLIC "-//W3C//DTD SVG 1.1//EN" 
  "http://www.w3.org/Graphics/SVG/1.1/DTD/svg11.dtd">
<svg width="24" height="24"
     xmlns="http://www.w3.org/2000/svg" version="1.1">
 <path d="  M 24,0  L 0,0  L 0,24  L 6,24  L 6,16  L 5,16  L 5,15  L 4,15  L 4,14  L 5,14  L 5,12  L 6,12  L 6,6  L 7,6  L 7,5  L 8,5  L 8,4  L 15,4  L 15,5  L 16,5  L 16,6  L 17,6  L 17,7  L 18,7  L 18,8  L 19,8  L 19,10  L 17,10  L 17,20  L 16,20  L 16,21  L 15,21  L 15,22  L 14,22  L 14,23  L 11,23  L 11,24  L 24,24  Z  " style="fill:rgb(0, 0, 0); fill-opacity:0.000; stroke:none;" />
 <path d="  M 5,15  L 5,14  L 4,14  L 4,15  Z  " style="fill:rgb(0, 0, 0); fill-opacity:1.000; stroke:none;" />
 <path d="  M 18,9  L 10,9  L 10,8  L 9,8  L 9,9  L 7,9  L 7,6  L 6,6  L 6,12  L 5,12  L 5,14  L 6,14  L 6,15  L 5,15  L 5,16  L 6,16  L 6,24  L 7,24  L 7,14  L 16,14  L 16,20  L 17,20  L 17,10  L 19,10  L 19,8  L 18,8  Z  M 9,11  L 11,11  L 11,13  L 9,13  Z  M 14,13  L 14,11  L 16,11  L 16,13  Z  " style="fill:rgb(0, 0, 0); fill-opacity:1.000; stroke:none;" />
 <path d="  M 8,5  L 7,5  L 7,6  L 8,6  Z  " style="fill:rgb(0, 0, 0); fill-opacity:1.000; stroke:none;" />
 <path d="  M 15,5  L 15,4  L 8,4  L 8,5  Z  " style="fill:rgb(0, 0, 0); fill-opacity:1.000; stroke:none;" />
 <path d="  M 18,8  L 18,7  L 17,7  L 17,6  L 16,6  L 16,7  L 10,7  L 10,8  Z  " style="fill:rgb(0, 0, 0); fill-opacity:1.000; stroke:none;" />
 <path d="  M 11,22  L 11,21  L 10,21  L 10,24  L 11,24  L 11,23  L 14,23  L 14,22  Z  " style="fill:rgb(0, 0, 0); fill-opacity:1.000; stroke:none;" />
 <path d="  M 14,18  L 11,18  L 11,19  L 14,19  Z  " style="fill:rgb(0, 0, 0); fill-opacity:1.000; stroke:none;" />
 <path d="  M 12,15  L 12,16  L 14,16  L 14,15  Z  " style="fill:rgb(0, 0, 0); fill-opacity:1.000; stroke:none;" />
 <path d="  M 14,22  L 15,22  L 15,21  L 14,21  Z  " style="fill:rgb(0, 0, 0); fill-opacity:1.000; stroke:none;" />
 <path d="  M 16,5  L 15,5  L 15,6  L 16,6  Z  " style="fill:rgb(0, 0, 0); fill-opacity:1.000; stroke:none;" />
 <path d="  M 15,20  L 15,21  L 16,21  L 16,20  Z  " style="fill:rgb(0, 0, 0); fill-opacity:1.000; stroke:none;" />
 <path d="  M 6,15  L 6,14  L 5,14  L 5,15  Z  " style="fill:rgb(255, 217, 38); fill-opacity:1.000; stroke:none;" />
 <path d="  M 7,7  L 8,7  L 8,6  L 7,6  Z  " style="fill:rgb(53, 53, 53); fill-opacity:1.000; stroke:none;" />
 <path d="  M 8,5  L 8,6  L 9,6  L 9,5  Z  " style="fill:rgb(53, 53, 53); fill-opacity:1.000; stroke:none;" />
 <path d="  M 10,9  L 18,9  L 18,8  L 10,8  Z  " style="fill:rgb(53, 53, 53); fill-opacity:1.000; stroke:none;" />
 <path d="  M 8,6  L 8,7  L 7,7  L 7,9  L 9,9  L 9,8  L 10,8  L 10,7  L 16,7  L 16,6  L 15,6  L 15,5  L 9,5  L 9,6  Z  " style="fill:rgb(81, 81, 81); fill-opacity:1.000; stroke:none;" />
 <path d="  M 10,18  L 10,20  L 15,20  L 15,16  L 16,16  L 16,14  L 7,14  L 7,15  L 8,15  L 8,16  L 9,16  L 9,18  Z  M 11,19  L 11,18  L 14,18  L 14,19  Z  M 12,15  L 14,15  L 14,16  L 12,16  Z  " style="fill:rgb(234, 217, 217); fill-opacity:1.000; stroke:none;" />
 <path d="  M 7,24  L 10,24  L 10,21  L 9,21  L 9,20  L 8,20  L 8,18  L 7,18  Z  " style="fill:rgb(234, 217, 217); fill-opacity:1.000; stroke:none;" />
 <path d="  M 7,15  L 7,18  L 8,18  L 8,20  L 9,20  L 9,21  L 11,21  L 11,22  L 14,22  L 14,21  L 15,21  L 15,20  L 10,20  L 10,18  L 9,18  L 9,16  L 8,16  L 8,15  Z  " style="fill:rgb(166, 110, 44); fill-opacity:1.000; stroke:none;" />
 <path d="  M 15,20  L 16,20  L 16,16  L 15,16  Z  " style="fill:rgb(166, 110, 44); fill-opacity:1.000; stroke:none;" />
 <path d="  M 9,11  L 9,12  L 11,12  L 11,11  Z  " style="fill:rgb(165, 141, 141); fill-opacity:1.000; stroke:none;" />
 <path d="  M 14,11  L 14,12  L 16,12  L 16,11  Z  " style="fill:rgb(165, 141, 141); fill-opacity:1.000; stroke:none;" />
 <path d="  M 10,12  L 9,12  L 9,13  L 10,13  Z  " style="fill:rgb(215, 215, 215); fill-opacity:1.000; stroke:none;" />
 <path d="  M 15,13  L 15,12  L 14,12  L 14,13  Z  " style="fill:rgb(215, 215, 215); fill-opacity:1.000; stroke:none;" />
 <path d="  M 11,13  L 11,12  L 10,12  L 10,13  Z  " style="fill:rgb(201, 178, 178); fill-opacity:1.000; stroke:none;" />
 <path d="  M 15,12  L 15,13  L 16,13  L 16,12  Z  " style="fill:rgb(201, 178, 178); fill-opacity:1.000; stroke:none;" />
</svg>
