<?xml version="1.0" encoding="UTF-8" standalone="no"?>
<!DOCTYPE svg PUBLIC "-//W3C//DTD SVG 1.1//EN" 
  "http://www.w3.org/Graphics/SVG/1.1/DTD/svg11.dtd">
<svg width="24" height="24"
     xmlns="http://www.w3.org/2000/svg" version="1.1">
 <path d="  M 24,0  L 0,0  L 0,24  L 6,24  L 6,15  L 5,15  L 5,12  L 6,12  L 6,10  L 5,10  L 5,9  L 6,9  L 6,8  L 5,8  L 5,7  L 6,7  L 6,6  L 7,6  L 7,5  L 8,5  L 8,4  L 14,4  L 14,5  L 15,5  L 15,4  L 16,4  L 16,6  L 18,6  L 18,7  L 17,7  L 17,9  L 18,9  L 18,14  L 17,14  L 17,20  L 16,20  L 16,21  L 15,21  L 15,22  L 11,22  L 11,24  L 24,24  Z  " style="fill:rgb(0, 0, 0); fill-opacity:0.000; stroke:none;" />
 <path d="  M 16,6  L 16,4  L 15,4  L 15,5  L 14,5  L 14,4  L 8,4  L 8,5  L 7,5  L 7,6  L 6,6  L 6,7  L 5,7  L 5,8  L 6,8  L 6,9  L 5,9  L 5,10  L 6,10  L 6,12  L 5,12  L 5,15  L 6,15  L 6,24  L 7,24  L 7,14  L 6,14  L 6,13  L 7,13  L 7,11  L 8,11  L 8,10  L 17,10  L 17,14  L 18,14  L 18,9  L 17,9  L 17,7  L 18,7  L 18,6  Z  M 13,8  L 14,8  L 14,9  L 13,9  Z  " style="fill:rgb(0, 0, 0); fill-opacity:1.000; stroke:none;" />
 <path d="  M 7,13  L 7,14  L 8,14  L 8,13  Z  " style="fill:rgb(0, 0, 0); fill-opacity:1.000; stroke:none;" />
 <path d="  M 16,20  L 17,20  L 17,14  L 8,14  L 8,15  L 12,15  L 12,16  L 14,16  L 14,15  L 16,15  Z  " style="fill:rgb(0, 0, 0); fill-opacity:1.000; stroke:none;" />
 <path d="  M 9,11  L 9,13  L 16,13  L 16,11  Z  " style="fill:rgb(0, 0, 0); fill-opacity:1.000; stroke:none;" />
 <path d="  M 15,22  L 15,21  L 10,21  L 10,24  L 11,24  L 11,22  Z  " style="fill:rgb(0, 0, 0); fill-opacity:1.000; stroke:none;" />
 <path d="  M 14,18  L 11,18  L 11,19  L 14,19  Z  " style="fill:rgb(0, 0, 0); fill-opacity:1.000; stroke:none;" />
 <path d="  M 15,20  L 15,21  L 16,21  L 16,20  Z  " style="fill:rgb(0, 0, 0); fill-opacity:1.000; stroke:none;" />
 <path d="  M 6,13  L 6,14  L 7,14  L 7,13  Z  " style="fill:rgb(219, 177, 128); fill-opacity:1.000; stroke:none;" />
 <path d="  M 7,24  L 10,24  L 10,21  L 12,21  L 12,20  L 13,20  L 13,21  L 15,21  L 15,20  L 16,20  L 16,18  L 15,18  L 15,17  L 16,17  L 16,15  L 14,15  L 14,16  L 12,16  L 12,15  L 8,15  L 8,14  L 7,14  Z  M 11,19  L 11,18  L 14,18  L 14,19  Z  M 8,20  L 9,20  L 9,21  L 8,21  Z  M 10,16  L 10,17  L 9,17  L 9,16  Z  " style="fill:rgb(219, 177, 128); fill-opacity:1.000; stroke:none;" />
 <path d="  M 14,9  L 14,8  L 13,8  L 13,9  Z  " style="fill:rgb(219, 177, 128); fill-opacity:1.000; stroke:none;" />
 <path d="  M 7,11  L 7,13  L 8,13  L 8,11  Z  " style="fill:rgb(141, 141, 141); fill-opacity:1.000; stroke:none;" />
 <path d="  M 9,11  L 9,10  L 8,10  L 8,11  Z  " style="fill:rgb(141, 141, 141); fill-opacity:1.000; stroke:none;" />
 <path d="  M 8,14  L 9,14  L 9,13  L 8,13  Z  " style="fill:rgb(141, 141, 141); fill-opacity:1.000; stroke:none;" />
 <path d="  M 17,11  L 17,10  L 16,10  L 16,11  Z  " style="fill:rgb(141, 141, 141); fill-opacity:1.000; stroke:none;" />
 <path d="  M 17,14  L 17,13  L 16,13  L 16,14  Z  " style="fill:rgb(141, 141, 141); fill-opacity:1.000; stroke:none;" />
 <path d="  M 9,13  L 9,11  L 8,11  L 8,13  Z  " style="fill:rgb(180, 180, 180); fill-opacity:1.000; stroke:none;" />
 <path d="  M 9,10  L 9,11  L 16,11  L 16,10  Z  " style="fill:rgb(180, 180, 180); fill-opacity:1.000; stroke:none;" />
 <path d="  M 9,13  L 9,14  L 16,14  L 16,13  Z  " style="fill:rgb(180, 180, 180); fill-opacity:1.000; stroke:none;" />
 <path d="  M 16,13  L 17,13  L 17,11  L 16,11  Z  " style="fill:rgb(180, 180, 180); fill-opacity:1.000; stroke:none;" />
 <path d="  M 9,20  L 8,20  L 8,21  L 9,21  Z  " style="fill:rgb(164, 133, 96); fill-opacity:1.000; stroke:none;" />
 <path d="  M 9,16  L 9,17  L 10,17  L 10,16  Z  " style="fill:rgb(164, 133, 96); fill-opacity:1.000; stroke:none;" />
 <path d="  M 12,21  L 13,21  L 13,20  L 12,20  Z  " style="fill:rgb(164, 133, 96); fill-opacity:1.000; stroke:none;" />
 <path d="  M 16,17  L 15,17  L 15,18  L 16,18  Z  " style="fill:rgb(164, 133, 96); fill-opacity:1.000; stroke:none;" />
</svg>
