<?xml version="1.0" encoding="UTF-8" standalone="no"?>
<!DOCTYPE svg PUBLIC "-//W3C//DTD SVG 1.1//EN" 
  "http://www.w3.org/Graphics/SVG/1.1/DTD/svg11.dtd">
<svg width="24" height="24"
     xmlns="http://www.w3.org/2000/svg" version="1.1">
 <path d="  M 24,0  L 0,0  L 0,24  L 6,24  L 6,15  L 5,15  L 5,11  L 6,11  L 6,7  L 7,7  L 7,6  L 8,6  L 8,5  L 15,5  L 15,6  L 16,6  L 16,7  L 17,7  L 17,11  L 18,11  L 18,13  L 17,13  L 17,21  L 18,21  L 18,19  L 23,19  L 23,22  L 22,22  L 22,23  L 21,23  L 21,24  L 24,24  Z  M 21,11  L 21,12  L 22,12  L 22,14  L 19,14  L 19,12  L 20,12  L 20,11  Z  M 20,15  L 21,15  L 21,16  L 20,16  Z  M 20,18  L 20,17  L 21,17  L 21,18  Z  " style="fill:rgb(0, 0, 0); fill-opacity:0.000; stroke:none;" />
 <path d="  M 14,23  L 11,23  L 11,24  L 17,24  L 17,23  L 16,23  L 16,22  L 14,22  Z  " style="fill:rgb(0, 0, 0); fill-opacity:0.000; stroke:none;" />
 <path d="  M 9,13  L 9,14  L 11,14  L 11,13  L 12,13  L 12,12  L 14,12  L 14,13  L 15,13  L 15,14  L 16,14  L 16,19  L 15,19  L 15,20  L 16,20  L 16,21  L 17,21  L 17,13  L 18,13  L 18,11  L 17,11  L 17,7  L 16,7  L 16,11  L 7,11  L 7,7  L 6,7  L 6,11  L 5,11  L 5,15  L 6,15  L 6,24  L 7,24  L 7,14  L 6,14  L 6,12  L 8,12  L 8,13  Z  " style="fill:rgb(0, 0, 0); fill-opacity:1.000; stroke:none;" />
 <path d="  M 7,7  L 8,7  L 8,6  L 7,6  Z  " style="fill:rgb(0, 0, 0); fill-opacity:1.000; stroke:none;" />
 <path d="  M 14,8  L 14,6  L 15,6  L 15,5  L 8,5  L 8,6  L 9,6  L 9,8  L 10,8  L 10,6  L 11,6  L 11,8  L 12,8  L 12,6  L 13,6  L 13,8  Z  " style="fill:rgb(0, 0, 0); fill-opacity:1.000; stroke:none;" />
 <path d="  M 9,10  L 9,8  L 8,8  L 8,10  Z  " style="fill:rgb(0, 0, 0); fill-opacity:1.000; stroke:none;" />
 <path d="  M 10,9  L 11,9  L 11,8  L 10,8  Z  " style="fill:rgb(0, 0, 0); fill-opacity:1.000; stroke:none;" />
 <path d="  M 11,22  L 11,21  L 10,21  L 10,24  L 11,24  L 11,23  L 14,23  L 14,22  Z  " style="fill:rgb(0, 0, 0); fill-opacity:1.000; stroke:none;" />
 <path d="  M 11,9  L 11,10  L 12,10  L 12,9  Z  " style="fill:rgb(0, 0, 0); fill-opacity:1.000; stroke:none;" />
 <path d="  M 11,18  L 11,19  L 13,19  L 13,20  L 14,20  L 14,19  L 15,19  L 15,18  Z  " style="fill:rgb(0, 0, 0); fill-opacity:1.000; stroke:none;" />
 <path d="  M 12,15  L 12,16  L 14,16  L 14,15  Z  " style="fill:rgb(0, 0, 0); fill-opacity:1.000; stroke:none;" />
 <path d="  M 15,8  L 14,8  L 14,10  L 15,10  Z  " style="fill:rgb(0, 0, 0); fill-opacity:1.000; stroke:none;" />
 <path d="  M 14,22  L 16,22  L 16,21  L 15,21  L 15,20  L 14,20  Z  " style="fill:rgb(0, 0, 0); fill-opacity:1.000; stroke:none;" />
 <path d="  M 15,7  L 16,7  L 16,6  L 15,6  Z  " style="fill:rgb(0, 0, 0); fill-opacity:1.000; stroke:none;" />
 <path d="  M 17,22  L 16,22  L 16,23  L 17,23  Z  " style="fill:rgb(0, 0, 0); fill-opacity:1.000; stroke:none;" />
 <path d="  M 19,20  L 22,20  L 22,22  L 23,22  L 23,19  L 18,19  L 18,21  L 17,21  L 17,22  L 19,22  Z  " style="fill:rgb(0, 0, 0); fill-opacity:1.000; stroke:none;" />
 <path d="  M 21,24  L 21,23  L 17,23  L 17,24  Z  " style="fill:rgb(0, 0, 0); fill-opacity:1.000; stroke:none;" />
 <path d="  M 22,22  L 21,22  L 21,23  L 22,23  Z  " style="fill:rgb(0, 0, 0); fill-opacity:1.000; stroke:none;" />
 <path d="  M 10,17  L 15,17  L 15,19  L 16,19  L 16,14  L 15,14  L 15,13  L 14,13  L 14,12  L 12,12  L 12,13  L 11,13  L 11,14  L 9,14  L 9,13  L 8,13  L 8,12  L 6,12  L 6,14  L 7,14  L 7,24  L 10,24  L 10,21  L 11,21  L 11,20  L 10,20  Z  M 12,15  L 14,15  L 14,16  L 12,16  Z  " style="fill:rgb(219, 177, 128); fill-opacity:1.000; stroke:none;" />
 <path d="  M 12,6  L 12,8  L 11,8  L 11,9  L 10,9  L 10,8  L 9,8  L 9,6  L 8,6  L 8,7  L 7,7  L 7,11  L 16,11  L 16,7  L 15,7  L 15,6  L 14,6  L 14,8  L 13,8  L 13,6  Z  M 15,10  L 14,10  L 14,8  L 15,8  Z  M 8,8  L 9,8  L 9,10  L 8,10  Z  M 11,10  L 11,9  L 12,9  L 12,10  Z  " style="fill:rgb(219, 177, 128); fill-opacity:1.000; stroke:none;" />
 <path d="  M 11,8  L 11,6  L 10,6  L 10,8  Z  " style="fill:rgb(219, 177, 128); fill-opacity:1.000; stroke:none;" />
 <path d="  M 10,20  L 11,20  L 11,22  L 14,22  L 14,20  L 13,20  L 13,19  L 11,19  L 11,18  L 15,18  L 15,17  L 10,17  Z  " style="fill:rgb(104, 70, 31); fill-opacity:1.000; stroke:none;" />
 <path d="  M 15,19  L 14,19  L 14,20  L 15,20  Z  " style="fill:rgb(133, 81, 20); fill-opacity:1.000; stroke:none;" />
 <path d="  M 15,20  L 15,21  L 16,21  L 16,20  Z  " style="fill:rgb(133, 81, 20); fill-opacity:1.000; stroke:none;" />
 <path d="  M 17,22  L 17,21  L 16,21  L 16,22  Z  " style="fill:rgb(133, 81, 20); fill-opacity:1.000; stroke:none;" />
 <path d="  M 20,23  L 20,22  L 17,22  L 17,23  Z  " style="fill:rgb(133, 81, 20); fill-opacity:1.000; stroke:none;" />
 <path d="  M 20,21  L 20,22  L 21,22  L 21,21  L 22,21  L 22,20  L 19,20  L 19,21  Z  " style="fill:rgb(133, 81, 20); fill-opacity:1.000; stroke:none;" />
 <path d="  M 20,12  L 19,12  L 19,14  L 22,14  L 22,12  L 21,12  L 21,11  L 20,11  Z  " style="fill:rgb(185, 185, 185); fill-opacity:0.502; stroke:none;" />
 <path d="  M 20,16  L 21,16  L 21,15  L 20,15  Z  " style="fill:rgb(185, 185, 185); fill-opacity:0.502; stroke:none;" />
 <path d="  M 20,17  L 20,18  L 21,18  L 21,17  Z  " style="fill:rgb(185, 185, 185); fill-opacity:0.502; stroke:none;" />
 <path d="  M 19,21  L 19,22  L 20,22  L 20,21  Z  " style="fill:rgb(104, 60, 8); fill-opacity:1.000; stroke:none;" />
 <path d="  M 21,22  L 20,22  L 20,23  L 21,23  Z  " style="fill:rgb(104, 60, 8); fill-opacity:1.000; stroke:none;" />
 <path d="  M 22,21  L 21,21  L 21,22  L 22,22  Z  " style="fill:rgb(104, 60, 8); fill-opacity:1.000; stroke:none;" />
</svg>
