<?xml version="1.0" encoding="UTF-8" standalone="no"?>
<!DOCTYPE svg PUBLIC "-//W3C//DTD SVG 1.1//EN" 
  "http://www.w3.org/Graphics/SVG/1.1/DTD/svg11.dtd">
<svg width="24" height="24"
     xmlns="http://www.w3.org/2000/svg" version="1.1">
 <path d="  M 24,0  L 0,0  L 0,24  L 8,24  L 8,19  L 7,19  L 7,17  L 6,17  L 6,16  L 5,16  L 5,15  L 4,15  L 4,12  L 3,12  L 3,9  L 4,9  L 4,7  L 5,7  L 5,6  L 6,6  L 6,5  L 7,5  L 7,4  L 10,4  L 10,3  L 13,3  L 13,4  L 16,4  L 16,5  L 17,5  L 17,6  L 18,6  L 18,7  L 19,7  L 19,9  L 20,9  L 20,12  L 19,12  L 19,15  L 18,15  L 18,17  L 17,17  L 17,19  L 16,19  L 16,20  L 15,20  L 15,21  L 14,21  L 14,22  L 13,22  L 13,24  L 24,24  Z  " style="fill:rgb(0, 0, 0); fill-opacity:0.000; stroke:none;" />
 <path d="  M 10,3  L 10,4  L 7,4  L 7,5  L 6,5  L 6,6  L 5,6  L 5,7  L 4,7  L 4,9  L 3,9  L 3,12  L 4,12  L 4,15  L 5,15  L 5,16  L 6,16  L 6,17  L 7,17  L 7,15  L 6,15  L 6,12  L 7,12  L 7,11  L 8,11  L 8,10  L 10,10  L 10,9  L 14,9  L 14,10  L 16,10  L 16,13  L 17,13  L 17,14  L 18,14  L 18,15  L 19,15  L 19,12  L 20,12  L 20,9  L 19,9  L 19,7  L 18,7  L 18,6  L 17,6  L 17,5  L 16,5  L 16,4  L 13,4  L 13,3  Z  " style="fill:rgb(40, 177, 67); fill-opacity:1.000; stroke:none;" />
 <path d="  M 17,15  L 17,17  L 18,17  L 18,15  Z  " style="fill:rgb(40, 177, 67); fill-opacity:1.000; stroke:none;" />
 <path d="  M 7,12  L 6,12  L 6,15  L 7,15  L 7,19  L 8,19  L 8,14  L 7,14  Z  " style="fill:rgb(0, 0, 0); fill-opacity:1.000; stroke:none;" />
 <path d="  M 7,12  L 8,12  L 8,11  L 7,11  Z  " style="fill:rgb(0, 0, 0); fill-opacity:1.000; stroke:none;" />
 <path d="  M 8,24  L 9,24  L 9,19  L 8,19  Z  " style="fill:rgb(0, 0, 0); fill-opacity:1.000; stroke:none;" />
 <path d="  M 10,13  L 9,13  L 9,14  L 10,14  Z  " style="fill:rgb(0, 0, 0); fill-opacity:1.000; stroke:none;" />
 <path d="  M 11,20  L 10,20  L 10,21  L 11,21  Z  " style="fill:rgb(0, 0, 0); fill-opacity:1.000; stroke:none;" />
 <path d="  M 14,21  L 11,21  L 11,22  L 12,22  L 12,24  L 13,24  L 13,22  L 14,22  Z  " style="fill:rgb(0, 0, 0); fill-opacity:1.000; stroke:none;" />
 <path d="  M 13,17  L 13,16  L 12,16  L 12,17  Z  " style="fill:rgb(0, 0, 0); fill-opacity:1.000; stroke:none;" />
 <path d="  M 14,14  L 15,14  L 15,13  L 14,13  Z  " style="fill:rgb(0, 0, 0); fill-opacity:1.000; stroke:none;" />
 <path d="  M 15,20  L 14,20  L 14,21  L 15,21  Z  " style="fill:rgb(0, 0, 0); fill-opacity:1.000; stroke:none;" />
 <path d="  M 15,19  L 15,20  L 16,20  L 16,19  Z  " style="fill:rgb(0, 0, 0); fill-opacity:1.000; stroke:none;" />
 <path d="  M 17,19  L 17,15  L 18,15  L 18,14  L 17,14  L 17,13  L 16,13  L 16,19  Z  " style="fill:rgb(0, 0, 0); fill-opacity:1.000; stroke:none;" />
 <path d="  M 7,12  L 7,14  L 8,14  L 8,19  L 9,19  L 9,24  L 12,24  L 12,22  L 11,22  L 11,21  L 14,21  L 14,20  L 15,20  L 15,19  L 16,19  L 16,14  L 14,14  L 14,12  L 16,12  L 16,10  L 14,10  L 14,9  L 10,9  L 10,10  L 8,10  L 8,12  Z  M 11,19  L 11,18  L 14,18  L 14,19  Z  M 13,17  L 12,17  L 12,16  L 13,16  Z  M 11,14  L 9,14  L 9,12  L 11,12  Z  M 11,20  L 11,21  L 10,21  L 10,20  Z  " style="fill:rgb(219, 177, 128); fill-opacity:1.000; stroke:none;" />
 <path d="  M 9,12  L 9,13  L 11,13  L 11,12  Z  " style="fill:rgb(166, 110, 44); fill-opacity:1.000; stroke:none;" />
 <path d="  M 14,12  L 14,13  L 16,13  L 16,12  Z  " style="fill:rgb(166, 110, 44); fill-opacity:1.000; stroke:none;" />
 <path d="  M 10,14  L 11,14  L 11,13  L 10,13  Z  " style="fill:rgb(210, 157, 96); fill-opacity:1.000; stroke:none;" />
 <path d="  M 15,14  L 16,14  L 16,13  L 15,13  Z  " style="fill:rgb(210, 157, 96); fill-opacity:1.000; stroke:none;" />
 <path d="  M 14,18  L 11,18  L 11,19  L 14,19  Z  " style="fill:rgb(113, 16, 16); fill-opacity:1.000; stroke:none;" />
</svg>
