<?xml version="1.0" encoding="UTF-8" standalone="no"?>
<!DOCTYPE svg PUBLIC "-//W3C//DTD SVG 1.1//EN" 
  "http://www.w3.org/Graphics/SVG/1.1/DTD/svg11.dtd">
<svg width="24" height="24"
     xmlns="http://www.w3.org/2000/svg" version="1.1">
 <path d="  M 24,0  L 0,0  L 0,24  L 6,24  L 6,15  L 5,15  L 5,12  L 6,12  L 6,6  L 7,6  L 7,4  L 8,4  L 8,2  L 9,2  L 9,1  L 10,1  L 10,2  L 11,2  L 11,1  L 12,1  L 12,2  L 13,2  L 13,1  L 14,1  L 14,2  L 15,2  L 15,4  L 16,4  L 16,6  L 17,6  L 17,20  L 16,20  L 16,21  L 15,21  L 15,22  L 11,22  L 11,24  L 24,24  Z  " style="fill:rgb(0, 0, 0); fill-opacity:0.000; stroke:none;" />
 <path d="  M 6,24  L 7,24  L 7,14  L 6,14  L 6,12  L 5,12  L 5,15  L 6,15  Z  " style="fill:rgb(0, 0, 0); fill-opacity:1.000; stroke:none;" />
 <path d="  M 10,6  L 10,7  L 11,7  L 11,8  L 12,8  L 12,7  L 13,7  L 13,6  L 15,6  L 15,7  L 16,7  L 16,10  L 17,10  L 17,6  L 16,6  L 16,4  L 15,4  L 15,2  L 14,2  L 14,1  L 13,1  L 13,2  L 12,2  L 12,1  L 11,1  L 11,2  L 10,2  L 10,1  L 9,1  L 9,2  L 8,2  L 8,4  L 7,4  L 7,6  L 6,6  L 6,10  L 7,10  L 7,7  L 8,7  L 8,6  Z  " style="fill:rgb(0, 0, 0); fill-opacity:1.000; stroke:none;" />
 <path d="  M 7,11  L 6,11  L 6,12  L 7,12  Z  " style="fill:rgb(0, 0, 0); fill-opacity:1.000; stroke:none;" />
 <path d="  M 15,22  L 15,21  L 10,21  L 10,24  L 11,24  L 11,22  Z  " style="fill:rgb(0, 0, 0); fill-opacity:1.000; stroke:none;" />
 <path d="  M 12,15  L 12,16  L 14,16  L 14,15  Z  " style="fill:rgb(0, 0, 0); fill-opacity:1.000; stroke:none;" />
 <path d="  M 15,20  L 15,21  L 16,21  L 16,20  Z  " style="fill:rgb(0, 0, 0); fill-opacity:1.000; stroke:none;" />
 <path d="  M 16,20  L 17,20  L 17,14  L 16,14  Z  " style="fill:rgb(0, 0, 0); fill-opacity:1.000; stroke:none;" />
 <path d="  M 17,14  L 17,10  L 6,10  L 6,11  L 7,11  L 7,12  L 8,12  L 8,14  Z  M 16,13  L 13,13  L 13,11  L 16,11  Z  M 9,13  L 9,11  L 12,11  L 12,13  Z  " style="fill:rgb(240, 240, 240); fill-opacity:1.000; stroke:none;" />
 <path d="  M 15,17  L 15,16  L 16,16  L 16,14  L 8,14  L 8,12  L 6,12  L 6,14  L 7,14  L 7,15  L 8,15  L 8,16  L 9,16  L 9,17  Z  M 12,15  L 14,15  L 14,16  L 12,16  Z  " style="fill:rgb(174, 139, 97); fill-opacity:1.000; stroke:none;" />
 <path d="  M 8,6  L 8,7  L 7,7  L 7,10  L 16,10  L 16,7  L 15,7  L 15,6  L 13,6  L 13,7  L 12,7  L 12,8  L 11,8  L 11,7  L 10,7  L 10,6  Z  M 9,9  L 8,9  L 8,8  L 9,8  Z  M 9,7  L 10,7  L 10,8  L 9,8  Z  " style="fill:rgb(174, 139, 97); fill-opacity:1.000; stroke:none;" />
 <path d="  M 7,24  L 10,24  L 10,21  L 9,21  L 9,20  L 8,20  L 8,19  L 7,19  Z  " style="fill:rgb(174, 139, 97); fill-opacity:1.000; stroke:none;" />
 <path d="  M 7,19  L 8,19  L 8,20  L 9,20  L 9,21  L 15,21  L 15,20  L 16,20  L 16,16  L 15,16  L 15,17  L 9,17  L 9,16  L 8,16  L 8,15  L 7,15  Z  M 11,19  L 11,18  L 14,18  L 14,19  Z  " style="fill:rgb(121, 97, 68); fill-opacity:1.000; stroke:none;" />
 <path d="  M 9,8  L 8,8  L 8,9  L 9,9  Z  " style="fill:rgb(182, 159, 130); fill-opacity:1.000; stroke:none;" />
 <path d="  M 9,7  L 9,8  L 10,8  L 10,7  Z  " style="fill:rgb(182, 159, 130); fill-opacity:1.000; stroke:none;" />
 <path d="  M 12,11  L 9,11  L 9,13  L 12,13  Z  " style="fill:rgb(50, 141, 253); fill-opacity:1.000; stroke:none;" />
 <path d="  M 14,18  L 11,18  L 11,19  L 14,19  Z  " style="fill:rgb(40, 27, 9); fill-opacity:1.000; stroke:none;" />
 <path d="  M 16,11  L 13,11  L 13,13  L 16,13  Z  " style="fill:rgb(253, 50, 50); fill-opacity:1.000; stroke:none;" />
</svg>
