<?xml version="1.0" encoding="UTF-8" standalone="no"?>
<!DOCTYPE svg PUBLIC "-//W3C//DTD SVG 1.1//EN" 
  "http://www.w3.org/Graphics/SVG/1.1/DTD/svg11.dtd">
<svg width="24" height="24"
     xmlns="http://www.w3.org/2000/svg" version="1.1">
 <path d="  M 24,0  L 0,0  L 0,24  L 8,24  L 8,19  L 7,19  L 7,15  L 6,15  L 6,11  L 7,11  L 7,8  L 8,8  L 8,7  L 10,7  L 10,6  L 14,6  L 14,7  L 16,7  L 16,8  L 17,8  L 17,10  L 18,10  L 18,15  L 19,15  L 19,10  L 20,10  L 20,16  L 19,16  L 19,17  L 20,17  L 20,18  L 21,18  L 21,19  L 20,19  L 20,20  L 19,20  L 19,22  L 17,22  L 17,23  L 14,23  L 14,22  L 13,22  L 13,24  L 24,24  Z  " style="fill:rgb(0, 0, 0); fill-opacity:0.000; stroke:none;" />
 <path d="  M 8,7  L 8,8  L 7,8  L 7,11  L 6,11  L 6,15  L 7,15  L 7,13  L 8,13  L 8,11  L 9,11  L 9,10  L 13,10  L 13,11  L 14,11  L 14,10  L 15,10  L 15,11  L 16,11  L 16,17  L 19,17  L 19,15  L 18,15  L 18,10  L 17,10  L 17,8  L 16,8  L 16,7  L 14,7  L 14,6  L 10,6  L 10,7  Z  " style="fill:rgb(230, 87, 0); fill-opacity:1.000; stroke:none;" />
 <path d="  M 15,20  L 15,21  L 14,21  L 14,23  L 17,23  L 17,22  L 19,22  L 19,20  Z  " style="fill:rgb(230, 87, 0); fill-opacity:1.000; stroke:none;" />
 <path d="  M 14,18  L 14,17  L 16,17  L 16,14  L 14,14  L 14,12  L 16,12  L 16,11  L 15,11  L 15,10  L 14,10  L 14,11  L 13,11  L 13,10  L 9,10  L 9,11  L 8,11  L 8,13  L 7,13  L 7,14  L 8,14  L 8,19  L 9,19  L 9,22  L 11,22  L 11,21  L 14,21  L 14,19  L 11,19  L 11,18  Z  M 11,12  L 11,14  L 9,14  L 9,12  Z  M 13,17  L 12,17  L 12,16  L 13,16  Z  M 10,21  L 10,20  L 11,20  L 11,21  Z  " style="fill:rgb(219, 177, 128); fill-opacity:1.000; stroke:none;" />
 <path d="  M 9,23  L 9,24  L 12,24  L 12,23  Z  " style="fill:rgb(219, 177, 128); fill-opacity:1.000; stroke:none;" />
 <path d="  M 7,19  L 8,19  L 8,14  L 7,14  Z  " style="fill:rgb(0, 0, 0); fill-opacity:1.000; stroke:none;" />
 <path d="  M 8,24  L 9,24  L 9,19  L 8,19  Z  " style="fill:rgb(0, 0, 0); fill-opacity:1.000; stroke:none;" />
 <path d="  M 10,13  L 9,13  L 9,14  L 10,14  Z  " style="fill:rgb(0, 0, 0); fill-opacity:1.000; stroke:none;" />
 <path d="  M 11,20  L 10,20  L 10,21  L 11,21  Z  " style="fill:rgb(0, 0, 0); fill-opacity:1.000; stroke:none;" />
 <path d="  M 14,21  L 11,21  L 11,22  L 12,22  L 12,24  L 13,24  L 13,22  L 14,22  Z  " style="fill:rgb(0, 0, 0); fill-opacity:1.000; stroke:none;" />
 <path d="  M 13,17  L 13,16  L 12,16  L 12,17  Z  " style="fill:rgb(0, 0, 0); fill-opacity:1.000; stroke:none;" />
 <path d="  M 14,18  L 13,18  L 13,19  L 14,19  Z  " style="fill:rgb(0, 0, 0); fill-opacity:1.000; stroke:none;" />
 <path d="  M 14,14  L 15,14  L 15,13  L 14,13  Z  " style="fill:rgb(0, 0, 0); fill-opacity:1.000; stroke:none;" />
 <path d="  M 14,17  L 14,18  L 20,18  L 20,17  Z  " style="fill:rgb(0, 0, 0); fill-opacity:1.000; stroke:none;" />
 <path d="  M 15,20  L 20,20  L 20,19  L 14,19  L 14,21  L 15,21  Z  " style="fill:rgb(0, 0, 0); fill-opacity:1.000; stroke:none;" />
 <path d="  M 21,19  L 21,18  L 20,18  L 20,19  Z  " style="fill:rgb(0, 0, 0); fill-opacity:1.000; stroke:none;" />
 <path d="  M 9,12  L 9,13  L 11,13  L 11,12  Z  " style="fill:rgb(166, 110, 44); fill-opacity:1.000; stroke:none;" />
 <path d="  M 14,12  L 14,13  L 16,13  L 16,12  Z  " style="fill:rgb(166, 110, 44); fill-opacity:1.000; stroke:none;" />
 <path d="  M 9,22  L 9,23  L 12,23  L 12,22  Z  " style="fill:rgb(223, 223, 223); fill-opacity:1.000; stroke:none;" />
 <path d="  M 10,14  L 11,14  L 11,13  L 10,13  Z  " style="fill:rgb(210, 157, 96); fill-opacity:1.000; stroke:none;" />
 <path d="  M 15,14  L 16,14  L 16,13  L 15,13  Z  " style="fill:rgb(210, 157, 96); fill-opacity:1.000; stroke:none;" />
 <path d="  M 11,18  L 11,19  L 13,19  L 13,18  Z  " style="fill:rgb(113, 16, 16); fill-opacity:1.000; stroke:none;" />
 <path d="  M 14,18  L 14,19  L 19,19  L 19,18  Z  " style="fill:rgb(198, 198, 198); fill-opacity:1.000; stroke:none;" />
 <path d="  M 19,16  L 20,16  L 20,10  L 19,10  Z  " style="fill:rgb(221, 221, 221); fill-opacity:0.502; stroke:none;" />
 <path d="  M 19,19  L 20,19  L 20,18  L 19,18  Z  " style="fill:rgb(226, 91, 38); fill-opacity:1.000; stroke:none;" />
</svg>
