<?xml version="1.0" encoding="UTF-8" standalone="no"?>
<!DOCTYPE svg PUBLIC "-//W3C//DTD SVG 1.1//EN" 
  "http://www.w3.org/Graphics/SVG/1.1/DTD/svg11.dtd">
<svg width="24" height="24"
     xmlns="http://www.w3.org/2000/svg" version="1.1">
 <path d="  M 24,0  L 0,0  L 0,24  L 6,24  L 6,19  L 5,19  L 5,18  L 4,18  L 4,17  L 5,17  L 5,16  L 3,16  L 3,15  L 4,15  L 4,14  L 2,14  L 2,13  L 3,13  L 3,12  L 2,12  L 2,11  L 4,11  L 4,10  L 2,10  L 2,9  L 4,9  L 4,8  L 3,8  L 3,7  L 5,7  L 5,6  L 4,6  L 4,5  L 6,5  L 6,4  L 7,4  L 7,5  L 8,5  L 8,4  L 9,4  L 9,3  L 10,3  L 10,4  L 11,4  L 11,3  L 12,3  L 12,4  L 14,4  L 14,5  L 15,5  L 15,6  L 16,6  L 16,7  L 17,7  L 17,20  L 16,20  L 16,21  L 15,21  L 15,22  L 11,22  L 11,24  L 24,24  Z  " style="fill:rgb(0, 0, 0); fill-opacity:0.000; stroke:none;" />
 <path d="  M 2,10  L 4,10  L 4,11  L 2,11  L 2,12  L 3,12  L 3,13  L 2,13  L 2,14  L 4,14  L 4,15  L 3,15  L 3,16  L 5,16  L 5,17  L 4,17  L 4,18  L 5,18  L 5,19  L 6,19  L 6,14  L 5,14  L 5,12  L 7,12  L 7,10  L 8,10  L 8,9  L 9,9  L 9,8  L 15,8  L 15,9  L 16,9  L 16,10  L 17,10  L 17,7  L 16,7  L 16,6  L 15,6  L 15,5  L 14,5  L 14,4  L 12,4  L 12,3  L 11,3  L 11,4  L 10,4  L 10,3  L 9,3  L 9,4  L 8,4  L 8,5  L 7,5  L 7,4  L 6,4  L 6,5  L 4,5  L 4,6  L 5,6  L 5,7  L 3,7  L 3,8  L 4,8  L 4,9  L 2,9  Z  " style="fill:rgb(113, 12, 199); fill-opacity:1.000; stroke:none;" />
 <path d="  M 7,12  L 5,12  L 5,14  L 6,14  L 6,13  L 7,13  Z  " style="fill:rgb(0, 0, 0); fill-opacity:1.000; stroke:none;" />
 <path d="  M 6,24  L 7,24  L 7,14  L 6,14  Z  " style="fill:rgb(0, 0, 0); fill-opacity:1.000; stroke:none;" />
 <path d="  M 9,14  L 11,14  L 11,12  L 14,12  L 14,14  L 16,14  L 16,20  L 17,20  L 17,10  L 16,10  L 16,11  L 7,11  L 7,12  L 9,12  Z  " style="fill:rgb(0, 0, 0); fill-opacity:1.000; stroke:none;" />
 <path d="  M 15,22  L 15,21  L 10,21  L 10,24  L 11,24  L 11,22  Z  " style="fill:rgb(0, 0, 0); fill-opacity:1.000; stroke:none;" />
 <path d="  M 14,18  L 11,18  L 11,19  L 14,19  Z  " style="fill:rgb(0, 0, 0); fill-opacity:1.000; stroke:none;" />
 <path d="  M 12,15  L 12,16  L 14,16  L 14,15  Z  " style="fill:rgb(0, 0, 0); fill-opacity:1.000; stroke:none;" />
 <path d="  M 15,20  L 15,21  L 16,21  L 16,20  Z  " style="fill:rgb(0, 0, 0); fill-opacity:1.000; stroke:none;" />
 <path d="  M 10,17  L 15,17  L 15,20  L 14,20  L 14,19  L 11,19  L 11,20  L 10,20  Z  M 7,12  L 7,13  L 6,13  L 6,14  L 7,14  L 7,24  L 10,24  L 10,21  L 15,21  L 15,20  L 16,20  L 16,14  L 14,14  L 14,12  L 11,12  L 11,14  L 9,14  L 9,12  Z  M 12,15  L 14,15  L 14,16  L 12,16  Z  " style="fill:rgb(113, 63, 29); fill-opacity:1.000; stroke:none;" />
 <path d="  M 9,9  L 8,9  L 8,10  L 7,10  L 7,11  L 16,11  L 16,9  L 15,9  L 15,8  L 9,8  Z  " style="fill:rgb(113, 63, 29); fill-opacity:1.000; stroke:none;" />
 <path d="  M 10,17  L 10,18  L 11,18  L 11,17  Z  " style="fill:rgb(194, 137, 70); fill-opacity:1.000; stroke:none;" />
 <path d="  M 15,18  L 15,17  L 14,17  L 14,18  Z  " style="fill:rgb(194, 137, 70); fill-opacity:1.000; stroke:none;" />
 <path d="  M 11,18  L 10,18  L 10,20  L 11,20  Z  " style="fill:rgb(166, 110, 44); fill-opacity:1.000; stroke:none;" />
 <path d="  M 11,17  L 11,18  L 14,18  L 14,17  Z  " style="fill:rgb(166, 110, 44); fill-opacity:1.000; stroke:none;" />
 <path d="  M 14,18  L 14,20  L 15,20  L 15,18  Z  " style="fill:rgb(166, 110, 44); fill-opacity:1.000; stroke:none;" />
</svg>
