<?xml version="1.0" encoding="UTF-8" standalone="no"?>
<!DOCTYPE svg PUBLIC "-//W3C//DTD SVG 1.1//EN" 
  "http://www.w3.org/Graphics/SVG/1.1/DTD/svg11.dtd">
<svg width="24" height="24"
     xmlns="http://www.w3.org/2000/svg" version="1.1">
 <path d="  M 24,0  L 0,0  L 0,24  L 6,24  L 6,15  L 5,15  L 5,12  L 6,12  L 6,10  L 5,10  L 5,11  L 4,11  L 4,12  L 3,12  L 3,9  L 2,9  L 2,8  L 6,8  L 6,7  L 7,7  L 7,6  L 8,6  L 8,5  L 16,5  L 16,6  L 17,6  L 17,20  L 16,20  L 16,21  L 15,21  L 15,22  L 11,22  L 11,24  L 24,24  Z  " style="fill:rgb(0, 0, 0); fill-opacity:0.000; stroke:none;" />
 <path d="  M 2,8  L 2,9  L 3,9  L 3,8  Z  " style="fill:rgb(26, 67, 200); fill-opacity:1.000; stroke:none;" />
 <path d="  M 4,9  L 3,9  L 3,12  L 4,12  Z  " style="fill:rgb(26, 67, 200); fill-opacity:1.000; stroke:none;" />
 <path d="  M 5,8  L 4,8  L 4,9  L 5,9  Z  " style="fill:rgb(26, 67, 200); fill-opacity:1.000; stroke:none;" />
 <path d="  M 12,9  L 15,9  L 15,8  L 16,8  L 16,6  L 8,6  L 8,7  L 7,7  L 7,9  L 8,9  L 8,8  L 12,8  Z  " style="fill:rgb(26, 67, 200); fill-opacity:1.000; stroke:none;" />
 <path d="  M 3,9  L 4,9  L 4,8  L 3,8  Z  " style="fill:rgb(22, 55, 164); fill-opacity:1.000; stroke:none;" />
 <path d="  M 5,10  L 5,9  L 4,9  L 4,10  Z  " style="fill:rgb(22, 55, 164); fill-opacity:1.000; stroke:none;" />
 <path d="  M 5,8  L 5,9  L 6,9  L 6,8  Z  " style="fill:rgb(22, 55, 164); fill-opacity:1.000; stroke:none;" />
 <path d="  M 6,7  L 6,8  L 7,8  L 7,7  Z  " style="fill:rgb(22, 55, 164); fill-opacity:1.000; stroke:none;" />
 <path d="  M 7,7  L 8,7  L 8,6  L 7,6  Z  " style="fill:rgb(22, 55, 164); fill-opacity:1.000; stroke:none;" />
 <path d="  M 8,5  L 8,6  L 16,6  L 16,5  Z  " style="fill:rgb(22, 55, 164); fill-opacity:1.000; stroke:none;" />
 <path d="  M 12,9  L 12,8  L 8,8  L 8,9  Z  " style="fill:rgb(22, 55, 164); fill-opacity:1.000; stroke:none;" />
 <path d="  M 15,10  L 15,9  L 12,9  L 12,10  Z  " style="fill:rgb(22, 55, 164); fill-opacity:1.000; stroke:none;" />
 <path d="  M 16,8  L 15,8  L 15,9  L 16,9  Z  " style="fill:rgb(22, 55, 164); fill-opacity:1.000; stroke:none;" />
 <path d="  M 16,6  L 16,8  L 17,8  L 17,6  Z  " style="fill:rgb(22, 55, 164); fill-opacity:1.000; stroke:none;" />
 <path d="  M 4,11  L 5,11  L 5,10  L 4,10  Z  " style="fill:rgb(20, 44, 124); fill-opacity:1.000; stroke:none;" />
 <path d="  M 5,9  L 5,10  L 6,10  L 6,9  Z  " style="fill:rgb(20, 44, 124); fill-opacity:1.000; stroke:none;" />
 <path d="  M 7,9  L 7,8  L 6,8  L 6,9  Z  " style="fill:rgb(20, 44, 124); fill-opacity:1.000; stroke:none;" />
 <path d="  M 6,24  L 7,24  L 7,14  L 6,14  L 6,12  L 5,12  L 5,15  L 6,15  Z  " style="fill:rgb(0, 0, 0); fill-opacity:1.000; stroke:none;" />
 <path d="  M 7,12  L 7,9  L 6,9  L 6,12  Z  " style="fill:rgb(0, 0, 0); fill-opacity:1.000; stroke:none;" />
 <path d="  M 10,12  L 9,12  L 9,13  L 10,13  Z  " style="fill:rgb(0, 0, 0); fill-opacity:1.000; stroke:none;" />
 <path d="  M 15,22  L 15,21  L 10,21  L 10,24  L 11,24  L 11,22  Z  " style="fill:rgb(0, 0, 0); fill-opacity:1.000; stroke:none;" />
 <path d="  M 14,18  L 11,18  L 11,19  L 14,19  Z  " style="fill:rgb(0, 0, 0); fill-opacity:1.000; stroke:none;" />
 <path d="  M 12,15  L 12,16  L 14,16  L 14,15  Z  " style="fill:rgb(0, 0, 0); fill-opacity:1.000; stroke:none;" />
 <path d="  M 15,13  L 15,12  L 14,12  L 14,13  Z  " style="fill:rgb(0, 0, 0); fill-opacity:1.000; stroke:none;" />
 <path d="  M 15,20  L 15,21  L 16,21  L 16,20  Z  " style="fill:rgb(0, 0, 0); fill-opacity:1.000; stroke:none;" />
 <path d="  M 16,20  L 17,20  L 17,8  L 16,8  Z  " style="fill:rgb(0, 0, 0); fill-opacity:1.000; stroke:none;" />
 <path d="  M 6,14  L 7,14  L 7,20  L 8,20  L 8,21  L 9,21  L 9,22  L 10,22  L 10,21  L 15,21  L 15,20  L 16,20  L 16,13  L 14,13  L 14,11  L 16,11  L 16,9  L 15,9  L 15,10  L 12,10  L 12,9  L 7,9  L 7,12  L 6,12  Z  M 11,19  L 11,18  L 14,18  L 14,19  Z  M 11,13  L 9,13  L 9,11  L 11,11  Z  M 12,15  L 14,15  L 14,16  L 12,16  Z  " style="fill:rgb(113, 63, 29); fill-opacity:1.000; stroke:none;" />
 <path d="  M 7,24  L 10,24  L 10,23  L 9,23  L 9,22  L 8,22  L 8,21  L 7,21  Z  " style="fill:rgb(113, 63, 29); fill-opacity:1.000; stroke:none;" />
 <path d="  M 8,20  L 7,20  L 7,21  L 8,21  Z  " style="fill:rgb(255, 201, 38); fill-opacity:1.000; stroke:none;" />
 <path d="  M 8,22  L 9,22  L 9,21  L 8,21  Z  " style="fill:rgb(255, 201, 38); fill-opacity:1.000; stroke:none;" />
 <path d="  M 9,23  L 10,23  L 10,22  L 9,22  Z  " style="fill:rgb(255, 201, 38); fill-opacity:1.000; stroke:none;" />
 <path d="  M 9,11  L 9,12  L 11,12  L 11,11  Z  " style="fill:rgb(86, 38, 0); fill-opacity:1.000; stroke:none;" />
 <path d="  M 14,11  L 14,12  L 16,12  L 16,11  Z  " style="fill:rgb(86, 38, 0); fill-opacity:1.000; stroke:none;" />
 <path d="  M 11,13  L 11,12  L 10,12  L 10,13  Z  " style="fill:rgb(114, 55, 9); fill-opacity:1.000; stroke:none;" />
 <path d="  M 15,12  L 15,13  L 16,13  L 16,12  Z  " style="fill:rgb(114, 55, 9); fill-opacity:1.000; stroke:none;" />
</svg>
