<?xml version="1.0" encoding="UTF-8" standalone="no"?>
<!DOCTYPE svg PUBLIC "-//W3C//DTD SVG 1.1//EN" 
  "http://www.w3.org/Graphics/SVG/1.1/DTD/svg11.dtd">
<svg width="24" height="24"
     xmlns="http://www.w3.org/2000/svg" version="1.1">
 <path d="  M 24,0  L 0,0  L 0,24  L 8,24  L 8,19  L 7,19  L 7,15  L 6,15  L 6,12  L 7,12  L 7,9  L 8,9  L 8,8  L 9,8  L 9,7  L 11,7  L 11,4  L 12,4  L 12,3  L 13,3  L 13,4  L 14,4  L 14,7  L 15,7  L 15,8  L 16,8  L 16,9  L 17,9  L 17,19  L 16,19  L 16,20  L 15,20  L 15,21  L 14,21  L 14,22  L 13,22  L 13,24  L 24,24  Z  " style="fill:rgb(0, 0, 0); fill-opacity:0.000; stroke:none;" />
 <path d="  M 7,12  L 6,12  L 6,15  L 7,15  L 7,19  L 8,19  L 8,14  L 7,14  Z  " style="fill:rgb(0, 0, 0); fill-opacity:1.000; stroke:none;" />
 <path d="  M 8,11  L 8,9  L 7,9  L 7,12  L 8,12  L 8,14  L 9,14  L 9,12  L 11,12  L 11,14  L 12,14  L 12,12  L 13,12  L 13,14  L 14,14  L 14,15  L 16,15  L 16,19  L 17,19  L 17,9  L 16,9  L 16,11  Z  M 14,12  L 16,12  L 16,14  L 14,14  Z  " style="fill:rgb(0, 0, 0); fill-opacity:1.000; stroke:none;" />
 <path d="  M 9,8  L 8,8  L 8,9  L 9,9  Z  " style="fill:rgb(0, 0, 0); fill-opacity:1.000; stroke:none;" />
 <path d="  M 8,24  L 9,24  L 9,19  L 8,19  Z  " style="fill:rgb(0, 0, 0); fill-opacity:1.000; stroke:none;" />
 <path d="  M 9,7  L 9,8  L 11,8  L 11,9  L 12,9  L 12,4  L 11,4  L 11,7  Z  " style="fill:rgb(0, 0, 0); fill-opacity:1.000; stroke:none;" />
 <path d="  M 9,14  L 9,15  L 11,15  L 11,14  Z  " style="fill:rgb(0, 0, 0); fill-opacity:1.000; stroke:none;" />
 <path d="  M 11,20  L 10,20  L 10,21  L 11,21  Z  " style="fill:rgb(0, 0, 0); fill-opacity:1.000; stroke:none;" />
 <path d="  M 14,21  L 11,21  L 11,22  L 12,22  L 12,24  L 13,24  L 13,22  L 14,22  Z  " style="fill:rgb(0, 0, 0); fill-opacity:1.000; stroke:none;" />
 <path d="  M 13,3  L 12,3  L 12,4  L 13,4  Z  " style="fill:rgb(0, 0, 0); fill-opacity:1.000; stroke:none;" />
 <path d="  M 13,17  L 13,16  L 12,16  L 12,17  Z  " style="fill:rgb(0, 0, 0); fill-opacity:1.000; stroke:none;" />
 <path d="  M 14,7  L 14,4  L 13,4  L 13,9  L 14,9  L 14,8  L 15,8  L 15,7  Z  " style="fill:rgb(0, 0, 0); fill-opacity:1.000; stroke:none;" />
 <path d="  M 15,20  L 14,20  L 14,21  L 15,21  Z  " style="fill:rgb(0, 0, 0); fill-opacity:1.000; stroke:none;" />
 <path d="  M 16,8  L 15,8  L 15,9  L 16,9  Z  " style="fill:rgb(0, 0, 0); fill-opacity:1.000; stroke:none;" />
 <path d="  M 15,19  L 15,20  L 16,20  L 16,19  Z  " style="fill:rgb(0, 0, 0); fill-opacity:1.000; stroke:none;" />
 <path d="  M 8,12  L 7,12  L 7,14  L 8,14  Z  " style="fill:rgb(113, 63, 29); fill-opacity:1.000; stroke:none;" />
 <path d="  M 9,9  L 8,9  L 8,11  L 16,11  L 16,9  L 15,9  L 15,8  L 14,8  L 14,9  L 11,9  L 11,8  L 9,8  Z  M 10,10  L 9,10  L 9,9  L 10,9  Z  " style="fill:rgb(113, 63, 29); fill-opacity:1.000; stroke:none;" />
 <path d="  M 14,21  L 14,20  L 15,20  L 15,19  L 16,19  L 16,15  L 14,15  L 14,14  L 13,14  L 13,12  L 12,12  L 12,14  L 11,14  L 11,15  L 9,15  L 9,14  L 8,14  L 8,19  L 9,19  L 9,24  L 12,24  L 12,22  L 11,22  L 11,21  Z  M 11,19  L 11,18  L 14,18  L 14,19  Z  M 13,17  L 12,17  L 12,16  L 13,16  Z  M 10,21  L 10,20  L 11,20  L 11,21  Z  " style="fill:rgb(113, 63, 29); fill-opacity:1.000; stroke:none;" />
 <path d="  M 9,10  L 10,10  L 10,9  L 9,9  Z  " style="fill:rgb(139, 83, 44); fill-opacity:1.000; stroke:none;" />
 <path d="  M 9,12  L 9,13  L 11,13  L 11,12  Z  " style="fill:rgb(92, 57, 15); fill-opacity:1.000; stroke:none;" />
 <path d="  M 14,12  L 14,13  L 16,13  L 16,12  Z  " style="fill:rgb(92, 57, 15); fill-opacity:1.000; stroke:none;" />
 <path d="  M 9,13  L 9,14  L 11,14  L 11,13  Z  " style="fill:rgb(199, 117, 20); fill-opacity:1.000; stroke:none;" />
 <path d="  M 16,14  L 16,13  L 14,13  L 14,14  Z  " style="fill:rgb(199, 117, 20); fill-opacity:1.000; stroke:none;" />
 <path d="  M 14,18  L 11,18  L 11,19  L 14,19  Z  " style="fill:rgb(205, 0, 203); fill-opacity:1.000; stroke:none;" />
 <path d="  M 12,9  L 13,9  L 13,4  L 12,4  Z  " style="fill:rgb(85, 85, 85); fill-opacity:1.000; stroke:none;" />
</svg>
