<?xml version="1.0" encoding="UTF-8" standalone="no"?>
<!DOCTYPE svg PUBLIC "-//W3C//DTD SVG 1.1//EN" 
  "http://www.w3.org/Graphics/SVG/1.1/DTD/svg11.dtd">
<svg width="24" height="24"
     xmlns="http://www.w3.org/2000/svg" version="1.1">
 <path d="  M 24,0  L 0,0  L 0,24  L 6,24  L 6,15  L 5,15  L 5,14  L 4,14  L 4,12  L 3,12  L 3,10  L 4,10  L 4,8  L 2,8  L 2,6  L 3,6  L 3,7  L 5,7  L 5,6  L 4,6  L 4,5  L 6,5  L 6,3  L 7,3  L 7,2  L 8,2  L 8,3  L 9,3  L 9,4  L 10,4  L 10,3  L 12,3  L 12,2  L 13,2  L 13,3  L 14,3  L 14,4  L 16,4  L 16,3  L 17,3  L 17,5  L 18,5  L 18,6  L 20,6  L 20,7  L 19,7  L 19,8  L 17,8  L 17,10  L 18,10  L 18,12  L 17,12  L 17,20  L 16,20  L 16,21  L 15,21  L 15,22  L 11,22  L 11,24  L 24,24  Z  M 3,15  L 3,14  L 4,14  L 4,15  Z  " style="fill:rgb(0, 0, 0); fill-opacity:0.000; stroke:none;" />
 <path d="  M 13,4  L 13,5  L 14,5  L 14,4  Z  " style="fill:rgb(0, 0, 0); fill-opacity:0.000; stroke:none;" />
 <path d="  M 10,3  L 10,4  L 9,4  L 9,3  L 8,3  L 8,2  L 7,2  L 7,3  L 6,3  L 6,5  L 4,5  L 4,6  L 5,6  L 5,7  L 3,7  L 3,6  L 2,6  L 2,8  L 4,8  L 4,10  L 3,10  L 3,12  L 4,12  L 4,14  L 5,14  L 5,11  L 6,11  L 6,9  L 8,9  L 8,10  L 9,10  L 9,9  L 10,9  L 10,8  L 12,8  L 12,9  L 13,9  L 13,8  L 14,8  L 14,9  L 15,9  L 15,8  L 16,8  L 16,9  L 17,9  L 17,8  L 19,8  L 19,7  L 20,7  L 20,6  L 18,6  L 18,5  L 17,5  L 17,3  L 16,3  L 16,4  L 14,4  L 14,3  L 13,3  L 13,2  L 12,2  L 12,3  Z  M 14,4  L 14,5  L 13,5  L 13,4  Z  " style="fill:rgb(226, 38, 38); fill-opacity:1.000; stroke:none;" />
 <path d="  M 3,15  L 4,15  L 4,14  L 3,14  Z  " style="fill:rgb(226, 38, 38); fill-opacity:1.000; stroke:none;" />
 <path d="  M 16,20  L 17,20  L 17,12  L 18,12  L 18,10  L 17,10  L 17,9  L 16,9  L 16,10  L 7,10  L 7,9  L 6,9  L 6,11  L 5,11  L 5,15  L 6,15  L 6,24  L 7,24  L 7,14  L 6,14  L 6,12  L 8,12  L 8,11  L 11,11  L 11,12  L 13,12  L 13,11  L 16,11  Z  " style="fill:rgb(0, 0, 0); fill-opacity:1.000; stroke:none;" />
 <path d="  M 10,17  L 10,18  L 11,18  L 11,17  Z  " style="fill:rgb(0, 0, 0); fill-opacity:1.000; stroke:none;" />
 <path d="  M 15,22  L 15,21  L 10,21  L 10,24  L 11,24  L 11,22  Z  " style="fill:rgb(0, 0, 0); fill-opacity:1.000; stroke:none;" />
 <path d="  M 14,18  L 11,18  L 11,19  L 14,19  Z  " style="fill:rgb(0, 0, 0); fill-opacity:1.000; stroke:none;" />
 <path d="  M 12,15  L 12,16  L 14,16  L 14,15  Z  " style="fill:rgb(0, 0, 0); fill-opacity:1.000; stroke:none;" />
 <path d="  M 15,20  L 15,21  L 16,21  L 16,20  Z  " style="fill:rgb(0, 0, 0); fill-opacity:1.000; stroke:none;" />
 <path d="  M 10,17  L 11,17  L 11,18  L 10,18  Z  M 6,14  L 7,14  L 7,24  L 10,24  L 10,21  L 15,21  L 15,20  L 16,20  L 16,14  L 13,14  L 13,12  L 11,12  L 11,14  L 8,14  L 8,12  L 6,12  Z  M 11,19  L 11,18  L 14,18  L 14,19  Z  M 12,15  L 14,15  L 14,16  L 12,16  Z  " style="fill:rgb(219, 177, 128); fill-opacity:1.000; stroke:none;" />
 <path d="  M 8,10  L 8,9  L 7,9  L 7,10  Z  " style="fill:rgb(219, 177, 128); fill-opacity:1.000; stroke:none;" />
 <path d="  M 16,10  L 16,8  L 15,8  L 15,9  L 14,9  L 14,8  L 13,8  L 13,9  L 12,9  L 12,8  L 10,8  L 10,9  L 9,9  L 9,10  Z  " style="fill:rgb(219, 177, 128); fill-opacity:1.000; stroke:none;" />
 <path d="  M 9,13  L 9,11  L 8,11  L 8,14  L 11,14  L 11,13  Z  " style="fill:rgb(212, 200, 184); fill-opacity:1.000; stroke:none;" />
 <path d="  M 16,14  L 16,13  L 14,13  L 14,11  L 13,11  L 13,14  Z  " style="fill:rgb(212, 200, 184); fill-opacity:1.000; stroke:none;" />
 <path d="  M 9,11  L 9,12  L 11,12  L 11,11  Z  " style="fill:rgb(182, 163, 137); fill-opacity:1.000; stroke:none;" />
 <path d="  M 14,11  L 14,12  L 16,12  L 16,11  Z  " style="fill:rgb(182, 163, 137); fill-opacity:1.000; stroke:none;" />
 <path d="  M 10,12  L 9,12  L 9,13  L 10,13  Z  " style="fill:rgb(89, 101, 112); fill-opacity:1.000; stroke:none;" />
 <path d="  M 15,13  L 15,12  L 14,12  L 14,13  Z  " style="fill:rgb(89, 101, 112); fill-opacity:1.000; stroke:none;" />
 <path d="  M 11,13  L 11,12  L 10,12  L 10,13  Z  " style="fill:rgb(207, 189, 166); fill-opacity:1.000; stroke:none;" />
 <path d="  M 15,12  L 15,13  L 16,13  L 16,12  Z  " style="fill:rgb(207, 189, 166); fill-opacity:1.000; stroke:none;" />
</svg>
