<?xml version="1.0" encoding="UTF-8" standalone="no"?>
<!DOCTYPE svg PUBLIC "-//W3C//DTD SVG 1.1//EN" 
  "http://www.w3.org/Graphics/SVG/1.1/DTD/svg11.dtd">
<svg width="24" height="24"
     xmlns="http://www.w3.org/2000/svg" version="1.1">
 <path d="  M 24,0  L 0,0  L 0,24  L 6,24  L 6,16  L 5,16  L 5,15  L 4,15  L 4,13  L 3,13  L 3,11  L 4,11  L 4,10  L 2,10  L 2,9  L 3,9  L 3,8  L 4,8  L 4,7  L 3,7  L 3,4  L 4,4  L 4,5  L 6,5  L 6,3  L 8,3  L 8,4  L 12,4  L 12,3  L 17,3  L 17,4  L 16,4  L 16,5  L 18,5  L 18,4  L 20,4  L 20,5  L 19,5  L 19,6  L 20,6  L 20,7  L 19,7  L 19,9  L 18,9  L 18,10  L 19,10  L 19,12  L 18,12  L 18,15  L 17,15  L 17,21  L 18,21  L 18,19  L 23,19  L 23,22  L 22,22  L 22,23  L 21,23  L 21,24  L 24,24  Z  M 21,11  L 21,12  L 22,12  L 22,14  L 19,14  L 19,12  L 20,12  L 20,11  Z  M 20,15  L 21,15  L 21,16  L 20,16  Z  M 20,18  L 20,17  L 21,17  L 21,18  Z  " style="fill:rgb(0, 0, 0); fill-opacity:0.000; stroke:none;" />
 <path d="  M 4,13  L 5,13  L 5,12  L 4,12  Z  " style="fill:rgb(0, 0, 0); fill-opacity:0.000; stroke:none;" />
 <path d="  M 17,24  L 17,23  L 16,23  L 16,22  L 11,22  L 11,24  Z  " style="fill:rgb(0, 0, 0); fill-opacity:0.000; stroke:none;" />
 <path d="  M 2,10  L 4,10  L 4,11  L 3,11  L 3,13  L 4,13  L 4,15  L 5,15  L 5,16  L 6,16  L 6,24  L 7,24  L 7,14  L 8,14  L 8,11  L 11,11  L 11,12  L 13,12  L 13,11  L 16,11  L 16,19  L 15,19  L 15,20  L 16,20  L 16,21  L 17,21  L 17,15  L 18,15  L 18,12  L 19,12  L 19,10  L 18,10  L 18,9  L 19,9  L 19,7  L 20,7  L 20,6  L 19,6  L 19,5  L 20,5  L 20,4  L 18,4  L 18,5  L 16,5  L 16,4  L 17,4  L 17,3  L 12,3  L 12,4  L 8,4  L 8,3  L 6,3  L 6,5  L 4,5  L 4,4  L 3,4  L 3,7  L 4,7  L 4,8  L 3,8  L 3,9  L 2,9  Z  M 4,13  L 4,12  L 5,12  L 5,13  Z  M 14,9  L 15,9  L 15,10  L 13,10  L 13,9  L 12,9  L 12,8  L 14,8  Z  M 5,15  L 5,14  L 6,14  L 6,15  Z  M 11,9  L 11,10  L 9,10  L 9,9  Z  " style="fill:rgb(0, 0, 0); fill-opacity:1.000; stroke:none;" />
 <path d="  M 16,22  L 16,21  L 15,21  L 15,20  L 14,20  L 14,21  L 10,21  L 10,24  L 11,24  L 11,22  Z  " style="fill:rgb(0, 0, 0); fill-opacity:1.000; stroke:none;" />
 <path d="  M 11,18  L 11,19  L 13,19  L 13,20  L 14,20  L 14,19  L 15,19  L 15,18  Z  " style="fill:rgb(0, 0, 0); fill-opacity:1.000; stroke:none;" />
 <path d="  M 12,15  L 12,16  L 14,16  L 14,15  Z  " style="fill:rgb(0, 0, 0); fill-opacity:1.000; stroke:none;" />
 <path d="  M 17,22  L 16,22  L 16,23  L 17,23  Z  " style="fill:rgb(0, 0, 0); fill-opacity:1.000; stroke:none;" />
 <path d="  M 19,20  L 22,20  L 22,22  L 23,22  L 23,19  L 18,19  L 18,21  L 17,21  L 17,22  L 19,22  Z  " style="fill:rgb(0, 0, 0); fill-opacity:1.000; stroke:none;" />
 <path d="  M 21,24  L 21,23  L 17,23  L 17,24  Z  " style="fill:rgb(0, 0, 0); fill-opacity:1.000; stroke:none;" />
 <path d="  M 22,22  L 21,22  L 21,23  L 22,23  Z  " style="fill:rgb(0, 0, 0); fill-opacity:1.000; stroke:none;" />
 <path d="  M 6,15  L 6,14  L 5,14  L 5,15  Z  " style="fill:rgb(255, 217, 38); fill-opacity:1.000; stroke:none;" />
 <path d="  M 7,24  L 10,24  L 10,21  L 14,21  L 14,20  L 13,20  L 13,19  L 11,19  L 11,18  L 15,18  L 15,19  L 16,19  L 16,14  L 13,14  L 13,12  L 11,12  L 11,14  L 7,14  Z  M 12,15  L 14,15  L 14,16  L 12,16  Z  " style="fill:rgb(219, 177, 128); fill-opacity:1.000; stroke:none;" />
 <path d="  M 9,9  L 9,10  L 11,10  L 11,9  Z  " style="fill:rgb(219, 177, 128); fill-opacity:1.000; stroke:none;" />
 <path d="  M 12,9  L 13,9  L 13,10  L 15,10  L 15,9  L 14,9  L 14,8  L 12,8  Z  " style="fill:rgb(219, 177, 128); fill-opacity:1.000; stroke:none;" />
 <path d="  M 9,13  L 9,11  L 8,11  L 8,14  L 11,14  L 11,13  Z  " style="fill:rgb(212, 200, 184); fill-opacity:1.000; stroke:none;" />
 <path d="  M 16,14  L 16,13  L 14,13  L 14,11  L 13,11  L 13,14  Z  " style="fill:rgb(212, 200, 184); fill-opacity:1.000; stroke:none;" />
 <path d="  M 9,11  L 9,12  L 11,12  L 11,11  Z  " style="fill:rgb(182, 163, 137); fill-opacity:1.000; stroke:none;" />
 <path d="  M 14,11  L 14,12  L 16,12  L 16,11  Z  " style="fill:rgb(182, 163, 137); fill-opacity:1.000; stroke:none;" />
 <path d="  M 10,12  L 9,12  L 9,13  L 10,13  Z  " style="fill:rgb(89, 101, 112); fill-opacity:1.000; stroke:none;" />
 <path d="  M 15,13  L 15,12  L 14,12  L 14,13  Z  " style="fill:rgb(89, 101, 112); fill-opacity:1.000; stroke:none;" />
 <path d="  M 11,13  L 11,12  L 10,12  L 10,13  Z  " style="fill:rgb(207, 189, 166); fill-opacity:1.000; stroke:none;" />
 <path d="  M 15,12  L 15,13  L 16,13  L 16,12  Z  " style="fill:rgb(207, 189, 166); fill-opacity:1.000; stroke:none;" />
 <path d="  M 15,19  L 14,19  L 14,20  L 15,20  Z  " style="fill:rgb(133, 81, 20); fill-opacity:1.000; stroke:none;" />
 <path d="  M 15,20  L 15,21  L 16,21  L 16,20  Z  " style="fill:rgb(133, 81, 20); fill-opacity:1.000; stroke:none;" />
 <path d="  M 17,22  L 17,21  L 16,21  L 16,22  Z  " style="fill:rgb(133, 81, 20); fill-opacity:1.000; stroke:none;" />
 <path d="  M 20,23  L 20,22  L 17,22  L 17,23  Z  " style="fill:rgb(133, 81, 20); fill-opacity:1.000; stroke:none;" />
 <path d="  M 20,21  L 20,22  L 21,22  L 21,21  L 22,21  L 22,20  L 19,20  L 19,21  Z  " style="fill:rgb(133, 81, 20); fill-opacity:1.000; stroke:none;" />
 <path d="  M 20,12  L 19,12  L 19,14  L 22,14  L 22,12  L 21,12  L 21,11  L 20,11  Z  " style="fill:rgb(185, 185, 185); fill-opacity:0.502; stroke:none;" />
 <path d="  M 20,16  L 21,16  L 21,15  L 20,15  Z  " style="fill:rgb(185, 185, 185); fill-opacity:0.502; stroke:none;" />
 <path d="  M 20,17  L 20,18  L 21,18  L 21,17  Z  " style="fill:rgb(185, 185, 185); fill-opacity:0.502; stroke:none;" />
 <path d="  M 19,21  L 19,22  L 20,22  L 20,21  Z  " style="fill:rgb(104, 60, 8); fill-opacity:1.000; stroke:none;" />
 <path d="  M 21,22  L 20,22  L 20,23  L 21,23  Z  " style="fill:rgb(104, 60, 8); fill-opacity:1.000; stroke:none;" />
 <path d="  M 22,21  L 21,21  L 21,22  L 22,22  Z  " style="fill:rgb(104, 60, 8); fill-opacity:1.000; stroke:none;" />
</svg>
