<?xml version="1.0" encoding="UTF-8" standalone="no"?>
<!DOCTYPE svg PUBLIC "-//W3C//DTD SVG 1.1//EN" 
  "http://www.w3.org/Graphics/SVG/1.1/DTD/svg11.dtd">
<svg width="24" height="24"
     xmlns="http://www.w3.org/2000/svg" version="1.1">
 <path d="  M 2,19  L 2,14  L 3,14  L 3,11  L 4,11  L 4,8  L 5,8  L 5,7  L 6,7  L 6,6  L 7,6  L 7,5  L 8,5  L 8,4  L 10,4  L 10,3  L 13,3  L 13,4  L 15,4  L 15,5  L 16,5  L 16,6  L 17,6  L 17,7  L 18,7  L 18,8  L 19,8  L 19,11  L 21,11  L 21,12  L 22,12  L 22,14  L 21,14  L 21,19  L 23,19  L 23,22  L 22,22  L 22,23  L 21,23  L 21,24  L 24,24  L 24,0  L 0,0  L 0,24  L 4,24  L 4,21  L 3,21  L 3,19  Z  " style="fill:rgb(0, 0, 0); fill-opacity:0.000; stroke:none;" />
 <path d="  M 17,24  L 17,23  L 16,23  L 16,24  Z  " style="fill:rgb(0, 0, 0); fill-opacity:0.000; stroke:none;" />
 <path d="  M 2,19  L 3,19  L 3,14  L 2,14  Z  " style="fill:rgb(0, 0, 0); fill-opacity:1.000; stroke:none;" />
 <path d="  M 4,11  L 3,11  L 3,14  L 4,14  Z  " style="fill:rgb(0, 0, 0); fill-opacity:1.000; stroke:none;" />
 <path d="  M 4,21  L 4,19  L 3,19  L 3,21  Z  " style="fill:rgb(0, 0, 0); fill-opacity:1.000; stroke:none;" />
 <path d="  M 4,11  L 5,11  L 5,8  L 4,8  Z  " style="fill:rgb(0, 0, 0); fill-opacity:1.000; stroke:none;" />
 <path d="  M 6,21  L 6,24  L 7,24  L 7,14  L 6,14  L 6,12  L 5,12  L 5,14  L 4,14  L 4,19  L 5,19  L 5,21  Z  " style="fill:rgb(0, 0, 0); fill-opacity:1.000; stroke:none;" />
 <path d="  M 4,21  L 4,24  L 5,24  L 5,21  Z  " style="fill:rgb(0, 0, 0); fill-opacity:1.000; stroke:none;" />
 <path d="  M 6,7  L 5,7  L 5,8  L 6,8  Z  " style="fill:rgb(0, 0, 0); fill-opacity:1.000; stroke:none;" />
 <path d="  M 7,6  L 6,6  L 6,7  L 7,7  Z  " style="fill:rgb(0, 0, 0); fill-opacity:1.000; stroke:none;" />
 <path d="  M 7,12  L 7,10  L 6,10  L 6,12  Z  " style="fill:rgb(0, 0, 0); fill-opacity:1.000; stroke:none;" />
 <path d="  M 8,5  L 7,5  L 7,6  L 8,6  Z  " style="fill:rgb(0, 0, 0); fill-opacity:1.000; stroke:none;" />
 <path d="  M 8,10  L 8,9  L 7,9  L 7,10  Z  " style="fill:rgb(0, 0, 0); fill-opacity:1.000; stroke:none;" />
 <path d="  M 8,4  L 8,5  L 10,5  L 10,4  Z  " style="fill:rgb(0, 0, 0); fill-opacity:1.000; stroke:none;" />
 <path d="  M 15,9  L 15,8  L 8,8  L 8,9  Z  " style="fill:rgb(0, 0, 0); fill-opacity:1.000; stroke:none;" />
 <path d="  M 10,12  L 9,12  L 9,13  L 10,13  Z  " style="fill:rgb(0, 0, 0); fill-opacity:1.000; stroke:none;" />
 <path d="  M 10,3  L 10,4  L 13,4  L 13,3  Z  " style="fill:rgb(0, 0, 0); fill-opacity:1.000; stroke:none;" />
 <path d="  M 16,22  L 16,21  L 15,21  L 15,20  L 14,20  L 14,21  L 10,21  L 10,24  L 12,24  L 12,23  L 13,23  L 13,22  Z  " style="fill:rgb(0, 0, 0); fill-opacity:1.000; stroke:none;" />
 <path d="  M 12,15  L 12,16  L 14,16  L 14,15  Z  " style="fill:rgb(0, 0, 0); fill-opacity:1.000; stroke:none;" />
 <path d="  M 15,5  L 15,4  L 13,4  L 13,5  Z  " style="fill:rgb(0, 0, 0); fill-opacity:1.000; stroke:none;" />
 <path d="  M 13,19  L 13,20  L 14,20  L 14,19  Z  " style="fill:rgb(0, 0, 0); fill-opacity:1.000; stroke:none;" />
 <path d="  M 13,23  L 13,24  L 16,24  L 16,23  Z  " style="fill:rgb(0, 0, 0); fill-opacity:1.000; stroke:none;" />
 <path d="  M 15,13  L 15,12  L 14,12  L 14,13  Z  " style="fill:rgb(0, 0, 0); fill-opacity:1.000; stroke:none;" />
 <path d="  M 15,18  L 14,18  L 14,19  L 15,19  Z  " style="fill:rgb(0, 0, 0); fill-opacity:1.000; stroke:none;" />
 <path d="  M 16,5  L 15,5  L 15,6  L 16,6  Z  " style="fill:rgb(0, 0, 0); fill-opacity:1.000; stroke:none;" />
 <path d="  M 16,10  L 16,9  L 15,9  L 15,10  Z  " style="fill:rgb(0, 0, 0); fill-opacity:1.000; stroke:none;" />
 <path d="  M 19,14  L 18,14  L 18,12  L 17,12  L 17,10  L 16,10  L 16,19  L 15,19  L 15,20  L 16,20  L 16,21  L 17,21  L 17,22  L 19,22  L 19,20  L 22,20  L 22,22  L 23,22  L 23,19  L 21,19  L 21,18  L 20,18  L 20,19  L 19,19  Z  M 17,21  L 17,20  L 18,20  L 18,21  Z  " style="fill:rgb(0, 0, 0); fill-opacity:1.000; stroke:none;" />
 <path d="  M 16,6  L 16,7  L 17,7  L 17,6  Z  " style="fill:rgb(0, 0, 0); fill-opacity:1.000; stroke:none;" />
 <path d="  M 17,22  L 16,22  L 16,23  L 17,23  Z  " style="fill:rgb(0, 0, 0); fill-opacity:1.000; stroke:none;" />
 <path d="  M 17,8  L 18,8  L 18,7  L 17,7  Z  " style="fill:rgb(0, 0, 0); fill-opacity:1.000; stroke:none;" />
 <path d="  M 21,24  L 21,23  L 17,23  L 17,24  Z  " style="fill:rgb(0, 0, 0); fill-opacity:1.000; stroke:none;" />
 <path d="  M 19,8  L 18,8  L 18,11  L 19,11  Z  " style="fill:rgb(0, 0, 0); fill-opacity:1.000; stroke:none;" />
 <path d="  M 19,12  L 20,12  L 20,11  L 19,11  Z  " style="fill:rgb(0, 0, 0); fill-opacity:1.000; stroke:none;" />
 <path d="  M 21,15  L 21,14  L 20,14  L 20,15  Z  " style="fill:rgb(0, 0, 0); fill-opacity:1.000; stroke:none;" />
 <path d="  M 20,16  L 20,17  L 21,17  L 21,16  Z  " style="fill:rgb(0, 0, 0); fill-opacity:1.000; stroke:none;" />
 <path d="  M 22,22  L 21,22  L 21,23  L 22,23  Z  " style="fill:rgb(0, 0, 0); fill-opacity:1.000; stroke:none;" />
 <path d="  M 4,14  L 3,14  L 3,19  L 4,19  Z  " style="fill:rgb(85, 85, 85); fill-opacity:1.000; stroke:none;" />
 <path d="  M 5,11  L 4,11  L 4,14  L 5,14  L 5,12  L 6,12  L 6,10  L 7,10  L 7,9  L 8,9  L 8,8  L 15,8  L 15,9  L 16,9  L 16,10  L 17,10  L 17,12  L 18,12  L 18,14  L 19,14  L 19,11  L 18,11  L 18,8  L 17,8  L 17,7  L 16,7  L 16,6  L 15,6  L 15,5  L 13,5  L 13,4  L 10,4  L 10,5  L 8,5  L 8,6  L 7,6  L 7,7  L 6,7  L 6,8  L 5,8  Z  " style="fill:rgb(85, 85, 85); fill-opacity:1.000; stroke:none;" />
 <path d="  M 5,21  L 5,19  L 4,19  L 4,21  Z  " style="fill:rgb(85, 85, 85); fill-opacity:1.000; stroke:none;" />
 <path d="  M 5,24  L 6,24  L 6,21  L 5,21  Z  " style="fill:rgb(85, 85, 85); fill-opacity:1.000; stroke:none;" />
 <path d="  M 12,24  L 13,24  L 13,23  L 12,23  Z  " style="fill:rgb(85, 85, 85); fill-opacity:1.000; stroke:none;" />
 <path d="  M 13,22  L 13,23  L 16,23  L 16,22  Z  " style="fill:rgb(85, 85, 85); fill-opacity:1.000; stroke:none;" />
 <path d="  M 17,20  L 17,21  L 18,21  L 18,20  Z  " style="fill:rgb(85, 85, 85); fill-opacity:1.000; stroke:none;" />
 <path d="  M 20,14  L 19,14  L 19,19  L 20,19  Z  " style="fill:rgb(85, 85, 85); fill-opacity:1.000; stroke:none;" />
 <path d="  M 15,17  L 15,16  L 16,16  L 16,13  L 14,13  L 14,11  L 16,11  L 16,10  L 15,10  L 15,9  L 8,9  L 8,10  L 7,10  L 7,12  L 6,12  L 6,14  L 7,14  L 7,15  L 8,15  L 8,16  L 9,16  L 9,17  Z  M 11,13  L 9,13  L 9,11  L 11,11  Z  M 12,15  L 14,15  L 14,16  L 12,16  Z  " style="fill:rgb(219, 177, 128); fill-opacity:1.000; stroke:none;" />
 <path d="  M 7,24  L 10,24  L 10,21  L 9,21  L 9,20  L 8,20  L 8,19  L 7,19  Z  " style="fill:rgb(219, 177, 128); fill-opacity:1.000; stroke:none;" />
 <path d="  M 7,19  L 8,19  L 8,20  L 9,20  L 9,21  L 14,21  L 14,20  L 13,20  L 13,19  L 11,19  L 11,18  L 15,18  L 15,19  L 16,19  L 16,16  L 15,16  L 15,17  L 9,17  L 9,16  L 8,16  L 8,15  L 7,15  Z  " style="fill:rgb(153, 124, 89); fill-opacity:1.000; stroke:none;" />
 <path d="  M 9,11  L 9,12  L 11,12  L 11,11  Z  " style="fill:rgb(166, 110, 44); fill-opacity:1.000; stroke:none;" />
 <path d="  M 14,11  L 14,12  L 16,12  L 16,11  Z  " style="fill:rgb(166, 110, 44); fill-opacity:1.000; stroke:none;" />
 <path d="  M 11,13  L 11,12  L 10,12  L 10,13  Z  " style="fill:rgb(210, 157, 96); fill-opacity:1.000; stroke:none;" />
 <path d="  M 15,12  L 15,13  L 16,13  L 16,12  Z  " style="fill:rgb(210, 157, 96); fill-opacity:1.000; stroke:none;" />
 <path d="  M 14,18  L 11,18  L 11,19  L 14,19  Z  " style="fill:rgb(40, 27, 9); fill-opacity:1.000; stroke:none;" />
 <path d="  M 15,19  L 14,19  L 14,20  L 15,20  Z  " style="fill:rgb(133, 81, 20); fill-opacity:1.000; stroke:none;" />
 <path d="  M 15,20  L 15,21  L 16,21  L 16,20  Z  " style="fill:rgb(133, 81, 20); fill-opacity:1.000; stroke:none;" />
 <path d="  M 17,22  L 17,21  L 16,21  L 16,22  Z  " style="fill:rgb(133, 81, 20); fill-opacity:1.000; stroke:none;" />
 <path d="  M 20,23  L 20,22  L 17,22  L 17,23  Z  " style="fill:rgb(133, 81, 20); fill-opacity:1.000; stroke:none;" />
 <path d="  M 20,21  L 20,22  L 21,22  L 21,21  L 22,21  L 22,20  L 19,20  L 19,21  Z  " style="fill:rgb(133, 81, 20); fill-opacity:1.000; stroke:none;" />
 <path d="  M 20,12  L 19,12  L 19,14  L 20,14  Z  " style="fill:rgb(93, 93, 93); fill-opacity:1.000; stroke:none;" />
 <path d="  M 20,16  L 21,16  L 21,15  L 20,15  Z  " style="fill:rgb(93, 93, 93); fill-opacity:1.000; stroke:none;" />
 <path d="  M 20,17  L 20,18  L 21,18  L 21,17  Z  " style="fill:rgb(93, 93, 93); fill-opacity:1.000; stroke:none;" />
 <path d="  M 19,21  L 19,22  L 20,22  L 20,21  Z  " style="fill:rgb(104, 60, 8); fill-opacity:1.000; stroke:none;" />
 <path d="  M 21,22  L 20,22  L 20,23  L 21,23  Z  " style="fill:rgb(104, 60, 8); fill-opacity:1.000; stroke:none;" />
 <path d="  M 22,21  L 21,21  L 21,22  L 22,22  Z  " style="fill:rgb(104, 60, 8); fill-opacity:1.000; stroke:none;" />
 <path d="  M 22,12  L 21,12  L 21,11  L 20,11  L 20,14  L 22,14  Z  " style="fill:rgb(185, 185, 185); fill-opacity:0.502; stroke:none;" />
</svg>
