<?xml version="1.0" encoding="UTF-8" standalone="no"?>
<!DOCTYPE svg PUBLIC "-//W3C//DTD SVG 1.1//EN" 
  "http://www.w3.org/Graphics/SVG/1.1/DTD/svg11.dtd">
<svg width="24" height="24"
     xmlns="http://www.w3.org/2000/svg" version="1.1">
 <path d="  M 24,0  L 0,0  L 0,24  L 6,24  L 6,15  L 5,15  L 5,12  L 6,12  L 6,7  L 7,7  L 7,6  L 8,6  L 8,5  L 15,5  L 15,6  L 16,6  L 16,7  L 17,7  L 17,20  L 16,20  L 16,21  L 15,21  L 15,22  L 11,22  L 11,24  L 24,24  Z  " style="fill:rgb(0, 0, 0); fill-opacity:0.000; stroke:none;" />
 <path d="  M 7,19  L 9,19  L 9,18  L 8,18  L 8,16  L 7,16  L 7,14  L 6,14  L 6,12  L 5,12  L 5,15  L 6,15  L 6,24  L 7,24  Z  " style="fill:rgb(0, 0, 0); fill-opacity:1.000; stroke:none;" />
 <path d="  M 14,8  L 14,7  L 15,7  L 15,8  L 16,8  L 16,10  L 13,10  L 13,8  Z  M 9,13  L 9,14  L 11,14  L 11,13  L 12,13  L 12,11  L 16,11  L 16,20  L 17,20  L 17,7  L 16,7  L 16,6  L 15,6  L 15,5  L 8,5  L 8,6  L 7,6  L 7,7  L 6,7  L 6,12  L 7,12  L 7,11  L 8,11  L 8,13  Z  M 8,8  L 9,8  L 9,7  L 11,7  L 11,8  L 12,8  L 12,10  L 8,10  Z  " style="fill:rgb(0, 0, 0); fill-opacity:1.000; stroke:none;" />
 <path d="  M 15,22  L 15,21  L 10,21  L 10,24  L 11,24  L 11,22  Z  " style="fill:rgb(0, 0, 0); fill-opacity:1.000; stroke:none;" />
 <path d="  M 14,18  L 11,18  L 11,19  L 14,19  Z  " style="fill:rgb(0, 0, 0); fill-opacity:1.000; stroke:none;" />
 <path d="  M 12,15  L 12,16  L 14,16  L 14,15  Z  " style="fill:rgb(0, 0, 0); fill-opacity:1.000; stroke:none;" />
 <path d="  M 15,13  L 15,12  L 14,12  L 14,13  Z  " style="fill:rgb(0, 0, 0); fill-opacity:1.000; stroke:none;" />
 <path d="  M 15,20  L 15,21  L 16,21  L 16,20  Z  " style="fill:rgb(0, 0, 0); fill-opacity:1.000; stroke:none;" />
 <path d="  M 7,16  L 8,16  L 8,18  L 9,18  L 9,19  L 7,19  L 7,24  L 10,24  L 10,21  L 15,21  L 15,20  L 16,20  L 16,13  L 14,13  L 14,11  L 12,11  L 12,13  L 11,13  L 11,14  L 9,14  L 9,13  L 8,13  L 8,11  L 7,11  L 7,12  L 6,12  L 6,14  L 7,14  Z  M 12,15  L 14,15  L 14,16  L 12,16  Z  M 11,20  L 10,20  L 10,17  L 15,17  L 15,20  L 14,20  L 14,19  L 11,19  Z  " style="fill:rgb(219, 177, 128); fill-opacity:1.000; stroke:none;" />
 <path d="  M 10,8  L 9,8  L 9,9  L 8,9  L 8,10  L 12,10  L 12,8  L 11,8  L 11,7  L 10,7  Z  " style="fill:rgb(219, 177, 128); fill-opacity:1.000; stroke:none;" />
 <path d="  M 13,10  L 16,10  L 16,8  L 15,8  L 15,7  L 14,7  L 14,8  L 13,8  Z  " style="fill:rgb(219, 177, 128); fill-opacity:1.000; stroke:none;" />
 <path d="  M 9,8  L 8,8  L 8,9  L 9,9  Z  " style="fill:rgb(231, 203, 169); fill-opacity:1.000; stroke:none;" />
 <path d="  M 9,7  L 9,8  L 10,8  L 10,7  Z  " style="fill:rgb(231, 203, 169); fill-opacity:1.000; stroke:none;" />
 <path d="  M 10,17  L 10,18  L 11,18  L 11,17  Z  " style="fill:rgb(194, 137, 70); fill-opacity:1.000; stroke:none;" />
 <path d="  M 15,18  L 15,17  L 14,17  L 14,18  Z  " style="fill:rgb(194, 137, 70); fill-opacity:1.000; stroke:none;" />
 <path d="  M 11,18  L 10,18  L 10,20  L 11,20  Z  " style="fill:rgb(166, 110, 44); fill-opacity:1.000; stroke:none;" />
 <path d="  M 11,17  L 11,18  L 14,18  L 14,17  Z  " style="fill:rgb(166, 110, 44); fill-opacity:1.000; stroke:none;" />
 <path d="  M 14,11  L 14,12  L 16,12  L 16,11  Z  " style="fill:rgb(166, 110, 44); fill-opacity:1.000; stroke:none;" />
 <path d="  M 14,18  L 14,20  L 15,20  L 15,18  Z  " style="fill:rgb(166, 110, 44); fill-opacity:1.000; stroke:none;" />
 <path d="  M 15,12  L 15,13  L 16,13  L 16,12  Z  " style="fill:rgb(210, 157, 96); fill-opacity:1.000; stroke:none;" />
</svg>
