<?xml version="1.0" encoding="UTF-8" standalone="no"?>
<!DOCTYPE svg PUBLIC "-//W3C//DTD SVG 1.1//EN" 
  "http://www.w3.org/Graphics/SVG/1.1/DTD/svg11.dtd">
<svg width="24" height="24"
     xmlns="http://www.w3.org/2000/svg" version="1.1">
 <path d="  M 24,0  L 0,0  L 0,24  L 6,24  L 6,15  L 5,15  L 5,12  L 6,12  L 6,10  L 3,10  L 3,9  L 4,9  L 4,8  L 6,8  L 6,7  L 7,7  L 7,6  L 8,6  L 8,4  L 9,4  L 9,3  L 14,3  L 14,4  L 15,4  L 15,6  L 16,6  L 16,7  L 17,7  L 17,8  L 19,8  L 19,9  L 20,9  L 20,10  L 17,10  L 17,20  L 16,20  L 16,21  L 15,21  L 15,22  L 11,22  L 11,24  L 24,24  Z  " style="fill:rgb(0, 0, 0); fill-opacity:0.000; stroke:none;" />
 <path d="  M 20,9  L 19,9  L 19,8  L 4,8  L 4,9  L 3,9  L 3,10  L 20,10  Z  " style="fill:rgb(61, 47, 30); fill-opacity:1.000; stroke:none;" />
 <path d="  M 9,3  L 9,4  L 8,4  L 8,6  L 7,6  L 7,7  L 16,7  L 16,6  L 15,6  L 15,4  L 14,4  L 14,3  Z  " style="fill:rgb(61, 47, 30); fill-opacity:1.000; stroke:none;" />
 <path d="  M 6,24  L 7,24  L 7,14  L 6,14  L 6,12  L 5,12  L 5,15  L 6,15  Z  " style="fill:rgb(0, 0, 0); fill-opacity:1.000; stroke:none;" />
 <path d="  M 17,8  L 17,7  L 6,7  L 6,8  Z  " style="fill:rgb(0, 0, 0); fill-opacity:1.000; stroke:none;" />
 <path d="  M 12,11  L 12,10  L 8,10  L 8,11  L 7,11  L 7,10  L 6,10  L 6,12  L 8,12  L 8,14  L 12,14  L 12,12  L 13,12  L 13,14  L 16,14  L 16,20  L 17,20  L 17,10  L 13,10  L 13,11  Z  M 16,13  L 14,13  L 14,11  L 16,11  Z  M 11,13  L 9,13  L 9,11  L 11,11  Z  " style="fill:rgb(0, 0, 0); fill-opacity:1.000; stroke:none;" />
 <path d="  M 15,22  L 15,21  L 10,21  L 10,24  L 11,24  L 11,22  Z  " style="fill:rgb(0, 0, 0); fill-opacity:1.000; stroke:none;" />
 <path d="  M 14,18  L 11,18  L 11,19  L 14,19  Z  " style="fill:rgb(0, 0, 0); fill-opacity:1.000; stroke:none;" />
 <path d="  M 12,15  L 12,16  L 14,16  L 14,15  Z  " style="fill:rgb(0, 0, 0); fill-opacity:1.000; stroke:none;" />
 <path d="  M 15,20  L 15,21  L 16,21  L 16,20  Z  " style="fill:rgb(0, 0, 0); fill-opacity:1.000; stroke:none;" />
 <path d="  M 6,14  L 7,14  L 7,24  L 10,24  L 10,21  L 15,21  L 15,20  L 16,20  L 16,14  L 13,14  L 13,12  L 12,12  L 12,14  L 8,14  L 8,12  L 6,12  Z  M 11,19  L 11,18  L 14,18  L 14,19  Z  M 12,15  L 14,15  L 14,16  L 12,16  Z  " style="fill:rgb(113, 63, 29); fill-opacity:1.000; stroke:none;" />
 <path d="  M 7,11  L 8,11  L 8,10  L 7,10  Z  " style="fill:rgb(113, 63, 29); fill-opacity:1.000; stroke:none;" />
 <path d="  M 12,10  L 12,11  L 13,11  L 13,10  Z  " style="fill:rgb(113, 63, 29); fill-opacity:1.000; stroke:none;" />
 <path d="  M 11,13  L 11,11  L 9,11  L 9,13  Z  " style="fill:rgb(128, 219, 218); fill-opacity:1.000; stroke:none;" />
 <path d="  M 14,13  L 16,13  L 16,11  L 14,11  Z  " style="fill:rgb(128, 219, 218); fill-opacity:1.000; stroke:none;" />
</svg>
