<?xml version="1.0" encoding="UTF-8" standalone="no"?>
<!DOCTYPE svg PUBLIC "-//W3C//DTD SVG 1.1//EN" 
  "http://www.w3.org/Graphics/SVG/1.1/DTD/svg11.dtd">
<svg width="24" height="24"
     xmlns="http://www.w3.org/2000/svg" version="1.1">
 <path d="  M 24,0  L 0,0  L 0,24  L 6,24  L 6,21  L 5,21  L 5,18  L 6,18  L 6,15  L 5,15  L 5,12  L 6,12  L 6,7  L 5,7  L 5,5  L 6,5  L 6,4  L 10,4  L 10,3  L 13,3  L 13,4  L 17,4  L 17,5  L 18,5  L 18,7  L 17,7  L 17,8  L 18,8  L 18,10  L 17,10  L 17,17  L 18,17  L 18,22  L 17,22  L 17,23  L 16,23  L 16,24  L 24,24  Z  " style="fill:rgb(0, 0, 0); fill-opacity:0.000; stroke:none;" />
 <path d="  M 6,5  L 5,5  L 5,7  L 6,7  Z  " style="fill:rgb(0, 0, 0); fill-opacity:1.000; stroke:none;" />
 <path d="  M 7,14  L 6,14  L 6,12  L 5,12  L 5,15  L 6,15  L 6,18  L 7,18  Z  " style="fill:rgb(0, 0, 0); fill-opacity:1.000; stroke:none;" />
 <path d="  M 5,21  L 6,21  L 6,18  L 5,18  Z  " style="fill:rgb(0, 0, 0); fill-opacity:1.000; stroke:none;" />
 <path d="  M 6,4  L 6,5  L 10,5  L 10,4  Z  " style="fill:rgb(0, 0, 0); fill-opacity:1.000; stroke:none;" />
 <path d="  M 8,7  L 8,8  L 7,8  L 7,7  L 6,7  L 6,12  L 7,12  L 7,9  L 9,9  L 9,7  Z  " style="fill:rgb(0, 0, 0); fill-opacity:1.000; stroke:none;" />
 <path d="  M 6,24  L 7,24  L 7,22  L 8,22  L 8,21  L 6,21  Z  " style="fill:rgb(0, 0, 0); fill-opacity:1.000; stroke:none;" />
 <path d="  M 11,22  L 8,22  L 8,23  L 10,23  L 10,24  L 16,24  L 16,23  L 11,23  Z  " style="fill:rgb(0, 0, 0); fill-opacity:1.000; stroke:none;" />
 <path d="  M 16,17  L 17,17  L 17,10  L 18,10  L 18,8  L 17,8  L 17,9  L 9,9  L 9,10  L 16,10  Z  " style="fill:rgb(0, 0, 0); fill-opacity:1.000; stroke:none;" />
 <path d="  M 10,12  L 9,12  L 9,13  L 10,13  Z  " style="fill:rgb(0, 0, 0); fill-opacity:1.000; stroke:none;" />
 <path d="  M 10,3  L 10,4  L 13,4  L 13,3  Z  " style="fill:rgb(0, 0, 0); fill-opacity:1.000; stroke:none;" />
 <path d="  M 10,7  L 10,8  L 11,8  L 11,7  Z  " style="fill:rgb(0, 0, 0); fill-opacity:1.000; stroke:none;" />
 <path d="  M 14,18  L 11,18  L 11,19  L 14,19  Z  " style="fill:rgb(0, 0, 0); fill-opacity:1.000; stroke:none;" />
 <path d="  M 13,8  L 13,7  L 12,7  L 12,8  Z  " style="fill:rgb(0, 0, 0); fill-opacity:1.000; stroke:none;" />
 <path d="  M 17,5  L 17,4  L 13,4  L 13,5  Z  " style="fill:rgb(0, 0, 0); fill-opacity:1.000; stroke:none;" />
 <path d="  M 15,8  L 15,7  L 14,7  L 14,8  Z  " style="fill:rgb(0, 0, 0); fill-opacity:1.000; stroke:none;" />
 <path d="  M 15,13  L 15,12  L 14,12  L 14,13  Z  " style="fill:rgb(0, 0, 0); fill-opacity:1.000; stroke:none;" />
 <path d="  M 17,8  L 17,7  L 16,7  L 16,8  Z  " style="fill:rgb(0, 0, 0); fill-opacity:1.000; stroke:none;" />
 <path d="  M 17,22  L 16,22  L 16,23  L 17,23  Z  " style="fill:rgb(0, 0, 0); fill-opacity:1.000; stroke:none;" />
 <path d="  M 18,5  L 17,5  L 17,7  L 18,7  Z  " style="fill:rgb(0, 0, 0); fill-opacity:1.000; stroke:none;" />
 <path d="  M 17,22  L 18,22  L 18,17  L 17,17  Z  " style="fill:rgb(0, 0, 0); fill-opacity:1.000; stroke:none;" />
 <path d="  M 11,5  L 12,5  L 12,6  L 11,6  Z  M 13,5  L 13,4  L 10,4  L 10,5  L 6,5  L 6,7  L 17,7  L 17,5  Z  " style="fill:rgb(38, 49, 74); fill-opacity:1.000; stroke:none;" />
 <path d="  M 17,9  L 17,8  L 9,8  L 9,9  Z  " style="fill:rgb(38, 49, 74); fill-opacity:1.000; stroke:none;" />
 <path d="  M 6,14  L 7,14  L 7,17  L 9,17  L 9,16  L 12,16  L 12,14  L 14,14  L 14,16  L 16,16  L 16,13  L 14,13  L 14,11  L 16,11  L 16,10  L 9,10  L 9,9  L 7,9  L 7,12  L 6,12  Z  M 11,13  L 9,13  L 9,11  L 11,11  Z  " style="fill:rgb(174, 139, 97); fill-opacity:1.000; stroke:none;" />
 <path d="  M 7,22  L 7,24  L 10,24  L 10,23  L 8,23  L 8,22  Z  " style="fill:rgb(174, 139, 97); fill-opacity:1.000; stroke:none;" />
 <path d="  M 16,16  L 9,16  L 9,17  L 7,17  L 7,18  L 6,18  L 6,21  L 8,21  L 8,22  L 11,22  L 11,23  L 16,23  L 16,22  L 17,22  L 17,17  L 16,17  Z  M 11,19  L 11,18  L 14,18  L 14,19  Z  " style="fill:rgb(166, 110, 44); fill-opacity:1.000; stroke:none;" />
 <path d="  M 8,8  L 8,7  L 7,7  L 7,8  Z  " style="fill:rgb(255, 255, 255); fill-opacity:1.000; stroke:none;" />
 <path d="  M 9,7  L 9,8  L 10,8  L 10,7  Z  " style="fill:rgb(255, 255, 255); fill-opacity:1.000; stroke:none;" />
 <path d="  M 11,7  L 11,8  L 12,8  L 12,7  Z  " style="fill:rgb(255, 255, 255); fill-opacity:1.000; stroke:none;" />
 <path d="  M 13,7  L 13,8  L 14,8  L 14,7  Z  " style="fill:rgb(255, 255, 255); fill-opacity:1.000; stroke:none;" />
 <path d="  M 15,7  L 15,8  L 16,8  L 16,7  Z  " style="fill:rgb(255, 255, 255); fill-opacity:1.000; stroke:none;" />
 <path d="  M 9,11  L 9,12  L 11,12  L 11,11  Z  " style="fill:rgb(134, 88, 30); fill-opacity:1.000; stroke:none;" />
 <path d="  M 14,11  L 14,12  L 16,12  L 16,11  Z  " style="fill:rgb(134, 88, 30); fill-opacity:1.000; stroke:none;" />
 <path d="  M 11,13  L 11,12  L 10,12  L 10,13  Z  " style="fill:rgb(167, 124, 71); fill-opacity:1.000; stroke:none;" />
 <path d="  M 15,12  L 15,13  L 16,13  L 16,12  Z  " style="fill:rgb(167, 124, 71); fill-opacity:1.000; stroke:none;" />
 <path d="  M 12,5  L 11,5  L 11,6  L 12,6  Z  " style="fill:rgb(255, 216, 0); fill-opacity:1.000; stroke:none;" />
 <path d="  M 12,14  L 12,16  L 14,16  L 14,14  Z  " style="fill:rgb(214, 0, 0); fill-opacity:1.000; stroke:none;" />
</svg>
