<?xml version="1.0" encoding="UTF-8" standalone="no"?>
<!DOCTYPE svg PUBLIC "-//W3C//DTD SVG 1.1//EN" 
  "http://www.w3.org/Graphics/SVG/1.1/DTD/svg11.dtd">
<svg width="24" height="24"
     xmlns="http://www.w3.org/2000/svg" version="1.1">
 <path d="  M 24,0  L 0,0  L 0,24  L 6,24  L 6,15  L 5,15  L 5,6  L 6,6  L 6,5  L 7,5  L 7,4  L 8,4  L 8,3  L 15,3  L 15,4  L 16,4  L 16,5  L 17,5  L 17,6  L 18,6  L 18,13  L 17,13  L 17,20  L 16,20  L 16,21  L 15,21  L 15,22  L 11,22  L 11,24  L 24,24  Z  " style="fill:rgb(0, 0, 0); fill-opacity:0.000; stroke:none;" />
 <path d="  M 8,3  L 8,4  L 7,4  L 7,5  L 6,5  L 6,6  L 5,6  L 5,15  L 6,15  L 6,24  L 7,24  L 7,14  L 11,14  L 11,13  L 12,13  L 12,12  L 13,12  L 13,13  L 14,13  L 14,10  L 17,10  L 17,13  L 18,13  L 18,6  L 17,6  L 17,5  L 16,5  L 16,4  L 15,4  L 15,3  Z  M 8,10  L 11,10  L 11,13  L 8,13  Z  M 10,5  L 9,5  L 9,4  L 10,4  Z  M 8,5  L 9,5  L 9,6  L 8,6  Z  " style="fill:rgb(0, 0, 0); fill-opacity:1.000; stroke:none;" />
 <path d="  M 15,22  L 15,21  L 10,21  L 10,24  L 11,24  L 11,22  Z  " style="fill:rgb(0, 0, 0); fill-opacity:1.000; stroke:none;" />
 <path d="  M 12,15  L 12,16  L 14,16  L 14,15  Z  " style="fill:rgb(0, 0, 0); fill-opacity:1.000; stroke:none;" />
 <path d="  M 12,18  L 12,19  L 13,19  L 13,18  Z  " style="fill:rgb(0, 0, 0); fill-opacity:1.000; stroke:none;" />
 <path d="  M 16,20  L 17,20  L 17,13  L 14,13  L 14,14  L 16,14  Z  " style="fill:rgb(0, 0, 0); fill-opacity:1.000; stroke:none;" />
 <path d="  M 15,20  L 15,21  L 16,21  L 16,20  Z  " style="fill:rgb(0, 0, 0); fill-opacity:1.000; stroke:none;" />
 <path d="  M 7,24  L 10,24  L 10,21  L 15,21  L 15,20  L 16,20  L 16,14  L 14,14  L 14,13  L 13,13  L 13,12  L 12,12  L 12,13  L 11,13  L 11,14  L 7,14  Z  M 11,19  L 11,18  L 14,18  L 14,19  Z  M 12,15  L 14,15  L 14,16  L 12,16  Z  " style="fill:rgb(174, 139, 97); fill-opacity:1.000; stroke:none;" />
 <path d="  M 8,5  L 8,6  L 9,6  L 9,5  Z  " style="fill:rgb(42, 42, 42); fill-opacity:1.000; stroke:none;" />
 <path d="  M 9,4  L 9,5  L 10,5  L 10,4  Z  " style="fill:rgb(42, 42, 42); fill-opacity:1.000; stroke:none;" />
 <path d="  M 8,10  L 8,11  L 11,11  L 11,10  Z  " style="fill:rgb(105, 12, 69); fill-opacity:1.000; stroke:none;" />
 <path d="  M 17,10  L 14,10  L 14,11  L 17,11  Z  " style="fill:rgb(105, 12, 69); fill-opacity:1.000; stroke:none;" />
 <path d="  M 11,12  L 11,11  L 8,11  L 8,12  Z  " style="fill:rgb(140, 13, 91); fill-opacity:1.000; stroke:none;" />
 <path d="  M 14,11  L 14,12  L 17,12  L 17,11  Z  " style="fill:rgb(140, 13, 91); fill-opacity:1.000; stroke:none;" />
 <path d="  M 8,12  L 8,13  L 11,13  L 11,12  Z  " style="fill:rgb(173, 33, 96); fill-opacity:1.000; stroke:none;" />
 <path d="  M 14,12  L 14,13  L 17,13  L 17,12  Z  " style="fill:rgb(173, 33, 96); fill-opacity:1.000; stroke:none;" />
 <path d="  M 12,18  L 11,18  L 11,19  L 12,19  Z  " style="fill:rgb(255, 255, 255); fill-opacity:1.000; stroke:none;" />
 <path d="  M 14,18  L 13,18  L 13,19  L 14,19  Z  " style="fill:rgb(255, 255, 255); fill-opacity:1.000; stroke:none;" />
</svg>
