<?xml version="1.0" encoding="UTF-8" standalone="no"?>
<!DOCTYPE svg PUBLIC "-//W3C//DTD SVG 1.1//EN" 
  "http://www.w3.org/Graphics/SVG/1.1/DTD/svg11.dtd">
<svg width="24" height="24"
     xmlns="http://www.w3.org/2000/svg" version="1.1">
 <path d="  M 24,0  L 0,0  L 0,24  L 6,24  L 6,15  L 5,15  L 5,13  L 4,13  L 4,12  L 3,12  L 3,11  L 2,11  L 2,9  L 4,9  L 4,7  L 5,7  L 5,6  L 6,6  L 6,5  L 7,5  L 7,4  L 9,4  L 9,5  L 14,5  L 14,4  L 16,4  L 16,5  L 17,5  L 17,6  L 18,6  L 18,7  L 19,7  L 19,9  L 21,9  L 21,11  L 20,11  L 20,12  L 19,12  L 19,13  L 18,13  L 18,15  L 17,15  L 17,20  L 16,20  L 16,22  L 15,22  L 15,23  L 11,23  L 11,24  L 24,24  Z  " style="fill:rgb(0, 0, 0); fill-opacity:0.000; stroke:none;" />
 <path d="  M 2,9  L 2,11  L 3,11  L 3,12  L 4,12  L 4,13  L 5,13  L 5,14  L 6,14  L 6,11  L 7,11  L 7,7  L 8,7  L 8,5  L 9,5  L 9,4  L 7,4  L 7,5  L 6,5  L 6,6  L 5,6  L 5,7  L 4,7  L 4,9  Z  " style="fill:rgb(40, 177, 67); fill-opacity:1.000; stroke:none;" />
 <path d="  M 19,9  L 19,7  L 18,7  L 18,6  L 17,6  L 17,5  L 16,5  L 16,4  L 14,4  L 14,5  L 15,5  L 15,7  L 16,7  L 16,9  L 17,9  L 17,10  L 18,10  L 18,13  L 19,13  L 19,12  L 20,12  L 20,11  L 21,11  L 21,9  Z  " style="fill:rgb(40, 177, 67); fill-opacity:1.000; stroke:none;" />
 <path d="  M 16,16  L 15,16  L 15,17  L 10,17  L 10,16  L 8,16  L 8,15  L 12,15  L 12,16  L 14,16  L 14,15  L 16,15  Z  M 6,24  L 7,24  L 7,20  L 8,20  L 8,22  L 9,22  L 9,23  L 10,23  L 10,24  L 11,24  L 11,23  L 15,23  L 15,22  L 16,22  L 16,20  L 17,20  L 17,15  L 18,15  L 18,10  L 17,10  L 17,14  L 8,14  L 8,15  L 7,15  L 7,14  L 5,14  L 5,15  L 6,15  Z  M 11,19  L 11,18  L 14,18  L 14,19  Z  " style="fill:rgb(0, 0, 0); fill-opacity:1.000; stroke:none;" />
 <path d="  M 7,11  L 6,11  L 6,13  L 7,13  Z  " style="fill:rgb(0, 0, 0); fill-opacity:1.000; stroke:none;" />
 <path d="  M 7,11  L 8,11  L 8,10  L 7,10  Z  " style="fill:rgb(0, 0, 0); fill-opacity:1.000; stroke:none;" />
 <path d="  M 7,13  L 7,14  L 8,14  L 8,13  Z  " style="fill:rgb(0, 0, 0); fill-opacity:1.000; stroke:none;" />
 <path d="  M 8,5  L 8,6  L 15,6  L 15,5  Z  " style="fill:rgb(0, 0, 0); fill-opacity:1.000; stroke:none;" />
 <path d="  M 8,9  L 8,10  L 17,10  L 17,9  Z  " style="fill:rgb(0, 0, 0); fill-opacity:1.000; stroke:none;" />
 <path d="  M 9,11  L 9,13  L 16,13  L 16,11  Z  " style="fill:rgb(0, 0, 0); fill-opacity:1.000; stroke:none;" />
 <path d="  M 6,13  L 6,14  L 7,14  L 7,13  Z  " style="fill:rgb(219, 177, 128); fill-opacity:1.000; stroke:none;" />
 <path d="  M 16,9  L 16,7  L 15,7  L 15,6  L 8,6  L 8,7  L 7,7  L 7,10  L 8,10  L 8,8  L 9,8  L 9,9  Z  M 9,7  L 10,7  L 10,8  L 9,8  Z  " style="fill:rgb(219, 177, 128); fill-opacity:1.000; stroke:none;" />
 <path d="  M 8,15  L 8,14  L 7,14  L 7,15  Z  " style="fill:rgb(219, 177, 128); fill-opacity:1.000; stroke:none;" />
 <path d="  M 7,24  L 10,24  L 10,23  L 9,23  L 9,22  L 8,22  L 8,20  L 7,20  Z  " style="fill:rgb(219, 177, 128); fill-opacity:1.000; stroke:none;" />
 <path d="  M 10,17  L 15,17  L 15,16  L 16,16  L 16,15  L 14,15  L 14,16  L 12,16  L 12,15  L 8,15  L 8,16  L 10,16  Z  " style="fill:rgb(219, 177, 128); fill-opacity:1.000; stroke:none;" />
 <path d="  M 7,11  L 7,13  L 8,13  L 8,11  Z  " style="fill:rgb(141, 141, 141); fill-opacity:1.000; stroke:none;" />
 <path d="  M 9,11  L 9,10  L 8,10  L 8,11  Z  " style="fill:rgb(141, 141, 141); fill-opacity:1.000; stroke:none;" />
 <path d="  M 8,14  L 9,14  L 9,13  L 8,13  Z  " style="fill:rgb(141, 141, 141); fill-opacity:1.000; stroke:none;" />
 <path d="  M 17,11  L 17,10  L 16,10  L 16,11  Z  " style="fill:rgb(141, 141, 141); fill-opacity:1.000; stroke:none;" />
 <path d="  M 17,14  L 17,13  L 16,13  L 16,14  Z  " style="fill:rgb(141, 141, 141); fill-opacity:1.000; stroke:none;" />
 <path d="  M 9,8  L 8,8  L 8,9  L 9,9  Z  " style="fill:rgb(231, 203, 169); fill-opacity:1.000; stroke:none;" />
 <path d="  M 9,7  L 9,8  L 10,8  L 10,7  Z  " style="fill:rgb(231, 203, 169); fill-opacity:1.000; stroke:none;" />
 <path d="  M 9,13  L 9,11  L 8,11  L 8,13  Z  " style="fill:rgb(180, 180, 180); fill-opacity:1.000; stroke:none;" />
 <path d="  M 9,10  L 9,11  L 16,11  L 16,10  Z  " style="fill:rgb(180, 180, 180); fill-opacity:1.000; stroke:none;" />
 <path d="  M 9,13  L 9,14  L 16,14  L 16,13  Z  " style="fill:rgb(180, 180, 180); fill-opacity:1.000; stroke:none;" />
 <path d="  M 16,13  L 17,13  L 17,11  L 16,11  Z  " style="fill:rgb(180, 180, 180); fill-opacity:1.000; stroke:none;" />
 <path d="  M 14,18  L 11,18  L 11,19  L 14,19  Z  " style="fill:rgb(105, 47, 8); fill-opacity:1.000; stroke:none;" />
</svg>
