<?xml version="1.0" encoding="UTF-8" standalone="no"?>
<!DOCTYPE svg PUBLIC "-//W3C//DTD SVG 1.1//EN" 
  "http://www.w3.org/Graphics/SVG/1.1/DTD/svg11.dtd">
<svg width="24" height="24"
     xmlns="http://www.w3.org/2000/svg" version="1.1">
 <path d="  M 24,0  L 0,0  L 0,24  L 6,24  L 6,15  L 5,15  L 5,12  L 6,12  L 6,7  L 7,7  L 7,6  L 8,6  L 8,5  L 15,5  L 15,6  L 16,6  L 16,7  L 17,7  L 17,20  L 16,20  L 16,21  L 15,21  L 15,22  L 14,22  L 14,23  L 11,23  L 11,24  L 24,24  Z  " style="fill:rgb(0, 0, 0); fill-opacity:0.000; stroke:none;" />
 <path d="  M 9,14  L 11,14  L 11,12  L 14,12  L 14,14  L 16,14  L 16,20  L 17,20  L 17,7  L 16,7  L 16,11  L 7,11  L 7,7  L 6,7  L 6,12  L 5,12  L 5,15  L 6,15  L 6,24  L 7,24  L 7,14  L 6,14  L 6,13  L 7,13  L 7,12  L 9,12  Z  " style="fill:rgb(0, 0, 0); fill-opacity:1.000; stroke:none;" />
 <path d="  M 7,7  L 8,7  L 8,6  L 7,6  Z  " style="fill:rgb(0, 0, 0); fill-opacity:1.000; stroke:none;" />
 <path d="  M 8,5  L 8,6  L 15,6  L 15,5  Z  " style="fill:rgb(0, 0, 0); fill-opacity:1.000; stroke:none;" />
 <path d="  M 11,22  L 11,21  L 10,21  L 10,24  L 11,24  L 11,23  L 14,23  L 14,22  Z  " style="fill:rgb(0, 0, 0); fill-opacity:1.000; stroke:none;" />
 <path d="  M 14,18  L 11,18  L 11,19  L 14,19  Z  " style="fill:rgb(0, 0, 0); fill-opacity:1.000; stroke:none;" />
 <path d="  M 12,15  L 12,16  L 14,16  L 14,15  Z  " style="fill:rgb(0, 0, 0); fill-opacity:1.000; stroke:none;" />
 <path d="  M 14,22  L 15,22  L 15,21  L 14,21  Z  " style="fill:rgb(0, 0, 0); fill-opacity:1.000; stroke:none;" />
 <path d="  M 15,7  L 16,7  L 16,6  L 15,6  Z  " style="fill:rgb(0, 0, 0); fill-opacity:1.000; stroke:none;" />
 <path d="  M 15,20  L 15,21  L 16,21  L 16,20  Z  " style="fill:rgb(0, 0, 0); fill-opacity:1.000; stroke:none;" />
 <path d="  M 10,17  L 15,17  L 15,20  L 16,20  L 16,14  L 14,14  L 14,12  L 11,12  L 11,14  L 9,14  L 9,12  L 7,12  L 7,13  L 6,13  L 6,14  L 7,14  L 7,24  L 10,24  L 10,21  L 11,21  L 11,20  L 10,20  Z  M 12,15  L 14,15  L 14,16  L 12,16  Z  " style="fill:rgb(174, 139, 97); fill-opacity:1.000; stroke:none;" />
 <path d="  M 7,9  L 7,11  L 16,11  L 16,9  Z  " style="fill:rgb(174, 139, 97); fill-opacity:1.000; stroke:none;" />
 <path d="  M 8,6  L 8,7  L 15,7  L 15,6  Z  " style="fill:rgb(174, 139, 97); fill-opacity:1.000; stroke:none;" />
 <path d="  M 15,20  L 14,20  L 14,21  L 15,21  Z  " style="fill:rgb(174, 139, 97); fill-opacity:1.000; stroke:none;" />
 <path d="  M 16,8  L 16,7  L 7,7  L 7,8  Z  " style="fill:rgb(255, 255, 255); fill-opacity:1.000; stroke:none;" />
 <path d="  M 16,9  L 16,8  L 7,8  L 7,9  Z  " style="fill:rgb(26, 110, 213); fill-opacity:1.000; stroke:none;" />
 <path d="  M 10,20  L 11,20  L 11,22  L 14,22  L 14,20  L 15,20  L 15,17  L 10,17  Z  M 11,19  L 11,18  L 14,18  L 14,19  Z  " style="fill:rgb(104, 70, 31); fill-opacity:1.000; stroke:none;" />
</svg>
