<?xml version="1.0" encoding="UTF-8" standalone="no"?>
<!DOCTYPE svg PUBLIC "-//W3C//DTD SVG 1.1//EN" 
  "http://www.w3.org/Graphics/SVG/1.1/DTD/svg11.dtd">
<svg width="24" height="24"
     xmlns="http://www.w3.org/2000/svg" version="1.1">
 <path d="  M 24,0  L 0,0  L 0,24  L 8,24  L 8,19  L 6,19  L 6,18  L 4,18  L 4,17  L 5,17  L 5,11  L 6,11  L 6,8  L 7,8  L 7,6  L 9,6  L 9,5  L 15,5  L 15,6  L 16,6  L 16,7  L 17,7  L 17,8  L 18,8  L 18,15  L 19,15  L 19,17  L 20,17  L 20,18  L 17,18  L 17,19  L 16,19  L 16,20  L 15,20  L 15,21  L 14,21  L 14,22  L 13,22  L 13,24  L 24,24  Z  " style="fill:rgb(0, 0, 0); fill-opacity:0.000; stroke:none;" />
 <path d="  M 10,19  L 10,18  L 9,18  L 9,17  L 8,17  L 8,14  L 7,14  L 7,12  L 8,12  L 8,9  L 9,9  L 9,10  L 11,10  L 11,11  L 12,11  L 12,10  L 13,10  L 13,9  L 14,9  L 14,8  L 15,8  L 15,9  L 16,9  L 16,18  L 15,18  L 15,19  L 17,19  L 17,18  L 20,18  L 20,17  L 19,17  L 19,15  L 18,15  L 18,8  L 17,8  L 17,7  L 16,7  L 16,6  L 15,6  L 15,5  L 9,5  L 9,6  L 7,6  L 7,8  L 6,8  L 6,11  L 5,11  L 5,17  L 4,17  L 4,18  L 6,18  L 6,19  Z  " style="fill:rgb(255, 246, 142); fill-opacity:1.000; stroke:none;" />
 <path d="  M 7,12  L 7,14  L 8,14  L 8,17  L 9,17  L 9,18  L 10,18  L 10,19  L 9,19  L 9,24  L 12,24  L 12,22  L 11,22  L 11,21  L 14,21  L 14,20  L 15,20  L 15,18  L 16,18  L 16,14  L 14,14  L 14,12  L 16,12  L 16,9  L 15,9  L 15,8  L 14,8  L 14,9  L 13,9  L 13,10  L 12,10  L 12,11  L 11,11  L 11,10  L 9,10  L 9,9  L 8,9  L 8,12  Z  M 11,19  L 11,18  L 14,18  L 14,19  Z  M 13,17  L 12,17  L 12,16  L 13,16  Z  M 11,14  L 9,14  L 9,12  L 11,12  Z  M 11,20  L 11,21  L 10,21  L 10,20  Z  " style="fill:rgb(219, 177, 128); fill-opacity:1.000; stroke:none;" />
 <path d="  M 8,24  L 9,24  L 9,19  L 8,19  Z  " style="fill:rgb(0, 0, 0); fill-opacity:1.000; stroke:none;" />
 <path d="  M 10,13  L 9,13  L 9,14  L 10,14  Z  " style="fill:rgb(0, 0, 0); fill-opacity:1.000; stroke:none;" />
 <path d="  M 11,20  L 10,20  L 10,21  L 11,21  Z  " style="fill:rgb(0, 0, 0); fill-opacity:1.000; stroke:none;" />
 <path d="  M 14,21  L 11,21  L 11,22  L 12,22  L 12,24  L 13,24  L 13,22  L 14,22  Z  " style="fill:rgb(0, 0, 0); fill-opacity:1.000; stroke:none;" />
 <path d="  M 13,17  L 13,16  L 12,16  L 12,17  Z  " style="fill:rgb(0, 0, 0); fill-opacity:1.000; stroke:none;" />
 <path d="  M 14,14  L 15,14  L 15,13  L 14,13  Z  " style="fill:rgb(0, 0, 0); fill-opacity:1.000; stroke:none;" />
 <path d="  M 15,20  L 14,20  L 14,21  L 15,21  Z  " style="fill:rgb(0, 0, 0); fill-opacity:1.000; stroke:none;" />
 <path d="  M 15,19  L 15,20  L 16,20  L 16,19  Z  " style="fill:rgb(0, 0, 0); fill-opacity:1.000; stroke:none;" />
 <path d="  M 9,12  L 9,13  L 11,13  L 11,12  Z  " style="fill:rgb(166, 110, 44); fill-opacity:1.000; stroke:none;" />
 <path d="  M 14,12  L 14,13  L 16,13  L 16,12  Z  " style="fill:rgb(166, 110, 44); fill-opacity:1.000; stroke:none;" />
 <path d="  M 10,14  L 11,14  L 11,13  L 10,13  Z  " style="fill:rgb(210, 157, 96); fill-opacity:1.000; stroke:none;" />
 <path d="  M 15,14  L 16,14  L 16,13  L 15,13  Z  " style="fill:rgb(210, 157, 96); fill-opacity:1.000; stroke:none;" />
 <path d="  M 14,18  L 11,18  L 11,19  L 14,19  Z  " style="fill:rgb(113, 16, 16); fill-opacity:1.000; stroke:none;" />
</svg>
