<?xml version="1.0" encoding="UTF-8" standalone="no"?>
<!DOCTYPE svg PUBLIC "-//W3C//DTD SVG 1.1//EN" 
  "http://www.w3.org/Graphics/SVG/1.1/DTD/svg11.dtd">
<svg width="24" height="24"
     xmlns="http://www.w3.org/2000/svg" version="1.1">
 <path d="  M 24,0  L 0,0  L 0,24  L 8,24  L 8,19  L 6,19  L 6,18  L 4,18  L 4,17  L 5,17  L 5,11  L 6,11  L 6,8  L 7,8  L 7,6  L 9,6  L 9,5  L 15,5  L 15,6  L 16,6  L 16,7  L 17,7  L 17,8  L 18,8  L 18,15  L 19,15  L 19,17  L 20,17  L 20,18  L 17,18  L 17,19  L 16,19  L 16,20  L 15,20  L 15,21  L 14,21  L 14,22  L 13,22  L 13,24  L 24,24  Z  " style="fill:rgb(0, 0, 0); fill-opacity:0.000; stroke:none;" />
 <path d="  M 10,19  L 10,18  L 9,18  L 9,17  L 8,17  L 8,16  L 7,16  L 7,15  L 6,15  L 6,13  L 7,13  L 7,12  L 8,12  L 8,9  L 9,9  L 9,10  L 11,10  L 11,11  L 12,11  L 12,10  L 13,10  L 13,9  L 14,9  L 14,8  L 15,8  L 15,9  L 16,9  L 16,11  L 17,11  L 17,12  L 18,12  L 18,8  L 17,8  L 17,7  L 16,7  L 16,6  L 15,6  L 15,5  L 9,5  L 9,6  L 7,6  L 7,8  L 6,8  L 6,11  L 5,11  L 5,17  L 4,17  L 4,18  L 6,18  L 6,19  Z  " style="fill:rgb(255, 246, 142); fill-opacity:1.000; stroke:none;" />
 <path d="  M 17,19  L 17,18  L 20,18  L 20,17  L 19,17  L 19,15  L 18,15  L 18,16  L 17,16  L 17,17  L 16,17  L 16,18  L 15,18  L 15,19  Z  " style="fill:rgb(255, 246, 142); fill-opacity:1.000; stroke:none;" />
 <path d="  M 6,13  L 6,15  L 7,15  L 7,13  Z  " style="fill:rgb(0, 0, 0); fill-opacity:1.000; stroke:none;" />
 <path d="  M 7,13  L 8,13  L 8,12  L 7,12  Z  " style="fill:rgb(0, 0, 0); fill-opacity:1.000; stroke:none;" />
 <path d="  M 7,16  L 8,16  L 8,15  L 7,15  Z  " style="fill:rgb(0, 0, 0); fill-opacity:1.000; stroke:none;" />
 <path d="  M 8,11  L 8,12  L 17,12  L 17,11  Z  " style="fill:rgb(0, 0, 0); fill-opacity:1.000; stroke:none;" />
 <path d="  M 17,17  L 17,16  L 8,16  L 8,17  Z  " style="fill:rgb(0, 0, 0); fill-opacity:1.000; stroke:none;" />
 <path d="  M 8,24  L 9,24  L 9,19  L 8,19  Z  " style="fill:rgb(0, 0, 0); fill-opacity:1.000; stroke:none;" />
 <path d="  M 16,15  L 16,13  L 9,13  L 9,15  Z  " style="fill:rgb(0, 0, 0); fill-opacity:1.000; stroke:none;" />
 <path d="  M 11,20  L 10,20  L 10,21  L 11,21  Z  " style="fill:rgb(0, 0, 0); fill-opacity:1.000; stroke:none;" />
 <path d="  M 14,21  L 11,21  L 11,22  L 12,22  L 12,24  L 13,24  L 13,22  L 14,22  Z  " style="fill:rgb(0, 0, 0); fill-opacity:1.000; stroke:none;" />
 <path d="  M 15,20  L 14,20  L 14,21  L 15,21  Z  " style="fill:rgb(0, 0, 0); fill-opacity:1.000; stroke:none;" />
 <path d="  M 15,19  L 15,20  L 16,20  L 16,19  Z  " style="fill:rgb(0, 0, 0); fill-opacity:1.000; stroke:none;" />
 <path d="  M 17,16  L 18,16  L 18,12  L 17,12  Z  " style="fill:rgb(0, 0, 0); fill-opacity:1.000; stroke:none;" />
 <path d="  M 7,13  L 7,15  L 8,15  L 8,13  Z  " style="fill:rgb(141, 141, 141); fill-opacity:1.000; stroke:none;" />
 <path d="  M 8,13  L 9,13  L 9,12  L 8,12  Z  " style="fill:rgb(141, 141, 141); fill-opacity:1.000; stroke:none;" />
 <path d="  M 9,15  L 8,15  L 8,16  L 9,16  Z  " style="fill:rgb(141, 141, 141); fill-opacity:1.000; stroke:none;" />
 <path d="  M 16,12  L 16,13  L 17,13  L 17,12  Z  " style="fill:rgb(141, 141, 141); fill-opacity:1.000; stroke:none;" />
 <path d="  M 17,15  L 16,15  L 16,16  L 17,16  Z  " style="fill:rgb(141, 141, 141); fill-opacity:1.000; stroke:none;" />
 <path d="  M 9,10  L 9,9  L 8,9  L 8,11  L 11,11  L 11,10  Z  " style="fill:rgb(219, 177, 128); fill-opacity:1.000; stroke:none;" />
 <path d="  M 10,18  L 10,19  L 9,19  L 9,24  L 12,24  L 12,22  L 11,22  L 11,21  L 14,21  L 14,20  L 15,20  L 15,18  L 16,18  L 16,17  L 9,17  L 9,18  Z  M 11,19  L 11,18  L 14,18  L 14,19  Z  M 10,21  L 10,20  L 11,20  L 11,21  Z  " style="fill:rgb(219, 177, 128); fill-opacity:1.000; stroke:none;" />
 <path d="  M 16,9  L 15,9  L 15,8  L 14,8  L 14,9  L 13,9  L 13,10  L 12,10  L 12,11  L 16,11  Z  " style="fill:rgb(219, 177, 128); fill-opacity:1.000; stroke:none;" />
 <path d="  M 8,13  L 8,15  L 9,15  L 9,13  Z  " style="fill:rgb(180, 180, 180); fill-opacity:1.000; stroke:none;" />
 <path d="  M 9,12  L 9,13  L 16,13  L 16,12  Z  " style="fill:rgb(180, 180, 180); fill-opacity:1.000; stroke:none;" />
 <path d="  M 9,15  L 9,16  L 16,16  L 16,15  Z  " style="fill:rgb(180, 180, 180); fill-opacity:1.000; stroke:none;" />
 <path d="  M 16,15  L 17,15  L 17,13  L 16,13  Z  " style="fill:rgb(180, 180, 180); fill-opacity:1.000; stroke:none;" />
 <path d="  M 14,18  L 11,18  L 11,19  L 14,19  Z  " style="fill:rgb(205, 0, 203); fill-opacity:1.000; stroke:none;" />
</svg>
