<?xml version="1.0" encoding="UTF-8" standalone="no"?>
<!DOCTYPE svg PUBLIC "-//W3C//DTD SVG 1.1//EN" 
  "http://www.w3.org/Graphics/SVG/1.1/DTD/svg11.dtd">
<svg width="24" height="24"
     xmlns="http://www.w3.org/2000/svg" version="1.1">
 <path d="  M 24,0  L 0,0  L 0,24  L 6,24  L 6,15  L 5,15  L 5,12  L 6,12  L 6,7  L 7,7  L 7,6  L 8,6  L 8,5  L 15,5  L 15,6  L 16,6  L 16,7  L 17,7  L 17,20  L 16,20  L 16,22  L 15,22  L 15,23  L 11,23  L 11,24  L 24,24  Z  " style="fill:rgb(0, 0, 0); fill-opacity:0.000; stroke:none;" />
 <path d="  M 16,16  L 15,16  L 15,17  L 10,17  L 10,16  L 8,16  L 8,15  L 7,15  L 7,14  L 6,14  L 6,12  L 7,12  L 7,11  L 8,11  L 8,13  L 9,13  L 9,11  L 11,11  L 11,13  L 12,13  L 12,11  L 13,11  L 13,13  L 14,13  L 14,14  L 16,14  Z  M 6,24  L 7,24  L 7,20  L 8,20  L 8,22  L 9,22  L 9,23  L 10,23  L 10,24  L 11,24  L 11,23  L 15,23  L 15,22  L 16,22  L 16,20  L 17,20  L 17,7  L 16,7  L 16,10  L 7,10  L 7,7  L 6,7  L 6,12  L 5,12  L 5,15  L 6,15  Z  M 11,19  L 11,18  L 14,18  L 14,19  Z  M 14,13  L 14,11  L 16,11  L 16,13  Z  " style="fill:rgb(0, 0, 0); fill-opacity:1.000; stroke:none;" />
 <path d="  M 7,7  L 8,7  L 8,6  L 7,6  Z  " style="fill:rgb(0, 0, 0); fill-opacity:1.000; stroke:none;" />
 <path d="  M 8,5  L 8,6  L 15,6  L 15,5  Z  " style="fill:rgb(0, 0, 0); fill-opacity:1.000; stroke:none;" />
 <path d="  M 9,13  L 9,14  L 11,14  L 11,13  Z  " style="fill:rgb(0, 0, 0); fill-opacity:1.000; stroke:none;" />
 <path d="  M 12,15  L 12,16  L 14,16  L 14,15  Z  " style="fill:rgb(0, 0, 0); fill-opacity:1.000; stroke:none;" />
 <path d="  M 15,7  L 16,7  L 16,6  L 15,6  Z  " style="fill:rgb(0, 0, 0); fill-opacity:1.000; stroke:none;" />
 <path d="  M 10,17  L 15,17  L 15,16  L 16,16  L 16,14  L 14,14  L 14,13  L 13,13  L 13,11  L 12,11  L 12,13  L 11,13  L 11,14  L 9,14  L 9,13  L 8,13  L 8,11  L 7,11  L 7,12  L 6,12  L 6,14  L 7,14  L 7,15  L 8,15  L 8,16  L 10,16  Z  M 12,15  L 14,15  L 14,16  L 12,16  Z  " style="fill:rgb(219, 177, 128); fill-opacity:1.000; stroke:none;" />
 <path d="  M 7,9  L 7,10  L 16,10  L 16,9  Z  " style="fill:rgb(219, 177, 128); fill-opacity:1.000; stroke:none;" />
 <path d="  M 7,24  L 10,24  L 10,23  L 9,23  L 9,22  L 8,22  L 8,20  L 7,20  Z  " style="fill:rgb(219, 177, 128); fill-opacity:1.000; stroke:none;" />
 <path d="  M 8,6  L 8,7  L 15,7  L 15,6  Z  " style="fill:rgb(219, 177, 128); fill-opacity:1.000; stroke:none;" />
 <path d="  M 16,8  L 16,7  L 7,7  L 7,8  Z  " style="fill:rgb(255, 255, 255); fill-opacity:1.000; stroke:none;" />
 <path d="  M 16,9  L 16,8  L 7,8  L 7,9  Z  " style="fill:rgb(26, 110, 213); fill-opacity:1.000; stroke:none;" />
 <path d="  M 9,11  L 9,12  L 11,12  L 11,11  Z  " style="fill:rgb(92, 57, 15); fill-opacity:1.000; stroke:none;" />
 <path d="  M 14,11  L 14,12  L 16,12  L 16,11  Z  " style="fill:rgb(92, 57, 15); fill-opacity:1.000; stroke:none;" />
 <path d="  M 9,12  L 9,13  L 11,13  L 11,12  Z  " style="fill:rgb(199, 117, 20); fill-opacity:1.000; stroke:none;" />
 <path d="  M 14,12  L 14,13  L 16,13  L 16,12  Z  " style="fill:rgb(199, 117, 20); fill-opacity:1.000; stroke:none;" />
 <path d="  M 14,18  L 11,18  L 11,19  L 14,19  Z  " style="fill:rgb(105, 47, 8); fill-opacity:1.000; stroke:none;" />
</svg>
