<?xml version="1.0" encoding="UTF-8" standalone="no"?>
<!DOCTYPE svg PUBLIC "-//W3C//DTD SVG 1.1//EN" 
  "http://www.w3.org/Graphics/SVG/1.1/DTD/svg11.dtd">
<svg width="24" height="24"
     xmlns="http://www.w3.org/2000/svg" version="1.1">
 <path d="  M 24,0  L 0,0  L 0,24  L 6,24  L 6,15  L 5,15  L 5,6  L 6,6  L 6,5  L 7,5  L 7,4  L 8,4  L 8,3  L 15,3  L 15,4  L 16,4  L 16,5  L 17,5  L 17,6  L 18,6  L 18,12  L 17,12  L 17,20  L 16,20  L 16,21  L 15,21  L 15,22  L 14,22  L 14,23  L 11,23  L 11,24  L 24,24  Z  " style="fill:rgb(0, 0, 0); fill-opacity:0.000; stroke:none;" />
 <path d="  M 8,3  L 8,4  L 7,4  L 7,5  L 6,5  L 6,6  L 5,6  L 5,15  L 6,15  L 6,24  L 7,24  L 7,14  L 8,14  L 8,11  L 11,11  L 11,12  L 13,12  L 13,11  L 16,11  L 16,20  L 17,20  L 17,12  L 18,12  L 18,6  L 17,6  L 17,5  L 16,5  L 16,4  L 15,4  L 15,3  Z  M 11,9  L 11,10  L 10,10  L 10,9  Z  M 10,5  L 9,5  L 9,4  L 10,4  Z  M 8,5  L 9,5  L 9,6  L 8,6  Z  " style="fill:rgb(0, 0, 0); fill-opacity:1.000; stroke:none;" />
 <path d="  M 11,22  L 11,21  L 10,21  L 10,24  L 11,24  L 11,23  L 14,23  L 14,22  Z  " style="fill:rgb(0, 0, 0); fill-opacity:1.000; stroke:none;" />
 <path d="  M 14,18  L 11,18  L 11,19  L 14,19  Z  " style="fill:rgb(0, 0, 0); fill-opacity:1.000; stroke:none;" />
 <path d="  M 12,15  L 12,16  L 14,16  L 14,15  Z  " style="fill:rgb(0, 0, 0); fill-opacity:1.000; stroke:none;" />
 <path d="  M 14,22  L 15,22  L 15,21  L 14,21  Z  " style="fill:rgb(0, 0, 0); fill-opacity:1.000; stroke:none;" />
 <path d="  M 15,20  L 15,21  L 16,21  L 16,20  Z  " style="fill:rgb(0, 0, 0); fill-opacity:1.000; stroke:none;" />
 <path d="  M 10,17  L 15,17  L 15,20  L 16,20  L 16,14  L 13,14  L 13,12  L 11,12  L 11,14  L 7,14  L 7,24  L 10,24  L 10,21  L 11,21  L 11,20  L 10,20  Z  M 12,15  L 14,15  L 14,16  L 12,16  Z  " style="fill:rgb(219, 177, 128); fill-opacity:1.000; stroke:none;" />
 <path d="  M 10,9  L 10,10  L 11,10  L 11,9  Z  " style="fill:rgb(219, 177, 128); fill-opacity:1.000; stroke:none;" />
 <path d="  M 15,20  L 14,20  L 14,21  L 15,21  Z  " style="fill:rgb(219, 177, 128); fill-opacity:1.000; stroke:none;" />
 <path d="  M 8,5  L 8,6  L 9,6  L 9,5  Z  " style="fill:rgb(42, 42, 42); fill-opacity:1.000; stroke:none;" />
 <path d="  M 9,4  L 9,5  L 10,5  L 10,4  Z  " style="fill:rgb(42, 42, 42); fill-opacity:1.000; stroke:none;" />
 <path d="  M 9,13  L 9,11  L 8,11  L 8,14  L 11,14  L 11,13  Z  " style="fill:rgb(212, 200, 184); fill-opacity:1.000; stroke:none;" />
 <path d="  M 16,14  L 16,13  L 14,13  L 14,11  L 13,11  L 13,14  Z  " style="fill:rgb(212, 200, 184); fill-opacity:1.000; stroke:none;" />
 <path d="  M 9,11  L 9,12  L 11,12  L 11,11  Z  " style="fill:rgb(182, 163, 137); fill-opacity:1.000; stroke:none;" />
 <path d="  M 14,11  L 14,12  L 16,12  L 16,11  Z  " style="fill:rgb(182, 163, 137); fill-opacity:1.000; stroke:none;" />
 <path d="  M 10,12  L 9,12  L 9,13  L 10,13  Z  " style="fill:rgb(89, 101, 112); fill-opacity:1.000; stroke:none;" />
 <path d="  M 15,13  L 15,12  L 14,12  L 14,13  Z  " style="fill:rgb(89, 101, 112); fill-opacity:1.000; stroke:none;" />
 <path d="  M 11,13  L 11,12  L 10,12  L 10,13  Z  " style="fill:rgb(207, 189, 166); fill-opacity:1.000; stroke:none;" />
 <path d="  M 15,12  L 15,13  L 16,13  L 16,12  Z  " style="fill:rgb(207, 189, 166); fill-opacity:1.000; stroke:none;" />
 <path d="  M 10,20  L 11,20  L 11,22  L 14,22  L 14,20  L 15,20  L 15,17  L 10,17  Z  M 11,19  L 11,18  L 14,18  L 14,19  Z  " style="fill:rgb(166, 110, 44); fill-opacity:1.000; stroke:none;" />
</svg>
