<?xml version="1.0" encoding="UTF-8" standalone="no"?>
<!DOCTYPE svg PUBLIC "-//W3C//DTD SVG 1.1//EN" 
  "http://www.w3.org/Graphics/SVG/1.1/DTD/svg11.dtd">
<svg width="24" height="24"
     xmlns="http://www.w3.org/2000/svg" version="1.1">
 <path d="  M 24,0  L 0,0  L 0,24  L 6,24  L 6,15  L 5,15  L 5,12  L 6,12  L 6,7  L 7,7  L 7,6  L 8,6  L 8,5  L 15,5  L 15,6  L 16,6  L 16,7  L 17,7  L 17,9  L 18,9  L 18,13  L 17,13  L 17,20  L 16,20  L 16,21  L 15,21  L 15,22  L 11,22  L 11,24  L 24,24  Z  " style="fill:rgb(0, 0, 0); fill-opacity:0.000; stroke:none;" />
 <path d="  M 6,24  L 7,24  L 7,18  L 8,18  L 8,16  L 7,16  L 7,14  L 6,14  L 6,12  L 5,12  L 5,15  L 6,15  Z  " style="fill:rgb(0, 0, 0); fill-opacity:1.000; stroke:none;" />
 <path d="  M 14,8  L 14,7  L 15,7  L 15,8  L 16,8  L 16,9  L 13,9  L 13,8  Z  M 7,12  L 7,13  L 8,13  L 8,10  L 11,10  L 11,13  L 12,13  L 12,11  L 13,11  L 13,13  L 14,13  L 14,10  L 17,10  L 17,13  L 18,13  L 18,9  L 17,9  L 17,7  L 16,7  L 16,6  L 15,6  L 15,5  L 8,5  L 8,6  L 7,6  L 7,7  L 6,7  L 6,12  Z  M 8,8  L 9,8  L 9,7  L 11,7  L 11,8  L 12,8  L 12,9  L 8,9  Z  " style="fill:rgb(0, 0, 0); fill-opacity:1.000; stroke:none;" />
 <path d="  M 11,14  L 11,13  L 8,13  L 8,14  Z  " style="fill:rgb(0, 0, 0); fill-opacity:1.000; stroke:none;" />
 <path d="  M 15,22  L 15,21  L 10,21  L 10,24  L 11,24  L 11,22  Z  " style="fill:rgb(0, 0, 0); fill-opacity:1.000; stroke:none;" />
 <path d="  M 16,20  L 17,20  L 17,13  L 14,13  L 14,14  L 16,14  Z  " style="fill:rgb(0, 0, 0); fill-opacity:1.000; stroke:none;" />
 <path d="  M 15,20  L 15,21  L 16,21  L 16,20  Z  " style="fill:rgb(0, 0, 0); fill-opacity:1.000; stroke:none;" />
 <path d="  M 6,13  L 7,13  L 7,12  L 6,12  Z  " style="fill:rgb(201, 201, 201); fill-opacity:1.000; stroke:none;" />
 <path d="  M 7,13  L 7,14  L 8,14  L 8,13  Z  " style="fill:rgb(201, 201, 201); fill-opacity:1.000; stroke:none;" />
 <path d="  M 7,19  L 9,19  L 9,20  L 10,20  L 10,21  L 14,21  L 14,20  L 15,20  L 15,19  L 16,19  L 16,18  L 14,18  L 14,17  L 15,17  L 15,15  L 13,15  L 13,16  L 12,16  L 12,15  L 9,15  L 9,17  L 10,17  L 10,18  L 7,18  Z  " style="fill:rgb(201, 201, 201); fill-opacity:1.000; stroke:none;" />
 <path d="  M 8,14  L 8,15  L 9,15  L 9,14  Z  " style="fill:rgb(201, 201, 201); fill-opacity:1.000; stroke:none;" />
 <path d="  M 15,14  L 15,15  L 16,15  L 16,14  Z  " style="fill:rgb(201, 201, 201); fill-opacity:1.000; stroke:none;" />
 <path d="  M 6,13  L 6,14  L 7,14  L 7,13  Z  " style="fill:rgb(125, 162, 105); fill-opacity:1.000; stroke:none;" />
 <path d="  M 8,18  L 9,18  L 9,15  L 8,15  L 8,14  L 7,14  L 7,16  L 8,16  Z  " style="fill:rgb(125, 162, 105); fill-opacity:1.000; stroke:none;" />
 <path d="  M 7,24  L 10,24  L 10,20  L 9,20  L 9,19  L 7,19  Z  " style="fill:rgb(125, 162, 105); fill-opacity:1.000; stroke:none;" />
 <path d="  M 12,9  L 12,8  L 11,8  L 11,7  L 10,7  L 10,8  L 9,8  L 9,9  Z  " style="fill:rgb(125, 162, 105); fill-opacity:1.000; stroke:none;" />
 <path d="  M 15,15  L 15,14  L 14,14  L 14,13  L 13,13  L 13,11  L 12,11  L 12,13  L 11,13  L 11,14  L 9,14  L 9,15  Z  " style="fill:rgb(125, 162, 105); fill-opacity:1.000; stroke:none;" />
 <path d="  M 16,9  L 16,8  L 15,8  L 15,7  L 14,7  L 14,8  L 13,8  L 13,9  Z  " style="fill:rgb(125, 162, 105); fill-opacity:1.000; stroke:none;" />
 <path d="  M 15,20  L 14,20  L 14,21  L 15,21  Z  " style="fill:rgb(125, 162, 105); fill-opacity:1.000; stroke:none;" />
 <path d="  M 16,18  L 16,15  L 15,15  L 15,18  Z  " style="fill:rgb(125, 162, 105); fill-opacity:1.000; stroke:none;" />
 <path d="  M 15,19  L 15,20  L 16,20  L 16,19  Z  " style="fill:rgb(125, 162, 105); fill-opacity:1.000; stroke:none;" />
 <path d="  M 9,8  L 8,8  L 8,9  L 9,9  Z  " style="fill:rgb(155, 188, 136); fill-opacity:1.000; stroke:none;" />
 <path d="  M 9,7  L 9,8  L 10,8  L 10,7  Z  " style="fill:rgb(155, 188, 136); fill-opacity:1.000; stroke:none;" />
 <path d="  M 8,10  L 8,11  L 11,11  L 11,10  Z  " style="fill:rgb(105, 12, 69); fill-opacity:1.000; stroke:none;" />
 <path d="  M 17,10  L 14,10  L 14,11  L 17,11  Z  " style="fill:rgb(105, 12, 69); fill-opacity:1.000; stroke:none;" />
 <path d="  M 11,12  L 11,11  L 8,11  L 8,12  Z  " style="fill:rgb(140, 13, 91); fill-opacity:1.000; stroke:none;" />
 <path d="  M 14,11  L 14,12  L 17,12  L 17,11  Z  " style="fill:rgb(140, 13, 91); fill-opacity:1.000; stroke:none;" />
 <path d="  M 8,12  L 8,13  L 11,13  L 11,12  Z  " style="fill:rgb(173, 33, 96); fill-opacity:1.000; stroke:none;" />
 <path d="  M 14,12  L 14,13  L 17,13  L 17,12  Z  " style="fill:rgb(173, 33, 96); fill-opacity:1.000; stroke:none;" />
 <path d="  M 9,18  L 10,18  L 10,17  L 9,17  Z  " style="fill:rgb(177, 177, 177); fill-opacity:1.000; stroke:none;" />
 <path d="  M 12,16  L 13,16  L 13,15  L 12,15  Z  " style="fill:rgb(177, 177, 177); fill-opacity:1.000; stroke:none;" />
 <path d="  M 15,18  L 15,17  L 14,17  L 14,18  Z  " style="fill:rgb(177, 177, 177); fill-opacity:1.000; stroke:none;" />
</svg>
