<?xml version="1.0" encoding="UTF-8" standalone="no"?>
<!DOCTYPE svg PUBLIC "-//W3C//DTD SVG 1.1//EN" 
  "http://www.w3.org/Graphics/SVG/1.1/DTD/svg11.dtd">
<svg width="24" height="24"
     xmlns="http://www.w3.org/2000/svg" version="1.1">
 <path d="  M 24,0  L 0,0  L 0,24  L 8,24  L 8,19  L 7,19  L 7,15  L 6,15  L 6,12  L 7,12  L 7,10  L 5,10  L 5,9  L 6,9  L 6,8  L 5,8  L 5,7  L 6,7  L 6,6  L 7,6  L 7,5  L 8,5  L 8,4  L 14,4  L 14,5  L 15,5  L 15,4  L 16,4  L 16,6  L 18,6  L 18,7  L 17,7  L 17,9  L 18,9  L 18,10  L 17,10  L 17,19  L 16,19  L 16,20  L 15,20  L 15,21  L 14,21  L 14,22  L 13,22  L 13,24  L 24,24  Z  " style="fill:rgb(0, 0, 0); fill-opacity:0.000; stroke:none;" />
 <path d="  M 16,6  L 16,4  L 15,4  L 15,5  L 14,5  L 14,4  L 8,4  L 8,5  L 7,5  L 7,6  L 6,6  L 6,7  L 5,7  L 5,8  L 6,8  L 6,9  L 5,9  L 5,10  L 7,10  L 7,12  L 8,12  L 8,14  L 9,14  L 9,12  L 11,12  L 11,14  L 12,14  L 12,12  L 13,12  L 13,14  L 14,14  L 14,15  L 16,15  L 16,19  L 17,19  L 17,10  L 18,10  L 18,9  L 17,9  L 17,7  L 18,7  L 18,6  Z  M 9,11  L 9,10  L 10,10  L 10,9  L 12,9  L 12,11  Z  M 14,12  L 16,12  L 16,14  L 14,14  Z  M 13,11  L 13,8  L 14,8  L 14,9  L 15,9  L 15,10  L 16,10  L 16,11  Z  M 9,10  L 8,10  L 8,9  L 9,9  Z  " style="fill:rgb(0, 0, 0); fill-opacity:1.000; stroke:none;" />
 <path d="  M 7,12  L 6,12  L 6,15  L 7,15  L 7,19  L 8,19  L 8,14  L 7,14  Z  " style="fill:rgb(0, 0, 0); fill-opacity:1.000; stroke:none;" />
 <path d="  M 8,24  L 9,24  L 9,19  L 8,19  Z  " style="fill:rgb(0, 0, 0); fill-opacity:1.000; stroke:none;" />
 <path d="  M 9,14  L 9,15  L 11,15  L 11,14  Z  " style="fill:rgb(0, 0, 0); fill-opacity:1.000; stroke:none;" />
 <path d="  M 11,20  L 10,20  L 10,21  L 11,21  Z  " style="fill:rgb(0, 0, 0); fill-opacity:1.000; stroke:none;" />
 <path d="  M 14,21  L 11,21  L 11,22  L 12,22  L 12,24  L 13,24  L 13,22  L 14,22  Z  " style="fill:rgb(0, 0, 0); fill-opacity:1.000; stroke:none;" />
 <path d="  M 13,17  L 13,16  L 12,16  L 12,17  Z  " style="fill:rgb(0, 0, 0); fill-opacity:1.000; stroke:none;" />
 <path d="  M 15,20  L 14,20  L 14,21  L 15,21  Z  " style="fill:rgb(0, 0, 0); fill-opacity:1.000; stroke:none;" />
 <path d="  M 15,19  L 15,20  L 16,20  L 16,19  Z  " style="fill:rgb(0, 0, 0); fill-opacity:1.000; stroke:none;" />
 <path d="  M 8,12  L 7,12  L 7,14  L 8,14  Z  " style="fill:rgb(219, 177, 128); fill-opacity:1.000; stroke:none;" />
 <path d="  M 9,10  L 9,9  L 8,9  L 8,10  Z  " style="fill:rgb(219, 177, 128); fill-opacity:1.000; stroke:none;" />
 <path d="  M 14,21  L 14,20  L 15,20  L 15,19  L 16,19  L 16,15  L 14,15  L 14,14  L 13,14  L 13,12  L 12,12  L 12,14  L 11,14  L 11,15  L 9,15  L 9,14  L 8,14  L 8,19  L 9,19  L 9,24  L 12,24  L 12,22  L 11,22  L 11,21  Z  M 11,19  L 11,18  L 14,18  L 14,19  Z  M 13,17  L 12,17  L 12,16  L 13,16  Z  M 10,21  L 10,20  L 11,20  L 11,21  Z  " style="fill:rgb(219, 177, 128); fill-opacity:1.000; stroke:none;" />
 <path d="  M 10,9  L 10,10  L 9,10  L 9,11  L 12,11  L 12,9  Z  " style="fill:rgb(219, 177, 128); fill-opacity:1.000; stroke:none;" />
 <path d="  M 16,11  L 16,10  L 15,10  L 15,9  L 14,9  L 14,8  L 13,8  L 13,11  Z  " style="fill:rgb(219, 177, 128); fill-opacity:1.000; stroke:none;" />
 <path d="  M 9,12  L 9,13  L 11,13  L 11,12  Z  " style="fill:rgb(92, 57, 15); fill-opacity:1.000; stroke:none;" />
 <path d="  M 14,12  L 14,13  L 16,13  L 16,12  Z  " style="fill:rgb(92, 57, 15); fill-opacity:1.000; stroke:none;" />
 <path d="  M 9,13  L 9,14  L 11,14  L 11,13  Z  " style="fill:rgb(199, 117, 20); fill-opacity:1.000; stroke:none;" />
 <path d="  M 16,14  L 16,13  L 14,13  L 14,14  Z  " style="fill:rgb(199, 117, 20); fill-opacity:1.000; stroke:none;" />
 <path d="  M 14,18  L 11,18  L 11,19  L 14,19  Z  " style="fill:rgb(113, 16, 16); fill-opacity:1.000; stroke:none;" />
</svg>
