<?xml version="1.0" encoding="UTF-8" standalone="no"?>
<!DOCTYPE svg PUBLIC "-//W3C//DTD SVG 1.1//EN" 
  "http://www.w3.org/Graphics/SVG/1.1/DTD/svg11.dtd">
<svg width="24" height="24"
     xmlns="http://www.w3.org/2000/svg" version="1.1">
 <path d="  M 24,0  L 0,0  L 0,24  L 8,24  L 8,19  L 7,19  L 7,15  L 6,15  L 6,12  L 7,12  L 7,7  L 8,7  L 8,6  L 9,6  L 9,5  L 16,5  L 16,6  L 17,6  L 17,8  L 20,8  L 20,9  L 21,9  L 21,10  L 17,10  L 17,17  L 21,17  L 21,20  L 15,20  L 15,21  L 14,21  L 14,22  L 13,22  L 13,24  L 24,24  Z  " style="fill:rgb(0, 0, 0); fill-opacity:0.000; stroke:none;" />
 <path d="  M 7,12  L 6,12  L 6,15  L 7,15  L 7,19  L 8,19  L 8,14  L 7,14  Z  " style="fill:rgb(0, 0, 0); fill-opacity:1.000; stroke:none;" />
 <path d="  M 7,12  L 8,12  L 8,10  L 7,10  Z  " style="fill:rgb(0, 0, 0); fill-opacity:1.000; stroke:none;" />
 <path d="  M 8,24  L 9,24  L 9,19  L 8,19  Z  " style="fill:rgb(0, 0, 0); fill-opacity:1.000; stroke:none;" />
 <path d="  M 10,13  L 9,13  L 9,14  L 10,14  Z  " style="fill:rgb(0, 0, 0); fill-opacity:1.000; stroke:none;" />
 <path d="  M 11,20  L 10,20  L 10,21  L 11,21  Z  " style="fill:rgb(0, 0, 0); fill-opacity:1.000; stroke:none;" />
 <path d="  M 14,21  L 11,21  L 11,22  L 12,22  L 12,24  L 13,24  L 13,22  L 14,22  Z  " style="fill:rgb(0, 0, 0); fill-opacity:1.000; stroke:none;" />
 <path d="  M 13,17  L 13,16  L 12,16  L 12,17  Z  " style="fill:rgb(0, 0, 0); fill-opacity:1.000; stroke:none;" />
 <path d="  M 14,18  L 13,18  L 13,19  L 14,19  Z  " style="fill:rgb(0, 0, 0); fill-opacity:1.000; stroke:none;" />
 <path d="  M 14,14  L 15,14  L 15,13  L 14,13  Z  " style="fill:rgb(0, 0, 0); fill-opacity:1.000; stroke:none;" />
 <path d="  M 14,19  L 14,21  L 15,21  L 15,20  L 21,20  L 21,17  L 17,17  L 17,10  L 16,10  L 16,17  L 14,17  L 14,18  L 20,18  L 20,19  Z  " style="fill:rgb(0, 0, 0); fill-opacity:1.000; stroke:none;" />
 <path d="  M 21,10  L 21,9  L 20,9  L 20,8  L 17,8  L 17,6  L 16,6  L 16,5  L 9,5  L 9,6  L 8,6  L 8,7  L 7,7  L 7,10  Z  M 15,6  L 15,7  L 14,7  L 14,6  Z  M 16,7  L 16,8  L 15,8  L 15,7  Z  " style="fill:rgb(129, 25, 183); fill-opacity:1.000; stroke:none;" />
 <path d="  M 7,12  L 7,14  L 8,14  L 8,19  L 9,19  L 9,24  L 12,24  L 12,22  L 11,22  L 11,21  L 14,21  L 14,19  L 11,19  L 11,18  L 14,18  L 14,17  L 16,17  L 16,14  L 14,14  L 14,12  L 16,12  L 16,10  L 8,10  L 8,12  Z  M 11,12  L 11,14  L 9,14  L 9,12  Z  M 13,17  L 12,17  L 12,16  L 13,16  Z  M 10,21  L 10,20  L 11,20  L 11,21  Z  " style="fill:rgb(113, 63, 29); fill-opacity:1.000; stroke:none;" />
 <path d="  M 9,12  L 9,13  L 11,13  L 11,12  Z  " style="fill:rgb(86, 38, 0); fill-opacity:1.000; stroke:none;" />
 <path d="  M 14,12  L 14,13  L 16,13  L 16,12  Z  " style="fill:rgb(86, 38, 0); fill-opacity:1.000; stroke:none;" />
 <path d="  M 10,14  L 11,14  L 11,13  L 10,13  Z  " style="fill:rgb(114, 55, 9); fill-opacity:1.000; stroke:none;" />
 <path d="  M 15,14  L 16,14  L 16,13  L 15,13  Z  " style="fill:rgb(114, 55, 9); fill-opacity:1.000; stroke:none;" />
 <path d="  M 11,18  L 11,19  L 13,19  L 13,18  Z  " style="fill:rgb(205, 0, 203); fill-opacity:1.000; stroke:none;" />
 <path d="  M 15,6  L 14,6  L 14,7  L 15,7  Z  " style="fill:rgb(178, 97, 220); fill-opacity:1.000; stroke:none;" />
 <path d="  M 15,7  L 15,8  L 16,8  L 16,7  Z  " style="fill:rgb(178, 97, 220); fill-opacity:1.000; stroke:none;" />
 <path d="  M 14,18  L 14,19  L 19,19  L 19,18  Z  " style="fill:rgb(89, 89, 89); fill-opacity:1.000; stroke:none;" />
 <path d="  M 19,19  L 20,19  L 20,18  L 19,18  Z  " style="fill:rgb(0, 64, 255); fill-opacity:1.000; stroke:none;" />
</svg>
