<?xml version="1.0" encoding="UTF-8" standalone="no"?>
<!DOCTYPE svg PUBLIC "-//W3C//DTD SVG 1.1//EN" 
  "http://www.w3.org/Graphics/SVG/1.1/DTD/svg11.dtd">
<svg width="24" height="24"
     xmlns="http://www.w3.org/2000/svg" version="1.1">
 <path d="  M 20,9  L 17,9  L 17,20  L 16,20  L 16,21  L 15,21  L 15,22  L 11,22  L 11,24  L 24,24  L 24,0  L 0,0  L 0,24  L 6,24  L 6,15  L 5,15  L 5,13  L 4,13  L 4,12  L 5,12  L 5,11  L 6,11  L 6,6  L 7,6  L 7,5  L 8,5  L 8,4  L 15,4  L 15,5  L 16,5  L 16,7  L 19,7  L 19,8  L 20,8  Z  " style="fill:rgb(0, 0, 0); fill-opacity:0.000; stroke:none;" />
 <path d="  M 4,13  L 5,13  L 5,12  L 4,12  Z  " style="fill:rgb(0, 0, 0); fill-opacity:1.000; stroke:none;" />
 <path d="  M 7,12  L 7,9  L 6,9  L 6,11  L 5,11  L 5,12  Z  " style="fill:rgb(0, 0, 0); fill-opacity:1.000; stroke:none;" />
 <path d="  M 6,24  L 7,24  L 7,14  L 6,14  L 6,13  L 5,13  L 5,15  L 6,15  Z  " style="fill:rgb(0, 0, 0); fill-opacity:1.000; stroke:none;" />
 <path d="  M 10,12  L 9,12  L 9,13  L 10,13  Z  " style="fill:rgb(0, 0, 0); fill-opacity:1.000; stroke:none;" />
 <path d="  M 11,12  L 11,11  L 10,11  L 10,12  Z  " style="fill:rgb(0, 0, 0); fill-opacity:1.000; stroke:none;" />
 <path d="  M 10,18  L 10,19  L 15,19  L 15,18  Z  " style="fill:rgb(0, 0, 0); fill-opacity:1.000; stroke:none;" />
 <path d="  M 15,22  L 15,21  L 10,21  L 10,24  L 11,24  L 11,22  Z  " style="fill:rgb(0, 0, 0); fill-opacity:1.000; stroke:none;" />
 <path d="  M 15,13  L 15,12  L 14,12  L 14,13  Z  " style="fill:rgb(0, 0, 0); fill-opacity:1.000; stroke:none;" />
 <path d="  M 16,20  L 17,20  L 17,9  L 16,9  L 16,11  L 15,11  L 15,12  L 16,12  Z  " style="fill:rgb(0, 0, 0); fill-opacity:1.000; stroke:none;" />
 <path d="  M 15,20  L 15,21  L 16,21  L 16,20  Z  " style="fill:rgb(0, 0, 0); fill-opacity:1.000; stroke:none;" />
 <path d="  M 5,12  L 5,13  L 6,13  L 6,12  Z  " style="fill:rgb(200, 251, 251); fill-opacity:1.000; stroke:none;" />
 <path d="  M 7,13  L 6,13  L 6,14  L 7,14  L 7,24  L 10,24  L 10,21  L 15,21  L 15,20  L 16,20  L 16,13  L 14,13  L 14,11  L 16,11  L 16,9  L 7,9  Z  M 15,18  L 15,19  L 10,19  L 10,18  Z  M 13,17  L 12,17  L 12,14  L 13,14  Z  M 9,11  L 11,11  L 11,13  L 9,13  Z  " style="fill:rgb(200, 251, 251); fill-opacity:1.000; stroke:none;" />
 <path d="  M 20,9  L 20,8  L 19,8  L 19,7  L 16,7  L 16,5  L 15,5  L 15,4  L 8,4  L 8,5  L 7,5  L 7,6  L 6,6  L 6,9  Z  M 14,6  L 13,6  L 13,5  L 14,5  Z  M 15,6  L 15,7  L 14,7  L 14,6  Z  " style="fill:rgb(129, 25, 183); fill-opacity:1.000; stroke:none;" />
 <path d="  M 6,13  L 7,13  L 7,12  L 6,12  Z  " style="fill:rgb(155, 224, 224); fill-opacity:1.000; stroke:none;" />
 <path d="  M 11,13  L 11,12  L 10,12  L 10,13  Z  " style="fill:rgb(155, 224, 224); fill-opacity:1.000; stroke:none;" />
 <path d="  M 13,17  L 13,14  L 12,14  L 12,17  Z  " style="fill:rgb(155, 224, 224); fill-opacity:1.000; stroke:none;" />
 <path d="  M 15,12  L 15,13  L 16,13  L 16,12  Z  " style="fill:rgb(155, 224, 224); fill-opacity:1.000; stroke:none;" />
 <path d="  M 10,12  L 10,11  L 9,11  L 9,12  Z  " style="fill:rgb(117, 189, 189); fill-opacity:1.000; stroke:none;" />
 <path d="  M 15,11  L 14,11  L 14,12  L 15,12  Z  " style="fill:rgb(117, 189, 189); fill-opacity:1.000; stroke:none;" />
 <path d="  M 13,5  L 13,6  L 14,6  L 14,5  Z  " style="fill:rgb(178, 97, 220); fill-opacity:1.000; stroke:none;" />
 <path d="  M 15,6  L 14,6  L 14,7  L 15,7  Z  " style="fill:rgb(178, 97, 220); fill-opacity:1.000; stroke:none;" />
</svg>
