<?xml version="1.0" encoding="UTF-8" standalone="no"?>
<!DOCTYPE svg PUBLIC "-//W3C//DTD SVG 1.1//EN" 
  "http://www.w3.org/Graphics/SVG/1.1/DTD/svg11.dtd">
<svg width="24" height="24"
     xmlns="http://www.w3.org/2000/svg" version="1.1">
 <path d="  M 24,0  L 0,0  L 0,24  L 6,24  L 6,16  L 5,16  L 5,15  L 3,15  L 3,14  L 4,14  L 4,12  L 3,12  L 3,10  L 4,10  L 4,8  L 2,8  L 2,6  L 3,6  L 3,7  L 5,7  L 5,6  L 4,6  L 4,5  L 6,5  L 6,3  L 7,3  L 7,2  L 8,2  L 8,3  L 9,3  L 9,4  L 10,4  L 10,3  L 12,3  L 12,2  L 13,2  L 13,3  L 14,3  L 14,4  L 16,4  L 16,3  L 17,3  L 17,5  L 18,5  L 18,6  L 20,6  L 20,7  L 19,7  L 19,8  L 17,8  L 17,9  L 18,9  L 18,13  L 17,13  L 17,21  L 18,21  L 18,19  L 23,19  L 23,22  L 22,22  L 22,23  L 21,23  L 21,24  L 24,24  Z  M 21,11  L 21,12  L 22,12  L 22,14  L 19,14  L 19,12  L 20,12  L 20,11  Z  M 20,15  L 21,15  L 21,16  L 20,16  Z  M 20,18  L 20,17  L 21,17  L 21,18  Z  " style="fill:rgb(0, 0, 0); fill-opacity:0.000; stroke:none;" />
 <path d="  M 17,24  L 17,23  L 16,23  L 16,22  L 11,22  L 11,24  Z  " style="fill:rgb(0, 0, 0); fill-opacity:0.000; stroke:none;" />
 <path d="  M 13,4  L 13,5  L 14,5  L 14,4  Z  " style="fill:rgb(0, 0, 0); fill-opacity:0.000; stroke:none;" />
 <path d="  M 10,3  L 10,4  L 9,4  L 9,3  L 8,3  L 8,2  L 7,2  L 7,3  L 6,3  L 6,5  L 4,5  L 4,6  L 5,6  L 5,7  L 3,7  L 3,6  L 2,6  L 2,8  L 4,8  L 4,10  L 3,10  L 3,12  L 4,12  L 4,14  L 5,14  L 5,11  L 6,11  L 6,9  L 10,9  L 10,8  L 12,8  L 12,9  L 13,9  L 13,8  L 14,8  L 14,9  L 15,9  L 15,8  L 16,8  L 16,9  L 17,9  L 17,8  L 19,8  L 19,7  L 20,7  L 20,6  L 18,6  L 18,5  L 17,5  L 17,3  L 16,3  L 16,4  L 14,4  L 14,3  L 13,3  L 13,2  L 12,2  L 12,3  Z  M 14,4  L 14,5  L 13,5  L 13,4  Z  " style="fill:rgb(226, 38, 38); fill-opacity:1.000; stroke:none;" />
 <path d="  M 3,15  L 4,15  L 4,14  L 3,14  Z  " style="fill:rgb(226, 38, 38); fill-opacity:1.000; stroke:none;" />
 <path d="  M 5,15  L 5,14  L 4,14  L 4,15  Z  " style="fill:rgb(0, 0, 0); fill-opacity:1.000; stroke:none;" />
 <path d="  M 7,12  L 7,13  L 8,13  L 8,10  L 11,10  L 11,13  L 12,13  L 12,11  L 13,11  L 13,13  L 14,13  L 14,10  L 17,10  L 17,13  L 18,13  L 18,9  L 13,9  L 13,10  L 12,10  L 12,9  L 6,9  L 6,11  L 5,11  L 5,14  L 6,14  L 6,12  Z  " style="fill:rgb(0, 0, 0); fill-opacity:1.000; stroke:none;" />
 <path d="  M 6,24  L 7,24  L 7,14  L 6,14  L 6,15  L 5,15  L 5,16  L 6,16  Z  " style="fill:rgb(0, 0, 0); fill-opacity:1.000; stroke:none;" />
 <path d="  M 11,14  L 11,13  L 8,13  L 8,14  Z  " style="fill:rgb(0, 0, 0); fill-opacity:1.000; stroke:none;" />
 <path d="  M 16,22  L 16,21  L 15,21  L 15,20  L 14,20  L 14,21  L 10,21  L 10,24  L 11,24  L 11,22  Z  " style="fill:rgb(0, 0, 0); fill-opacity:1.000; stroke:none;" />
 <path d="  M 11,18  L 11,19  L 13,19  L 13,20  L 14,20  L 14,19  L 15,19  L 15,18  Z  " style="fill:rgb(0, 0, 0); fill-opacity:1.000; stroke:none;" />
 <path d="  M 12,15  L 12,16  L 14,16  L 14,15  Z  " style="fill:rgb(0, 0, 0); fill-opacity:1.000; stroke:none;" />
 <path d="  M 16,19  L 15,19  L 15,20  L 16,20  L 16,21  L 17,21  L 17,13  L 14,13  L 14,14  L 16,14  Z  " style="fill:rgb(0, 0, 0); fill-opacity:1.000; stroke:none;" />
 <path d="  M 17,22  L 16,22  L 16,23  L 17,23  Z  " style="fill:rgb(0, 0, 0); fill-opacity:1.000; stroke:none;" />
 <path d="  M 19,20  L 22,20  L 22,22  L 23,22  L 23,19  L 18,19  L 18,21  L 17,21  L 17,22  L 19,22  Z  " style="fill:rgb(0, 0, 0); fill-opacity:1.000; stroke:none;" />
 <path d="  M 21,24  L 21,23  L 17,23  L 17,24  Z  " style="fill:rgb(0, 0, 0); fill-opacity:1.000; stroke:none;" />
 <path d="  M 22,22  L 21,22  L 21,23  L 22,23  Z  " style="fill:rgb(0, 0, 0); fill-opacity:1.000; stroke:none;" />
 <path d="  M 6,15  L 6,14  L 5,14  L 5,15  Z  " style="fill:rgb(255, 217, 38); fill-opacity:1.000; stroke:none;" />
 <path d="  M 6,14  L 7,14  L 7,24  L 10,24  L 10,21  L 14,21  L 14,20  L 13,20  L 13,19  L 11,19  L 11,18  L 15,18  L 15,19  L 16,19  L 16,14  L 14,14  L 14,13  L 13,13  L 13,11  L 12,11  L 12,13  L 11,13  L 11,14  L 8,14  L 8,13  L 7,13  L 7,12  L 6,12  Z  M 12,15  L 14,15  L 14,16  L 12,16  Z  " style="fill:rgb(174, 139, 97); fill-opacity:1.000; stroke:none;" />
 <path d="  M 10,9  L 12,9  L 12,8  L 10,8  Z  " style="fill:rgb(174, 139, 97); fill-opacity:1.000; stroke:none;" />
 <path d="  M 13,9  L 12,9  L 12,10  L 13,10  Z  " style="fill:rgb(174, 139, 97); fill-opacity:1.000; stroke:none;" />
 <path d="  M 14,9  L 14,8  L 13,8  L 13,9  Z  " style="fill:rgb(174, 139, 97); fill-opacity:1.000; stroke:none;" />
 <path d="  M 16,8  L 15,8  L 15,9  L 16,9  Z  " style="fill:rgb(174, 139, 97); fill-opacity:1.000; stroke:none;" />
 <path d="  M 8,10  L 8,11  L 11,11  L 11,10  Z  " style="fill:rgb(105, 12, 69); fill-opacity:1.000; stroke:none;" />
 <path d="  M 17,10  L 14,10  L 14,11  L 17,11  Z  " style="fill:rgb(105, 12, 69); fill-opacity:1.000; stroke:none;" />
 <path d="  M 11,12  L 11,11  L 8,11  L 8,12  Z  " style="fill:rgb(140, 13, 91); fill-opacity:1.000; stroke:none;" />
 <path d="  M 14,11  L 14,12  L 17,12  L 17,11  Z  " style="fill:rgb(140, 13, 91); fill-opacity:1.000; stroke:none;" />
 <path d="  M 8,12  L 8,13  L 11,13  L 11,12  Z  " style="fill:rgb(173, 33, 96); fill-opacity:1.000; stroke:none;" />
 <path d="  M 14,12  L 14,13  L 17,13  L 17,12  Z  " style="fill:rgb(173, 33, 96); fill-opacity:1.000; stroke:none;" />
 <path d="  M 15,19  L 14,19  L 14,20  L 15,20  Z  " style="fill:rgb(133, 81, 20); fill-opacity:1.000; stroke:none;" />
 <path d="  M 15,20  L 15,21  L 16,21  L 16,20  Z  " style="fill:rgb(133, 81, 20); fill-opacity:1.000; stroke:none;" />
 <path d="  M 17,22  L 17,21  L 16,21  L 16,22  Z  " style="fill:rgb(133, 81, 20); fill-opacity:1.000; stroke:none;" />
 <path d="  M 20,23  L 20,22  L 17,22  L 17,23  Z  " style="fill:rgb(133, 81, 20); fill-opacity:1.000; stroke:none;" />
 <path d="  M 20,21  L 20,22  L 21,22  L 21,21  L 22,21  L 22,20  L 19,20  L 19,21  Z  " style="fill:rgb(133, 81, 20); fill-opacity:1.000; stroke:none;" />
 <path d="  M 20,12  L 19,12  L 19,14  L 22,14  L 22,12  L 21,12  L 21,11  L 20,11  Z  " style="fill:rgb(185, 185, 185); fill-opacity:0.502; stroke:none;" />
 <path d="  M 20,16  L 21,16  L 21,15  L 20,15  Z  " style="fill:rgb(185, 185, 185); fill-opacity:0.502; stroke:none;" />
 <path d="  M 20,17  L 20,18  L 21,18  L 21,17  Z  " style="fill:rgb(185, 185, 185); fill-opacity:0.502; stroke:none;" />
 <path d="  M 19,21  L 19,22  L 20,22  L 20,21  Z  " style="fill:rgb(104, 60, 8); fill-opacity:1.000; stroke:none;" />
 <path d="  M 21,22  L 20,22  L 20,23  L 21,23  Z  " style="fill:rgb(104, 60, 8); fill-opacity:1.000; stroke:none;" />
 <path d="  M 22,21  L 21,21  L 21,22  L 22,22  Z  " style="fill:rgb(104, 60, 8); fill-opacity:1.000; stroke:none;" />
</svg>
