<?xml version="1.0" encoding="UTF-8" standalone="no"?>
<!DOCTYPE svg PUBLIC "-//W3C//DTD SVG 1.1//EN" 
  "http://www.w3.org/Graphics/SVG/1.1/DTD/svg11.dtd">
<svg width="24" height="24"
     xmlns="http://www.w3.org/2000/svg" version="1.1">
 <path d="  M 2,19  L 2,14  L 3,14  L 3,11  L 4,11  L 4,8  L 5,8  L 5,7  L 6,7  L 6,6  L 7,6  L 7,5  L 8,5  L 8,4  L 10,4  L 10,3  L 13,3  L 13,4  L 15,4  L 15,5  L 16,5  L 16,6  L 17,6  L 17,7  L 18,7  L 18,8  L 19,8  L 19,10  L 20,10  L 20,14  L 21,14  L 21,19  L 20,19  L 20,20  L 19,20  L 19,21  L 18,21  L 18,22  L 17,22  L 17,23  L 16,23  L 16,24  L 24,24  L 24,0  L 0,0  L 0,24  L 4,24  L 4,21  L 3,21  L 3,19  Z  " style="fill:rgb(0, 0, 0); fill-opacity:0.000; stroke:none;" />
 <path d="  M 2,19  L 3,19  L 3,14  L 2,14  Z  " style="fill:rgb(0, 0, 0); fill-opacity:1.000; stroke:none;" />
 <path d="  M 4,11  L 3,11  L 3,14  L 4,14  Z  " style="fill:rgb(0, 0, 0); fill-opacity:1.000; stroke:none;" />
 <path d="  M 4,21  L 4,19  L 3,19  L 3,21  Z  " style="fill:rgb(0, 0, 0); fill-opacity:1.000; stroke:none;" />
 <path d="  M 4,11  L 5,11  L 5,8  L 4,8  Z  " style="fill:rgb(0, 0, 0); fill-opacity:1.000; stroke:none;" />
 <path d="  M 16,16  L 15,16  L 15,17  L 10,17  L 10,16  L 8,16  L 8,15  L 7,15  L 7,14  L 6,14  L 6,12  L 5,12  L 5,14  L 4,14  L 4,19  L 5,19  L 5,21  L 6,21  L 6,24  L 7,24  L 7,20  L 8,20  L 8,22  L 9,22  L 9,23  L 10,23  L 10,24  L 12,24  L 12,23  L 13,23  L 13,22  L 16,22  L 16,21  L 17,21  L 17,20  L 18,20  L 18,21  L 19,21  L 19,20  L 20,20  L 20,19  L 21,19  L 21,14  L 20,14  L 20,17  L 19,17  L 19,14  L 18,14  L 18,12  L 17,12  L 17,10  L 16,10  Z  M 11,19  L 11,18  L 13,18  L 13,19  Z  M 14,18  L 20,18  L 20,19  L 14,19  Z  " style="fill:rgb(0, 0, 0); fill-opacity:1.000; stroke:none;" />
 <path d="  M 4,21  L 4,24  L 5,24  L 5,21  Z  " style="fill:rgb(0, 0, 0); fill-opacity:1.000; stroke:none;" />
 <path d="  M 6,7  L 5,7  L 5,8  L 6,8  Z  " style="fill:rgb(0, 0, 0); fill-opacity:1.000; stroke:none;" />
 <path d="  M 7,6  L 6,6  L 6,7  L 7,7  Z  " style="fill:rgb(0, 0, 0); fill-opacity:1.000; stroke:none;" />
 <path d="  M 7,12  L 7,10  L 6,10  L 6,12  Z  " style="fill:rgb(0, 0, 0); fill-opacity:1.000; stroke:none;" />
 <path d="  M 8,5  L 7,5  L 7,6  L 8,6  Z  " style="fill:rgb(0, 0, 0); fill-opacity:1.000; stroke:none;" />
 <path d="  M 8,10  L 8,9  L 7,9  L 7,10  Z  " style="fill:rgb(0, 0, 0); fill-opacity:1.000; stroke:none;" />
 <path d="  M 8,4  L 8,5  L 10,5  L 10,4  Z  " style="fill:rgb(0, 0, 0); fill-opacity:1.000; stroke:none;" />
 <path d="  M 15,9  L 15,8  L 8,8  L 8,9  Z  " style="fill:rgb(0, 0, 0); fill-opacity:1.000; stroke:none;" />
 <path d="  M 10,12  L 9,12  L 9,13  L 10,13  Z  " style="fill:rgb(0, 0, 0); fill-opacity:1.000; stroke:none;" />
 <path d="  M 10,3  L 10,4  L 13,4  L 13,3  Z  " style="fill:rgb(0, 0, 0); fill-opacity:1.000; stroke:none;" />
 <path d="  M 12,15  L 12,16  L 14,16  L 14,15  Z  " style="fill:rgb(0, 0, 0); fill-opacity:1.000; stroke:none;" />
 <path d="  M 15,5  L 15,4  L 13,4  L 13,5  Z  " style="fill:rgb(0, 0, 0); fill-opacity:1.000; stroke:none;" />
 <path d="  M 13,23  L 13,24  L 16,24  L 16,23  Z  " style="fill:rgb(0, 0, 0); fill-opacity:1.000; stroke:none;" />
 <path d="  M 15,13  L 15,12  L 14,12  L 14,13  Z  " style="fill:rgb(0, 0, 0); fill-opacity:1.000; stroke:none;" />
 <path d="  M 16,5  L 15,5  L 15,6  L 16,6  Z  " style="fill:rgb(0, 0, 0); fill-opacity:1.000; stroke:none;" />
 <path d="  M 16,10  L 16,9  L 15,9  L 15,10  Z  " style="fill:rgb(0, 0, 0); fill-opacity:1.000; stroke:none;" />
 <path d="  M 16,6  L 16,7  L 17,7  L 17,6  Z  " style="fill:rgb(0, 0, 0); fill-opacity:1.000; stroke:none;" />
 <path d="  M 17,22  L 16,22  L 16,23  L 17,23  Z  " style="fill:rgb(0, 0, 0); fill-opacity:1.000; stroke:none;" />
 <path d="  M 17,8  L 18,8  L 18,7  L 17,7  Z  " style="fill:rgb(0, 0, 0); fill-opacity:1.000; stroke:none;" />
 <path d="  M 17,22  L 18,22  L 18,21  L 17,21  Z  " style="fill:rgb(0, 0, 0); fill-opacity:1.000; stroke:none;" />
 <path d="  M 19,8  L 18,8  L 18,11  L 19,11  Z  " style="fill:rgb(0, 0, 0); fill-opacity:1.000; stroke:none;" />
 <path d="  M 4,14  L 3,14  L 3,19  L 4,19  Z  " style="fill:rgb(85, 85, 85); fill-opacity:1.000; stroke:none;" />
 <path d="  M 5,11  L 4,11  L 4,14  L 5,14  L 5,12  L 6,12  L 6,10  L 7,10  L 7,9  L 8,9  L 8,8  L 15,8  L 15,9  L 16,9  L 16,10  L 17,10  L 17,12  L 18,12  L 18,14  L 19,14  L 19,11  L 18,11  L 18,8  L 17,8  L 17,7  L 16,7  L 16,6  L 15,6  L 15,5  L 13,5  L 13,4  L 10,4  L 10,5  L 8,5  L 8,6  L 7,6  L 7,7  L 6,7  L 6,8  L 5,8  Z  " style="fill:rgb(85, 85, 85); fill-opacity:1.000; stroke:none;" />
 <path d="  M 5,21  L 5,19  L 4,19  L 4,21  Z  " style="fill:rgb(85, 85, 85); fill-opacity:1.000; stroke:none;" />
 <path d="  M 5,24  L 6,24  L 6,21  L 5,21  Z  " style="fill:rgb(85, 85, 85); fill-opacity:1.000; stroke:none;" />
 <path d="  M 12,24  L 13,24  L 13,23  L 12,23  Z  " style="fill:rgb(85, 85, 85); fill-opacity:1.000; stroke:none;" />
 <path d="  M 13,22  L 13,23  L 16,23  L 16,22  Z  " style="fill:rgb(85, 85, 85); fill-opacity:1.000; stroke:none;" />
 <path d="  M 17,22  L 17,21  L 16,21  L 16,22  Z  " style="fill:rgb(85, 85, 85); fill-opacity:1.000; stroke:none;" />
 <path d="  M 17,20  L 17,21  L 18,21  L 18,20  Z  " style="fill:rgb(85, 85, 85); fill-opacity:1.000; stroke:none;" />
 <path d="  M 19,17  L 20,17  L 20,16  L 19,16  Z  " style="fill:rgb(85, 85, 85); fill-opacity:1.000; stroke:none;" />
 <path d="  M 10,17  L 15,17  L 15,16  L 16,16  L 16,13  L 14,13  L 14,11  L 16,11  L 16,10  L 15,10  L 15,9  L 8,9  L 8,10  L 7,10  L 7,12  L 6,12  L 6,14  L 7,14  L 7,15  L 8,15  L 8,16  L 10,16  Z  M 11,13  L 9,13  L 9,11  L 11,11  Z  M 12,15  L 14,15  L 14,16  L 12,16  Z  " style="fill:rgb(174, 139, 97); fill-opacity:1.000; stroke:none;" />
 <path d="  M 7,24  L 10,24  L 10,23  L 9,23  L 9,22  L 8,22  L 8,20  L 7,20  Z  " style="fill:rgb(174, 139, 97); fill-opacity:1.000; stroke:none;" />
 <path d="  M 9,11  L 9,12  L 11,12  L 11,11  Z  " style="fill:rgb(134, 88, 30); fill-opacity:1.000; stroke:none;" />
 <path d="  M 14,11  L 14,12  L 16,12  L 16,11  Z  " style="fill:rgb(134, 88, 30); fill-opacity:1.000; stroke:none;" />
 <path d="  M 11,13  L 11,12  L 10,12  L 10,13  Z  " style="fill:rgb(167, 124, 71); fill-opacity:1.000; stroke:none;" />
 <path d="  M 15,12  L 15,13  L 16,13  L 16,12  Z  " style="fill:rgb(167, 124, 71); fill-opacity:1.000; stroke:none;" />
 <path d="  M 11,18  L 11,19  L 13,19  L 13,18  Z  " style="fill:rgb(105, 47, 8); fill-opacity:1.000; stroke:none;" />
 <path d="  M 14,18  L 14,19  L 19,19  L 19,18  Z  " style="fill:rgb(198, 198, 198); fill-opacity:1.000; stroke:none;" />
 <path d="  M 19,11  L 20,11  L 20,10  L 19,10  Z  " style="fill:rgb(221, 221, 221); fill-opacity:0.502; stroke:none;" />
 <path d="  M 19,11  L 19,14  L 20,14  L 20,11  Z  " style="fill:rgb(111, 111, 111); fill-opacity:1.000; stroke:none;" />
 <path d="  M 19,16  L 20,16  L 20,14  L 19,14  Z  " style="fill:rgb(153, 153, 153); fill-opacity:1.000; stroke:none;" />
 <path d="  M 19,19  L 20,19  L 20,18  L 19,18  Z  " style="fill:rgb(226, 91, 38); fill-opacity:1.000; stroke:none;" />
</svg>
