<?xml version="1.0" encoding="UTF-8" standalone="no"?>
<!DOCTYPE svg PUBLIC "-//W3C//DTD SVG 1.1//EN" 
  "http://www.w3.org/Graphics/SVG/1.1/DTD/svg11.dtd">
<svg width="24" height="24"
     xmlns="http://www.w3.org/2000/svg" version="1.1">
 <path d="  M 24,0  L 0,0  L 0,24  L 8,24  L 8,23  L 5,23  L 5,13  L 6,13  L 6,10  L 7,10  L 7,9  L 8,9  L 8,8  L 9,8  L 9,7  L 15,7  L 15,8  L 16,8  L 16,9  L 17,9  L 17,22  L 16,22  L 16,23  L 13,23  L 13,24  L 24,24  Z  " style="fill:rgb(0, 0, 0); fill-opacity:0.000; stroke:none;" />
 <path d="  M 8,23  L 8,14  L 7,14  L 7,11  L 10,11  L 10,10  L 15,10  L 15,11  L 17,11  L 17,9  L 16,9  L 16,8  L 15,8  L 15,7  L 9,7  L 9,8  L 8,8  L 8,9  L 7,9  L 7,10  L 6,10  L 6,13  L 5,13  L 5,23  Z  " style="fill:rgb(81, 54, 12); fill-opacity:1.000; stroke:none;" />
 <path d="  M 16,19  L 15,19  L 15,21  L 14,21  L 14,22  L 13,22  L 13,23  L 16,23  L 16,22  L 17,22  L 17,13  L 16,13  Z  " style="fill:rgb(81, 54, 12); fill-opacity:1.000; stroke:none;" />
 <path d="  M 7,13  L 8,13  L 8,12  L 11,12  L 11,13  L 13,13  L 13,12  L 16,12  L 16,13  L 17,13  L 17,11  L 7,11  Z  " style="fill:rgb(0, 0, 0); fill-opacity:1.000; stroke:none;" />
 <path d="  M 8,24  L 9,24  L 9,19  L 8,19  Z  " style="fill:rgb(0, 0, 0); fill-opacity:1.000; stroke:none;" />
 <path d="  M 14,21  L 11,21  L 11,22  L 12,22  L 12,24  L 13,24  L 13,22  L 14,22  Z  " style="fill:rgb(0, 0, 0); fill-opacity:1.000; stroke:none;" />
 <path d="  M 15,20  L 14,20  L 14,21  L 15,21  Z  " style="fill:rgb(0, 0, 0); fill-opacity:1.000; stroke:none;" />
 <path d="  M 7,13  L 7,14  L 8,14  L 8,13  Z  " style="fill:rgb(201, 201, 201); fill-opacity:1.000; stroke:none;" />
 <path d="  M 8,18  L 8,19  L 9,19  L 9,20  L 10,20  L 10,21  L 14,21  L 14,20  L 15,20  L 15,19  L 16,19  L 16,18  L 14,18  L 14,17  L 15,17  L 15,15  L 13,15  L 13,16  L 12,16  L 12,15  L 9,15  L 9,17  L 10,17  L 10,18  Z  " style="fill:rgb(201, 201, 201); fill-opacity:1.000; stroke:none;" />
 <path d="  M 8,13  L 9,13  L 9,12  L 8,12  Z  " style="fill:rgb(134, 131, 119); fill-opacity:1.000; stroke:none;" />
 <path d="  M 8,14  L 9,14  L 9,13  L 8,13  Z  " style="fill:rgb(187, 179, 166); fill-opacity:1.000; stroke:none;" />
 <path d="  M 9,14  L 9,15  L 11,15  L 11,14  Z  " style="fill:rgb(187, 179, 166); fill-opacity:1.000; stroke:none;" />
 <path d="  M 13,15  L 14,15  L 14,12  L 13,12  Z  " style="fill:rgb(187, 179, 166); fill-opacity:1.000; stroke:none;" />
 <path d="  M 8,14  L 8,15  L 9,15  L 9,14  Z  " style="fill:rgb(202, 214, 225); fill-opacity:1.000; stroke:none;" />
 <path d="  M 15,14  L 15,15  L 16,15  L 16,14  Z  " style="fill:rgb(202, 214, 225); fill-opacity:1.000; stroke:none;" />
 <path d="  M 9,18  L 9,15  L 8,15  L 8,18  Z  " style="fill:rgb(174, 139, 97); fill-opacity:1.000; stroke:none;" />
 <path d="  M 11,22  L 11,21  L 10,21  L 10,20  L 9,20  L 9,24  L 12,24  L 12,22  Z  " style="fill:rgb(174, 139, 97); fill-opacity:1.000; stroke:none;" />
 <path d="  M 10,10  L 10,11  L 11,11  L 11,10  Z  " style="fill:rgb(174, 139, 97); fill-opacity:1.000; stroke:none;" />
 <path d="  M 13,13  L 11,13  L 11,15  L 13,15  Z  " style="fill:rgb(174, 139, 97); fill-opacity:1.000; stroke:none;" />
 <path d="  M 15,11  L 15,10  L 12,10  L 12,11  Z  " style="fill:rgb(174, 139, 97); fill-opacity:1.000; stroke:none;" />
 <path d="  M 16,15  L 15,15  L 15,17  L 16,17  Z  " style="fill:rgb(174, 139, 97); fill-opacity:1.000; stroke:none;" />
 <path d="  M 9,12  L 9,13  L 11,13  L 11,12  Z  " style="fill:rgb(164, 150, 129); fill-opacity:1.000; stroke:none;" />
 <path d="  M 14,12  L 14,13  L 16,13  L 16,12  Z  " style="fill:rgb(164, 150, 129); fill-opacity:1.000; stroke:none;" />
 <path d="  M 10,13  L 9,13  L 9,14  L 10,14  Z  " style="fill:rgb(89, 101, 112); fill-opacity:1.000; stroke:none;" />
 <path d="  M 14,14  L 15,14  L 15,13  L 14,13  Z  " style="fill:rgb(89, 101, 112); fill-opacity:1.000; stroke:none;" />
 <path d="  M 9,18  L 10,18  L 10,17  L 9,17  Z  " style="fill:rgb(177, 177, 177); fill-opacity:1.000; stroke:none;" />
 <path d="  M 12,16  L 13,16  L 13,15  L 12,15  Z  " style="fill:rgb(177, 177, 177); fill-opacity:1.000; stroke:none;" />
 <path d="  M 15,18  L 15,17  L 14,17  L 14,18  Z  " style="fill:rgb(177, 177, 177); fill-opacity:1.000; stroke:none;" />
 <path d="  M 10,14  L 11,14  L 11,13  L 10,13  Z  " style="fill:rgb(183, 171, 152); fill-opacity:1.000; stroke:none;" />
 <path d="  M 15,14  L 16,14  L 16,13  L 15,13  Z  " style="fill:rgb(183, 171, 152); fill-opacity:1.000; stroke:none;" />
 <path d="  M 12,10  L 11,10  L 11,11  L 12,11  Z  " style="fill:rgb(155, 111, 77); fill-opacity:1.000; stroke:none;" />
 <path d="  M 16,17  L 15,17  L 15,18  L 16,18  Z  " style="fill:rgb(155, 111, 77); fill-opacity:1.000; stroke:none;" />
 <path d="  M 15,14  L 14,14  L 14,15  L 15,15  Z  " style="fill:rgb(176, 163, 155); fill-opacity:1.000; stroke:none;" />
</svg>
