<?xml version="1.0" encoding="UTF-8" standalone="no"?>
<!DOCTYPE svg PUBLIC "-//W3C//DTD SVG 1.1//EN" 
  "http://www.w3.org/Graphics/SVG/1.1/DTD/svg11.dtd">
<svg width="24" height="24"
     xmlns="http://www.w3.org/2000/svg" version="1.1">
 <path d="  M 24,0  L 0,0  L 0,24  L 6,24  L 6,16  L 5,16  L 5,15  L 4,15  L 4,14  L 5,14  L 5,12  L 6,12  L 6,9  L 4,9  L 4,8  L 5,8  L 5,7  L 6,7  L 6,2  L 7,2  L 7,1  L 16,1  L 16,2  L 17,2  L 17,7  L 18,7  L 18,8  L 19,8  L 19,9  L 17,9  L 17,10  L 18,10  L 18,14  L 17,14  L 17,20  L 16,20  L 16,21  L 15,21  L 15,22  L 11,22  L 11,24  L 24,24  Z  " style="fill:rgb(0, 0, 0); fill-opacity:0.000; stroke:none;" />
 <path d="  M 7,11  L 8,11  L 8,10  L 17,10  L 17,9  L 19,9  L 19,8  L 18,8  L 18,7  L 5,7  L 5,8  L 4,8  L 4,9  L 6,9  L 6,12  L 5,12  L 5,14  L 6,14  L 6,13  L 7,13  Z  M 8,9  L 8,10  L 7,10  L 7,9  Z  " style="fill:rgb(0, 0, 0); fill-opacity:1.000; stroke:none;" />
 <path d="  M 5,15  L 5,14  L 4,14  L 4,15  Z  " style="fill:rgb(0, 0, 0); fill-opacity:1.000; stroke:none;" />
 <path d="  M 7,19  L 8,19  L 8,20  L 9,20  L 9,21  L 10,21  L 10,24  L 11,24  L 11,22  L 15,22  L 15,21  L 16,21  L 16,20  L 17,20  L 17,14  L 8,14  L 8,15  L 7,15  L 7,14  L 6,14  L 6,15  L 5,15  L 5,16  L 6,16  L 6,24  L 7,24  Z  M 16,16  L 15,16  L 15,17  L 9,17  L 9,16  L 8,16  L 8,15  L 12,15  L 12,16  L 14,16  L 14,15  L 16,15  Z  M 11,19  L 11,18  L 14,18  L 14,19  Z  " style="fill:rgb(0, 0, 0); fill-opacity:1.000; stroke:none;" />
 <path d="  M 17,6  L 17,2  L 16,2  L 16,1  L 7,1  L 7,2  L 6,2  L 6,6  Z  " style="fill:rgb(0, 0, 0); fill-opacity:1.000; stroke:none;" />
 <path d="  M 7,13  L 7,14  L 8,14  L 8,13  Z  " style="fill:rgb(0, 0, 0); fill-opacity:1.000; stroke:none;" />
 <path d="  M 9,11  L 9,13  L 16,13  L 16,11  Z  " style="fill:rgb(0, 0, 0); fill-opacity:1.000; stroke:none;" />
 <path d="  M 17,14  L 18,14  L 18,10  L 17,10  Z  " style="fill:rgb(0, 0, 0); fill-opacity:1.000; stroke:none;" />
 <path d="  M 6,15  L 6,14  L 5,14  L 5,15  Z  " style="fill:rgb(255, 217, 38); fill-opacity:1.000; stroke:none;" />
 <path d="  M 6,6  L 6,7  L 17,7  L 17,6  Z  " style="fill:rgb(220, 29, 29); fill-opacity:1.000; stroke:none;" />
 <path d="  M 6,13  L 6,14  L 7,14  L 7,13  Z  " style="fill:rgb(113, 63, 29); fill-opacity:1.000; stroke:none;" />
 <path d="  M 8,10  L 8,9  L 7,9  L 7,10  Z  " style="fill:rgb(113, 63, 29); fill-opacity:1.000; stroke:none;" />
 <path d="  M 8,15  L 8,14  L 7,14  L 7,15  Z  " style="fill:rgb(113, 63, 29); fill-opacity:1.000; stroke:none;" />
 <path d="  M 7,24  L 10,24  L 10,21  L 9,21  L 9,20  L 8,20  L 8,19  L 7,19  Z  " style="fill:rgb(113, 63, 29); fill-opacity:1.000; stroke:none;" />
 <path d="  M 15,17  L 15,16  L 16,16  L 16,15  L 14,15  L 14,16  L 12,16  L 12,15  L 8,15  L 8,16  L 9,16  L 9,17  Z  " style="fill:rgb(113, 63, 29); fill-opacity:1.000; stroke:none;" />
 <path d="  M 7,11  L 7,13  L 8,13  L 8,11  Z  " style="fill:rgb(141, 141, 141); fill-opacity:1.000; stroke:none;" />
 <path d="  M 9,11  L 9,10  L 8,10  L 8,11  Z  " style="fill:rgb(141, 141, 141); fill-opacity:1.000; stroke:none;" />
 <path d="  M 8,14  L 9,14  L 9,13  L 8,13  Z  " style="fill:rgb(141, 141, 141); fill-opacity:1.000; stroke:none;" />
 <path d="  M 17,11  L 17,10  L 16,10  L 16,11  Z  " style="fill:rgb(141, 141, 141); fill-opacity:1.000; stroke:none;" />
 <path d="  M 17,14  L 17,13  L 16,13  L 16,14  Z  " style="fill:rgb(141, 141, 141); fill-opacity:1.000; stroke:none;" />
 <path d="  M 9,13  L 9,11  L 8,11  L 8,13  Z  " style="fill:rgb(180, 180, 180); fill-opacity:1.000; stroke:none;" />
 <path d="  M 9,10  L 9,11  L 16,11  L 16,10  Z  " style="fill:rgb(180, 180, 180); fill-opacity:1.000; stroke:none;" />
 <path d="  M 9,13  L 9,14  L 16,14  L 16,13  Z  " style="fill:rgb(180, 180, 180); fill-opacity:1.000; stroke:none;" />
 <path d="  M 16,13  L 17,13  L 17,11  L 16,11  Z  " style="fill:rgb(180, 180, 180); fill-opacity:1.000; stroke:none;" />
 <path d="  M 14,18  L 11,18  L 11,19  L 14,19  Z  " style="fill:rgb(134, 88, 30); fill-opacity:1.000; stroke:none;" />
</svg>
