<?xml version="1.0" encoding="UTF-8" standalone="no"?>
<!DOCTYPE svg PUBLIC "-//W3C//DTD SVG 1.1//EN" 
  "http://www.w3.org/Graphics/SVG/1.1/DTD/svg11.dtd">
<svg width="24" height="24"
     xmlns="http://www.w3.org/2000/svg" version="1.1">
 <path d="  M 24,0  L 0,0  L 0,24  L 8,24  L 8,19  L 7,19  L 7,17  L 5,17  L 5,15  L 3,15  L 3,14  L 4,14  L 4,13  L 5,13  L 5,12  L 4,12  L 4,11  L 5,11  L 5,10  L 6,10  L 6,9  L 5,9  L 5,8  L 7,8  L 7,6  L 8,6  L 8,7  L 9,7  L 9,6  L 10,6  L 10,5  L 14,5  L 14,6  L 15,6  L 15,7  L 16,7  L 16,8  L 17,8  L 17,7  L 18,7  L 18,8  L 19,8  L 19,10  L 18,10  L 18,11  L 19,11  L 19,12  L 20,12  L 20,13  L 19,13  L 19,15  L 20,15  L 20,16  L 18,16  L 18,17  L 17,17  L 17,19  L 16,19  L 16,20  L 15,20  L 15,21  L 14,21  L 14,22  L 13,22  L 13,24  L 24,24  Z  M 19,17  L 19,18  L 18,18  L 18,17  Z  M 4,17  L 5,17  L 5,18  L 4,18  Z  M 16,6  L 15,6  L 15,5  L 16,5  Z  " style="fill:rgb(0, 0, 0); fill-opacity:0.000; stroke:none;" />
 <path d="  M 6,12  L 6,11  L 5,11  L 5,12  Z  " style="fill:rgb(0, 0, 0); fill-opacity:0.000; stroke:none;" />
 <path d="  M 6,14  L 6,13  L 5,13  L 5,14  Z  " style="fill:rgb(0, 0, 0); fill-opacity:0.000; stroke:none;" />
 <path d="  M 17,8  L 17,9  L 18,9  L 18,8  Z  " style="fill:rgb(0, 0, 0); fill-opacity:0.000; stroke:none;" />
 <path d="  M 18,13  L 19,13  L 19,12  L 18,12  Z  " style="fill:rgb(0, 0, 0); fill-opacity:0.000; stroke:none;" />
 <path d="  M 18,9  L 17,9  L 17,8  L 16,8  L 16,7  L 15,7  L 15,6  L 14,6  L 14,5  L 10,5  L 10,6  L 9,6  L 9,7  L 8,7  L 8,6  L 7,6  L 7,8  L 5,8  L 5,9  L 6,9  L 6,10  L 5,10  L 5,11  L 6,11  L 6,12  L 5,12  L 5,13  L 4,13  L 4,14  L 3,14  L 3,15  L 5,15  L 5,17  L 7,17  L 7,13  L 8,13  L 8,12  L 9,12  L 9,10  L 10,10  L 10,9  L 11,9  L 11,10  L 12,10  L 12,13  L 13,13  L 13,10  L 15,10  L 15,11  L 16,11  L 16,12  L 17,12  L 17,17  L 18,17  L 18,16  L 20,16  L 20,15  L 19,15  L 19,13  L 18,13  L 18,12  L 19,12  L 19,11  L 18,11  L 18,10  L 19,10  L 19,8  L 18,8  Z  M 6,13  L 6,14  L 5,14  L 5,13  Z  " style="fill:rgb(255, 255, 255); fill-opacity:1.000; stroke:none;" />
 <path d="  M 5,12  L 5,11  L 4,11  L 4,12  Z  " style="fill:rgb(255, 255, 255); fill-opacity:1.000; stroke:none;" />
 <path d="  M 4,18  L 5,18  L 5,17  L 4,17  Z  " style="fill:rgb(255, 255, 255); fill-opacity:1.000; stroke:none;" />
 <path d="  M 10,10  L 10,11  L 11,11  L 11,10  Z  " style="fill:rgb(255, 255, 255); fill-opacity:1.000; stroke:none;" />
 <path d="  M 14,14  L 14,13  L 13,13  L 13,14  Z  " style="fill:rgb(255, 255, 255); fill-opacity:1.000; stroke:none;" />
 <path d="  M 16,5  L 15,5  L 15,6  L 16,6  Z  " style="fill:rgb(255, 255, 255); fill-opacity:1.000; stroke:none;" />
 <path d="  M 17,8  L 18,8  L 18,7  L 17,7  Z  " style="fill:rgb(255, 255, 255); fill-opacity:1.000; stroke:none;" />
 <path d="  M 18,17  L 18,18  L 19,18  L 19,17  Z  " style="fill:rgb(255, 255, 255); fill-opacity:1.000; stroke:none;" />
 <path d="  M 20,12  L 19,12  L 19,13  L 20,13  Z  " style="fill:rgb(255, 255, 255); fill-opacity:1.000; stroke:none;" />
 <path d="  M 7,13  L 7,14  L 8,14  L 8,13  Z  " style="fill:rgb(173, 126, 89); fill-opacity:1.000; stroke:none;" />
 <path d="  M 9,16  L 9,17  L 10,17  L 10,16  Z  " style="fill:rgb(173, 126, 89); fill-opacity:1.000; stroke:none;" />
 <path d="  M 12,10  L 11,10  L 11,11  L 12,11  Z  " style="fill:rgb(173, 126, 89); fill-opacity:1.000; stroke:none;" />
 <path d="  M 12,21  L 13,21  L 13,20  L 12,20  Z  " style="fill:rgb(173, 126, 89); fill-opacity:1.000; stroke:none;" />
 <path d="  M 15,14  L 14,14  L 14,15  L 15,15  Z  " style="fill:rgb(173, 126, 89); fill-opacity:1.000; stroke:none;" />
 <path d="  M 16,17  L 15,17  L 15,18  L 16,18  Z  " style="fill:rgb(173, 126, 89); fill-opacity:1.000; stroke:none;" />
 <path d="  M 7,19  L 8,19  L 8,14  L 7,14  Z  " style="fill:rgb(0, 0, 0); fill-opacity:1.000; stroke:none;" />
 <path d="  M 8,24  L 9,24  L 9,19  L 8,19  Z  " style="fill:rgb(0, 0, 0); fill-opacity:1.000; stroke:none;" />
 <path d="  M 10,13  L 9,13  L 9,14  L 10,14  Z  " style="fill:rgb(0, 0, 0); fill-opacity:1.000; stroke:none;" />
 <path d="  M 11,20  L 10,20  L 10,21  L 11,21  Z  " style="fill:rgb(0, 0, 0); fill-opacity:1.000; stroke:none;" />
 <path d="  M 14,21  L 11,21  L 11,22  L 12,22  L 12,24  L 13,24  L 13,22  L 14,22  Z  " style="fill:rgb(0, 0, 0); fill-opacity:1.000; stroke:none;" />
 <path d="  M 13,17  L 13,16  L 12,16  L 12,17  Z  " style="fill:rgb(0, 0, 0); fill-opacity:1.000; stroke:none;" />
 <path d="  M 14,14  L 15,14  L 15,13  L 14,13  Z  " style="fill:rgb(0, 0, 0); fill-opacity:1.000; stroke:none;" />
 <path d="  M 15,20  L 14,20  L 14,21  L 15,21  Z  " style="fill:rgb(0, 0, 0); fill-opacity:1.000; stroke:none;" />
 <path d="  M 15,19  L 15,20  L 16,20  L 16,19  Z  " style="fill:rgb(0, 0, 0); fill-opacity:1.000; stroke:none;" />
 <path d="  M 17,19  L 17,12  L 16,12  L 16,19  Z  " style="fill:rgb(0, 0, 0); fill-opacity:1.000; stroke:none;" />
 <path d="  M 11,19  L 11,18  L 14,18  L 14,19  Z  M 15,18  L 15,17  L 16,17  L 16,14  L 15,14  L 15,15  L 14,15  L 14,14  L 13,14  L 13,13  L 12,13  L 12,11  L 10,11  L 10,10  L 9,10  L 9,12  L 8,12  L 8,19  L 9,19  L 9,24  L 12,24  L 12,22  L 11,22  L 11,21  L 12,21  L 12,20  L 13,20  L 13,21  L 14,21  L 14,20  L 15,20  L 15,19  L 16,19  L 16,18  Z  M 13,17  L 12,17  L 12,16  L 13,16  Z  M 11,14  L 9,14  L 9,12  L 11,12  Z  M 10,16  L 10,17  L 9,17  L 9,16  Z  M 11,20  L 11,21  L 10,21  L 10,20  Z  " style="fill:rgb(219, 177, 128); fill-opacity:1.000; stroke:none;" />
 <path d="  M 10,9  L 10,10  L 11,10  L 11,9  Z  " style="fill:rgb(219, 177, 128); fill-opacity:1.000; stroke:none;" />
 <path d="  M 16,11  L 15,11  L 15,10  L 13,10  L 13,13  L 14,13  L 14,12  L 16,12  Z  " style="fill:rgb(219, 177, 128); fill-opacity:1.000; stroke:none;" />
 <path d="  M 9,12  L 9,13  L 11,13  L 11,12  Z  " style="fill:rgb(166, 110, 44); fill-opacity:1.000; stroke:none;" />
 <path d="  M 14,12  L 14,13  L 16,13  L 16,12  Z  " style="fill:rgb(166, 110, 44); fill-opacity:1.000; stroke:none;" />
 <path d="  M 10,14  L 11,14  L 11,13  L 10,13  Z  " style="fill:rgb(210, 157, 96); fill-opacity:1.000; stroke:none;" />
 <path d="  M 15,14  L 16,14  L 16,13  L 15,13  Z  " style="fill:rgb(210, 157, 96); fill-opacity:1.000; stroke:none;" />
 <path d="  M 14,18  L 11,18  L 11,19  L 14,19  Z  " style="fill:rgb(113, 16, 16); fill-opacity:1.000; stroke:none;" />
</svg>
